<?xml version="1.0" standalone="no"?>
<!DOCTYPE svg PUBLIC "-//W3C//DTD SVG 1.1//EN" "http://www.w3.org/Graphics/SVG/1.1/DTD/svg11.dtd">
<svg xmlns="http://www.w3.org/2000/svg">
<metadata>Copyright (C) 2019 by original authors @ fontello.com</metadata>
<defs>
<font id="fontello" horiz-adv-x="1000" >
<font-face font-family="fontello" font-weight="400" font-stretch="normal" units-per-em="1000" ascent="850" descent="-150" />
<missing-glyph horiz-adv-x="1000" />
<glyph glyph-name="unknown" unicode="&#xe9a9;" d="M916 722h-832c-46 0-84-38-84-84v-576c0-46 38-84 84-84h832c46 0 84 38 84 84v576c0 46-38 84-84 84z m44-660c0-24-20-44-44-44h-832c-24 0-44 20-44 44v576c0 24 20 44 44 44h832c24 0 44-20 44-44v-576z m-357 412l19-9 17 37-18 8c-21 10-52 17-85 19v49h-40v-50c-22-2-43-8-60-18-25-16-38-41-38-71 0-65 51-88 98-104v-124c-29 2-59 10-85 19l-19 7-14-37 19-7c30-12 65-20 99-22v-49h40v49c22 3 41 9 58 20 17 12 38 36 38 80 0 58-51 78-96 93v125c26-2 51-7 67-15z m-165-35c0 17 6 28 20 37 10 7 23 10 38 12v-111c-36 14-58 29-58 62z m154-168c0-22-7-37-21-47-9-6-21-10-35-12v110c38-14 56-26 56-51z" horiz-adv-x="1000" />

<glyph glyph-name="angle-down" unicode="&#xf100;" d="M847 534c-13 13-32 13-45 0l-302-302-302 302c-12 13-32 13-44 0s-13-32 0-44l324-324c6-6 14-9 22-9s16 3 22 9l325 324c12 12 12 32 0 44z" horiz-adv-x="1000" />

<glyph glyph-name="angle-left" unicode="&#xf101;" d="M684 4c13 12 13 32 0 44l-302 302 302 303c13 12 13 32 0 44s-32 12-44 0l-324-325c-6-6-9-14-9-22s3-16 9-22l324-324c12-13 32-13 44 0z" horiz-adv-x="1000" />

<glyph glyph-name="angle-right" unicode="&#xf102;" d="M316 697c-12-13-12-32 0-45l302-302-302-302c-12-12-12-32 0-44s32-13 44 0l324 324c6 6 10 14 10 22s-3 16-10 22l-324 325c-12 12-32 12-44 0z" horiz-adv-x="1000" />

<glyph glyph-name="angle-up" unicode="&#xf103;" d="M154 166c12-12 32-12 44 0l302 302 302-302c13-12 32-12 45 0s12 32 0 44l-325 324c-6 6-14 10-22 10s-16-3-22-10l-324-324c-13-12-13-32 0-44z" horiz-adv-x="1000" />

<glyph glyph-name="authorized" unicode="&#xf104;" d="M682-42h-1v0h-458v459h456l32 32c-3 2-7 4-11 4h-49v257c0 38-30 68-68 68h-262c-37 0-68-30-68-68v-257h-48c-10 0-18-8-18-18v-495c0-10 8-18 18-18h495c10 0 18 8 18 18v374l-36-36v-320z m-392 752c0 18 14 32 31 32h262c18 0 32-14 32-32v-257h-325v257z m581-198l-407-406c-3-4-8-5-13-5-4 0-9 1-12 5l-139 139c-7 7-7 18 0 25 7 8 18 8 25 0l126-126 394 394c7 7 18 7 26 0 7-7 7-19 0-26z" horiz-adv-x="1000" />

<glyph glyph-name="ban-circle" unicode="&#xf105;" d="M773 605c-144 144-379 144-523 0-144-144-144-379 0-523 144-144 379-144 523 0s144 379 0 523z m-494-30c124 124 323 128 452 12l-463-463c-116 128-113 327 11 451z m464-464c-120-120-312-127-441-20l462 462c107-129 100-321-21-442z" horiz-adv-x="1000" />

<glyph glyph-name="branches" unicode="&#xf106;" d="M500-67c-6 0-12 3-16 8-12 14-296 355-296 519 0 169 140 307 312 307s313-138 313-307c0-164-285-505-297-519-4-5-10-8-16-8z m0 792c-149 0-271-119-271-265 0-128 211-398 271-473 60 75 271 345 271 473 0 146-122 265-271 265z m0-333c-57 0-104 46-104 104s47 104 104 104c58 0 104-47 104-104s-46-104-104-104z m0 166c-34 0-62-28-62-62s28-63 62-63 63 28 63 63-28 62-63 62z" horiz-adv-x="1000" />

<glyph glyph-name="building" unicode="&#xf107;" d="M366 653h96v-97h-96v97z m0-252h96v96h-96v-96z m0-155h96v96h-96v-96z m172 310h96v97h-96v-97z m0-310h96v96h-96v-96z m0 155h96v96h-96v-96z m278-433c0-12-9-21-20-21h-64-467-61c-11 0-20 9-20 21s9 20 20 20h61v664c0 56 45 101 101 101h264c56 0 102-45 102-101v-664h64c11 0 20-9 20-20z m-126 20v664c0 33-27 60-60 60h-264c-33 0-60-27-60-60v-664h133v170h122v-170h129z" horiz-adv-x="1000" />

<glyph glyph-name="calendar" unicode="&#xf108;" d="M694 616v87h-49v-87h-289v87h-50v-87h-214v-619h816v619h-214z m-338-155l0 0 0 106h289v-106h49v106h164v-521h-716v521h164v-106h50z m78-267c6 6 9 15 9 27 0 11-3 19-9 25-6 7-13 10-21 10-6 0-12-1-20-3l5 35c12-1 20 2 27 7 6 5 9 13 9 21 0 8-3 14-7 18-4 5-10 7-18 7-7 0-13-3-19-8-5-5-8-12-9-22l-40 7c3 13 7 24 13 32 5 8 13 15 23 19 10 5 21 7 33 7 21 0 38-6 51-20 10-11 16-23 16-37 0-20-11-35-33-47 13-3 24-9 31-18 8-10 12-21 12-35 0-20-7-36-22-50-14-14-32-21-53-21-21 0-37 6-51 18-13 11-21 26-23 45l42 5c1-10 5-18 10-24 6-6 13-8 21-8 9 0 17 3 23 10z m146 119c-16-14-34-25-55-32v39c11 3 23 10 36 21 13 10 22 22 27 35h35v-224h-43v161z" horiz-adv-x="1000" />

<glyph glyph-name="camera" unicode="&#xf109;" d="M836 33h-672c-55 0-100 45-100 100v346c0 55 45 100 100 100h161l33 61c9 17 27 27 46 27h192c19 0 37-10 46-27l33-61h161c55 0 100-45 100-100v-346c0-55-45-100-100-100z m-672 492c-25 0-46-21-46-46v-346c0-26 21-47 46-47h672c25 0 46 21 46 47v346c0 25-21 46-46 46h-192l-49 89h-190l-48-89h-193z m560-42c-5 0-9-4-9-9v-56c0-5 4-9 9-9h84c5 0 9 4 9 9v56c0 5-4 9-9 9h-84z m-224-334c-91 0-164 74-164 164 0 91 73 164 164 164 91 0 164-73 164-164 0-91-73-164-164-164z m0 298c-74 0-134-60-134-134 0-74 60-134 134-134 74 0 134 60 134 134 0 74-60 134-134 134z" horiz-adv-x="1000" />

<glyph glyph-name="caret-down" unicode="&#xf10a;" d="M817 454l-317-317-317 317h634z" horiz-adv-x="1000" />

<glyph glyph-name="caret-left" unicode="&#xf10b;" d="M274 350l317 317v-634l-317 317z" horiz-adv-x="1000" />

<glyph glyph-name="caret-right" unicode="&#xf10c;" d="M736 350l-317-317v634l317-317z" horiz-adv-x="1000" />

<glyph glyph-name="caret-up" unicode="&#xf10d;" d="M500 563l317-317h-634l317 317z" horiz-adv-x="1000" />

<glyph glyph-name="check-empty" unicode="&#xf10e;" d="M714 632h-63-371 0c-30 0-58-12-79-32-2-1-3-2-5-3-1-2-2-3-4-5-19-21-31-49-31-79v0-329-62c0-66 54-119 119-119h63 371c65 0 119 53 119 119v328 63c0 65-54 119-119 119z m67-510c0-37-30-67-67-67h-371-63c-37 0-67 30-67 67v62 329c0 17 7 33 18 45 1 1 1 1 2 2 1 1 3 2 4 3 2 2 4 4 6 5 0 0 1 0 1 1 7 4 14 8 23 9 1 0 2 0 3 1 4 0 7 1 10 1h371 63c37 0 67-31 67-67v-63-328z" horiz-adv-x="1000" />

<glyph glyph-name="check" unicode="&#xf10f;" d="M833 450v-328c0-66-54-119-119-119h-434c-65 0-119 53-119 119v391c0 65 54 119 119 119h371c15 0 26-12 26-26 0-15-11-26-26-26h-371c-37 0-67-30-67-67v-391c0-37 30-67 67-67h434c37 0 67 30 67 67v328c0 15 11 26 26 26 14 0 26-11 26-26z m42 278c-12 8-28 5-37-7l-332-474-181 171c-10 10-27 10-37-1-10-10-9-27 1-37l203-192c5-5 12-7 18-7 7 0 14 2 19 8 2 2 4 6 5 9 1 1 2 1 3 2l344 491c8 12 6 28-6 37z" horiz-adv-x="1000" />

<glyph glyph-name="chevron-down" unicode="&#xf110;" d="M847 534c-13 13-33 13-45 0l-302-302-302 302c-12 13-32 13-44 0s-13-32 0-44l324-324c6-6 14-9 22-9s16 3 22 9l325 324c12 12 12 32 0 44z" horiz-adv-x="1000" />

<glyph glyph-name="chevron-up" unicode="&#xf111;" d="M154 166c12-12 32-12 44 0l302 302 302-302c13-12 32-12 45 0s12 32 0 44l-325 324c-6 6-14 10-22 10s-16-3-22-10l-324-324c-13-12-13-32 0-44z" horiz-adv-x="1000" />

<glyph glyph-name="circle-arrow-left" unicode="&#xf112;" d="M684 4c13 12 13 32 0 44l-302 302 302 303c13 12 13 32 0 44s-32 12-44 0l-324-325c-6-6-9-14-9-22s3-16 9-22l324-324c12-13 32-13 44 0z" horiz-adv-x="1000" />

<glyph glyph-name="circle-blank" unicode="&#xf113;" d="M511 713c-204 0-369-166-369-370s165-369 369-369c204 0 370 166 370 369s-166 370-370 370z m0-698c-147 0-271 97-313 231-10 31-15 63-15 97 0 181 147 329 328 329 12 0 23-1 34-2 165-17 294-157 294-327 0-22-2-44-6-66-31-149-163-262-322-262z" horiz-adv-x="1000" />

<glyph glyph-name="circle" unicode="&#xf114;" d="M528 608c-152 0-274-123-274-274 0-151 122-274 274-274 151 0 274 123 274 274 0 151-123 274-274 274z" horiz-adv-x="1000" />

<glyph glyph-name="cogs" unicode="&#xf115;" d="M464-67c-1 0-1 0-2 0-20 2-38 19-42 39l-14 84c-1 3-5 9-9 10l-24 10c-5 2-13 1-15-1l-69-49c-16-11-42-10-57 3l-52 52c-15 17-16 41-4 58l49 69c2 3 2 10 1 12 0 1-2 4-6 14-5 12-5 14-5 14-1 3-6 7-10 8l-83 14c-21 4-37 22-38 42l-1 74c2 23 19 41 39 44l84 14c3 1 8 6 10 9l10 25c2 4 1 11-1 14l-49 69c-12 17-11 41 3 57l52 52c17 15 42 16 58 4l69-49c2-1 11-2 13-1 0 0 2 1 13 6 12 5 14 5 14 5 3 1 7 7 8 10l14 83c4 21 22 37 43 39h73c22-2 41-19 44-39l14-83c1-4 6-9 9-11l25-10c5-2 12 0 14 1l69 49c16 11 42 10 57-3l52-52c15-17 16-41 4-58l-49-69c-2-3-2-10-1-12 0-1 1-3 6-14 5-11 5-13 5-13 1-4 7-8 10-9l83-14c21-3 37-22 39-42v-74c-2-22-19-41-39-44l-83-14c-4-1-9-5-10-9l-11-24c-2-4-1-12 1-15l49-69c12-17 11-41-3-57l-52-52c-9-8-20-12-31-12l0 0c-10 0-20 3-27 8l-69 49c-2 1-11 2-13 1l0 0c0 0-1-1-13-6-11-5-13-5-13-5-4-1-8-6-9-10l-14-83c-3-21-22-37-42-39l-74 0 0 0z m-98 186c9 0 17-2 24-5l22-9c17-6 32-24 35-43l14-83c0-1 3-4 4-4l71 0c0 0 3 2 3 4l14 83c3 19 19 37 37 42h0c0 0 2 1 10 5 8 3 10 4 11 4 15 8 40 7 55-4l69-49 6 0 50 50 0 0c0 0 0 4-1 5l-49 69c-11 15-13 39-5 55l10 23c5 17 24 32 42 35l83 14c2 0 4 3 4 4l0 71 0 0c0 0-2 3-4 3l-83 14c-19 3-37 19-42 37l0 0c0 0-1 2-5 10-3 8-4 10-4 11-9 16-7 39 4 55l49 69c1 1 1 5 0 6l-50 50-5-1-69-49c-15-10-39-13-55-5l-23 10c-17 5-32 23-35 42l-14 83c0 2-3 4-4 4l-71 0c0 0-3-2-3-4l-14-83c-3-19-19-37-37-42 0 0 0 0-10-4-8-4-10-5-11-5-14-8-40-7-55 4l-69 49-5 0-51-50 0 0c0 0 0-4 1-5l49-69c11-15 13-39 5-56l-10-22c-5-16-23-32-42-35l-83-14c-2 0-4-3-4-4l0-71 0 0c0 0 2-3 4-3l83-14c19-3 37-19 42-37 1 0 2-3 5-10 2-7 4-9 4-10 9-17 7-40-4-56l-49-69c-1-1-1-4 0-5l50-51 5 1 69 49c9 6 21 10 32 10z m134 48c-101 0-183 82-183 183s82 183 183 183 183-82 183-183-82-183-183-183z m0 335c-84 0-152-68-152-152 0-84 68-152 152-152 84 0 152 68 152 152 0 84-68 152-152 152z" horiz-adv-x="1000" />

<glyph glyph-name="collapse" unicode="&#xf116;" d="M813 319c17 0 31 14 31 31 0 17-14 31-31 31h-626c-17 0-31-14-31-31 0-9 4-16 9-22 6-6 14-9 22-9h626z" horiz-adv-x="1000" />

<glyph glyph-name="double-angle-down" unicode="&#xf117;" d="M154 605c-13 12-13 32 0 44s32 12 44 0l302-302 302 302c13 12 32 12 45 0 12-12 12-32 0-44l-325-325c-6-6-14-9-22-9s-16 3-22 9l-324 325z m648-185l-302-302-302 302c-12 12-32 12-44 0s-13-32 0-44l324-325c6-6 14-9 22-9s16 3 22 9l325 325c12 12 12 32 0 44s-32 12-45 0z" horiz-adv-x="1000" />

<glyph glyph-name="drafted" unicode="&#xf118;" d="M798 762h-423c-2 0-5-1-6-2l-174-174c-1-2-2-4-2-6v-633c0-5 4-9 9-9h596c5 0 9 4 9 9v806c0 5-4 9-9 9z m-27-788h-542v589h154c4 0 8 4 8 9v154h380v-752z m-477 505v-18c0-5 5-9 9-9h394c5 0 9 4 9 9v18c0 5-4 9-9 9h-394c-4 0-9-4-9-9z m403-94h-394c-5 0-9-4-9-9v-18c0-5 5-9 9-9h394c5 0 9 4 9 9v18c0 5-4 9-9 9z m0-102h-394c-5 0-9-4-9-9v-18c0-5 5-9 9-9h394c5 0 9 4 9 9v18c0 5-4 9-9 9z m0-205h-208c-5 0-9-4-9-9v-18c0-5 4-9 9-9h208c5 0 9 4 9 9v18c0 5-4 9-9 9z" horiz-adv-x="1000" />

<glyph glyph-name="edit" unicode="&#xf119;" d="M200 216c-3-3-6-6-8-12l-77-193c-5-14-2-28 11-40 8-5 15-8 23-8 5 0 9 0 14 2l193 77c5 3 8 5 11 8l392 392-167 166-392-392z m-42-208l63 158 95-95-158-63z m194 85l-108 109 348 348 108-108-348-349z m516 552l-73 73c-27 26-68 26-94 0l-93-93 167-167 93 93c13 13 19 29 19 47 0 17-6 34-19 47z m-30-65l-63-63-108 108 63 63c11 10 26 10 36 0l72-72c5-5 8-11 8-18 0-7-3-13-8-18z" horiz-adv-x="1000" />

<glyph glyph-name="ellipses-horizontal" unicode="&#xf11a;" d="M167 433c46 0 83-37 83-83 0-46-37-83-83-83s-84 37-84 83c0 46 38 83 84 83z m333 0c46 0 83-37 83-83 0-46-37-83-83-83-46 0-83 37-83 83 0 46 37 83 83 83z m333 0c46 0 84-37 84-83 0-46-38-83-84-83-46 0-83 37-83 83 0 46 37 83 83 83z" horiz-adv-x="1000" />

<glyph glyph-name="envelope" unicode="&#xf11b;" d="M837 600h-674c-34 0-62-28-62-62v-395c0-35 28-63 62-63h674c34 0 62 28 62 63v395c0 34-28 62-62 62z m0-42c3 0 6 0 8-2l-323-226c-12-8-32-8-44 0l-323 226c2 2 5 2 8 2h674z m0-436h-674c-11 0-21 9-21 21v371l313-218c12-9 29-14 45-14 16 0 33 5 46 14l312 218v-371c0-12-10-21-21-21z" horiz-adv-x="1000" />

<glyph glyph-name="exchange" unicode="&#xf11c;" d="M696 218c0-12-9-21-21-21h-392l0-9c0-34 0-63 0-64 0-1-2-4-2-5-8-14-27-19-42-11l-112 83c-6 3-11 10-13 18-3 8-1 17 3 24 2 4 4 6 6 8l112 85c2 2 5 3 7 3 8 4 18 3 26-1 7-4 12-11 14-19 1-2 1-4 1-6 0-1-1-5 0-6 0 0 0-21 0-49l0-9h392c12 0 21-10 21-21z m190 273c-2 8-7 15-13 18l-112 83c-15 8-34 3-42-11 0-1-1-4-1-5-1-1-1-30-1-64l0-9h-392c-12 0-21-9-21-21 0-11 9-21 21-21h392l0-9c0-27 0-49 0-49 1-1 0-5 0-6 0-2 0-4 1-5 2-9 7-16 15-20 7-4 17-5 25-1 3 0 5 1 7 3l112 85c2 2 4 4 6 8 5 7 6 16 3 24z" horiz-adv-x="1000" />

<glyph glyph-name="exclamation-sign" unicode="&#xf11d;" d="M907 79l-351 608c-11 20-32 32-56 32-23 0-44-12-56-32l-351-608c-12-21-12-45 0-66 11-20 32-32 56-32h702c24 0 45 12 57 33 11 20 11 44-1 65z m-56-52h-702c-7 0-13 4-16 10-4 6-4 13 0 18l351 608c3 6 9 10 16 10s13-4 16-10l351-608c4-5 4-12 0-18-3-6-9-10-16-10z m-322 104c0-16-13-29-29-29s-29 13-29 29c0 16 13 28 29 28s29-12 29-28z m-3 323c9-10 9-14 8-22l-11-213c-1-25-45-25-46 0l-11 213c-1 8 2 16 8 22 12 12 43 9 52 0z" horiz-adv-x="1000" />

<glyph glyph-name="exclamation" unicode="&#xf11e;" d="M907 79l-351 608c-11 20-32 32-56 32-23 0-44-12-56-32l-351-608c-12-21-12-45 0-66 11-20 32-32 56-32h702c24 0 45 12 57 33 11 20 11 44-1 65z m-56-52h-702c-7 0-13 4-16 10-4 6-4 13 0 18l351 608c3 6 9 10 16 10s13-4 16-10l351-608c4-5 4-12 0-18-3-6-9-10-16-10z m-322 104c0-16-13-29-29-29s-29 13-29 29c0 16 13 28 29 28s29-12 29-28z m-3 323c9-10 9-14 8-22l-11-213c-1-25-45-25-46 0l-11 213c-1 8 2 16 8 22 12 12 43 9 52 0z" horiz-adv-x="1000" />

<glyph glyph-name="expand" unicode="&#xf11f;" d="M531 319h282c17 0 31 14 31 31 0 17-14 31-31 31h-282v282c0 17-14 31-31 31-17 0-31-14-31-31v-282h-282c-17 0-31-14-31-31 0-9 4-16 9-22s14-9 22-9h282v-282c0-8 3-16 9-22s13-9 22-9c17 0 31 14 31 31v282z" horiz-adv-x="1000" />

<glyph glyph-name="external-link" unicode="&#xf120;" d="M666-10h-433c-66 0-119 53-119 119v391c0 65 53 119 119 119h329c14 0 26-12 26-26s-12-26-26-26h-329c-37 0-67-30-67-67v-391c0-37 30-67 67-67h433c37 0 67 30 67 67v287c0 14 12 26 26 26s26-12 26-26v-287c0-66-53-119-119-119z m235 704l-20-150c-1-2-2-5-3-7-4-9-12-16-21-18-8-3-18-1-25 4-2 0-3 1-5 3 0 0-4 4-5 5 0 0-18 18-41 41l-303-303c-5-5-11-7-18-7s-13 2-18 7c-11 11-11 27 0 37l302 303c-28 27-52 52-53 53 0 0-1 4-2 4-4 17 6 35 23 40l148 23c7 2 16 0 24-4 8-5 13-12 16-21 1-4 1-7 1-10z" horiz-adv-x="1000" />

<glyph glyph-name="eye-open" unicode="&#xf121;" d="M500 71c-152 0-298 85-420 246l-8 10c-5 7-5 18 0 25l9 11c121 160 267 245 419 245 153 0 298-85 420-245l8-11c6-7 6-18 0-25l-8-11c-122-160-267-245-420-245z m-385 269c114-149 247-227 385-227 138 0 271 78 385 227-114 148-247 227-385 227s-271-79-385-227z m385-208c-119 0-216 97-216 216 0 119 97 216 216 216 119 0 216-97 216-216 0-119-97-216-216-216z m0 390c-96 0-174-78-174-174 0-96 78-174 174-174 96 0 174 78 174 174 0 96-78 174-174 174z m0-101c-40 0-73-33-73-73 0-40 33-73 73-73 40 0 73 33 73 73 0 40-33 73-73 73z" horiz-adv-x="1000" />

<glyph glyph-name="file-type-csv" unicode="&#xf122;" d="M798 762h-423c-2 0-5-1-6-2l-174-174c-1-2-2-4-2-6v-633c0-5 4-9 9-9h596c5 0 9 4 9 9v806c0 5-4 9-9 9z m-27-788h-542v589h154c4 0 8 4 8 9v154h380v-752z m-209 550c-15 16-23 37-23 63 0 18 4 34 11 47 7 14 16 24 30 32 13 7 28 11 46 11 11 0 22-2 31-5 9-3 17-7 24-13 6-5 11-10 15-16 3-6 5-11 5-17 0-5-2-9-6-13-4-3-9-5-14-5-4 0-7 1-9 3-3 1-5 4-8 9-5 8-11 14-17 18-5 4-13 6-21 6-13 0-24-5-31-15-8-10-12-24-12-41 0-8 1-16 3-23 2-7 5-12 9-17 3-5 8-9 13-11 6-3 12-4 18-4 9 0 16 2 23 6 6 4 11 10 16 19 3 4 5 8 9 11 3 3 6 4 11 4 5 0 9-2 13-6s5-8 5-13c0-5-1-11-5-17-3-6-8-12-14-18-7-5-15-10-25-13-11-3-22-5-34-5-27 0-48 8-63 23z m83-218c6 4 8 8 8 13 0 8-3 13-8 17-6 3-16 7-29 10-15 3-27 7-36 11-10 4-17 10-23 16s-8 15-8 25c0 9 2 17 8 25s13 14 23 18c10 5 22 7 36 7 11 0 21-1 30-3 9-3 17-6 23-10 6-4 10-8 14-13 3-5 4-9 4-14 0-5-2-9-5-12-3-3-8-5-14-5-5 0-8 2-11 4-3 3-7 6-11 11-3 5-7 8-12 11-4 2-10 3-18 3-8 0-14-1-19-5-6-3-8-7-8-12 0-5 2-8 5-11 4-3 10-6 16-7s15-5 27-7c13-4 24-8 33-12 8-5 15-10 19-16 4-6 6-14 6-21 0-12-2-23-8-31-6-9-15-15-26-19-11-5-25-7-41-7-16 0-29 2-40 7-12 5-20 11-25 18-5 7-8 14-8 21 0 5 2 9 5 13 3 3 8 5 13 5 4 0 8-1 10-4 3-2 5-5 7-9 5-8 10-13 16-17 7-4 15-6 26-6 8 0 15 2 21 6z m50-90c4-3 6-8 6-13 0-1-1-4-1-6-1-3-2-5-3-7-1-3-2-5-3-8l-41-103c-2-3-3-7-5-12-2-4-4-8-6-11-2-4-5-6-8-8-4-2-8-2-13-2-6 0-11 1-14 4-4 2-7 6-8 9-2 3-5 10-9 20l-41 102c-1 2-2 5-3 8-1 2-2 5-3 7-1 3-1 5-1 7 0 3 1 6 3 9 2 3 4 5 7 7 3 2 7 3 11 3 7 0 12-2 14-6 3-5 6-11 9-21l35-98 38 102c3 8 6 14 9 18 3 3 7 5 13 5 5 0 10-2 14-6z" horiz-adv-x="1000" />

<glyph glyph-name="file-type-pdf" unicode="&#xf123;" d="M798 762h-423c-2 0-5-1-6-2l-174-174c-1-2-2-4-2-6v-633c0-5 4-9 9-9h596c5 0 9 4 9 9v806c0 5-4 9-9 9z m-27-788h-542v589h154c4 0 8 4 8 9v154h380v-752z m-136 599h-34v-51c0-7-1-13-5-16s-8-6-13-6c-5 0-10 2-13 6-3 3-5 9-5 16v138c0 8 2 14 6 17s9 5 17 5h47c13 0 24-1 31-3 8-2 14-5 19-10 6-5 10-11 12-18s5-14 5-23c0-18-6-32-17-41-12-9-28-14-50-14z m-9 82h-25v-55h25c8 0 15 1 21 3 6 2 10 5 13 9s5 9 5 16c0 8-3 14-7 19-5 5-16 8-32 8z m-47-200h47c13 0 23-1 32-4s17-6 24-13c18-16 28-40 28-72 0-11-1-21-3-30-2-9-5-17-9-24-4-7-9-13-15-19-4-4-10-8-15-10s-12-5-19-6-14-1-22-1h-47c-7 0-12 1-15 3-3 2-6 4-7 8-1 4-1 8-1 14v131c0 8 2 14 5 17s9 6 17 6z m14-29v-122h27c7 0 11 1 15 1s7 1 10 2 7 4 10 6c12 10 18 28 18 53 0 18-3 31-8 40s-12 14-20 16-17 4-28 4h-24z m77-230h-71v-46h60c5 0 9-1 12-4 3-2 4-6 4-10s-1-7-4-10-7-3-12-3h-60v-59c0-8-2-13-5-17-4-3-8-5-13-5-6 0-10 2-13 5-4 4-5 9-5 17v138c0 5 0 9 2 12 2 4 4 6 7 8 4 1 8 2 13 2h85c6 0 10-1 13-4 3-3 5-6 5-10 0-4-2-8-5-10-3-3-7-4-13-4z" horiz-adv-x="1000" />

<glyph glyph-name="file-type-text" unicode="&#xf124;" d="M798 762h-423c-2 0-5-1-6-2l-174-174c-1-2-2-4-2-6v-633c0-5 4-9 9-9h596c5 0 9 4 9 9v806c0 5-4 9-9 9z m-27-788h-542v589h154c4 0 8 4 8 9v154h380v-752z m-88 674h-40v-130c0-8-2-13-5-17-3-3-8-5-13-5-5 0-10 2-13 5-3 4-5 9-5 17v130h-40c-6 0-10 1-13 4-3 3-5 6-5 11 0 4 2 8 5 11 3 2 7 4 13 4h116c6 0 11-2 14-4 3-3 4-7 4-11s-1-8-4-11c-4-3-8-4-14-4z m-125-333l40 58-34 52c-3 5-5 10-7 13-1 4-2 7-2 11 0 3 1 6 4 9 3 3 7 4 11 4 6 0 9-1 12-4 3-3 7-9 12-17l27-43 28 43c3 4 5 7 6 9 2 3 4 5 5 7s4 3 5 4c2 1 5 1 7 1 5 0 8-1 11-4 3-3 5-6 5-10 0-5-3-13-10-22l-35-53 38-58c3-5 6-10 7-13 2-3 3-6 3-9 0-3-1-6-2-8s-4-5-6-6-6-2-9-2c-3 0-6 1-8 2-3 2-5 3-6 5s-4 7-8 13l-32 49-33-51c-3-4-5-7-6-8-1-2-2-3-4-5s-3-3-5-4-5-1-8-1c-4 0-8 1-11 4-3 3-4 7-4 12 0 6 3 13 9 22z m125-122h-40v-130c0-7-2-13-5-16-3-4-8-6-13-6-5 0-10 2-13 6-3 3-5 9-5 16v130h-40c-6 0-10 2-13 5-3 2-5 6-5 10 0 5 2 9 5 11 3 3 7 4 13 4h116c6 0 11-1 14-4 3-3 4-6 4-11s-1-8-4-10c-4-3-8-5-14-5z" horiz-adv-x="1000" />

<glyph glyph-name="file-type" unicode="&#xf125;" d="M798 762h-423c-2 0-5-1-6-2l-174-174c-1-2-2-4-2-6v-633c0-5 4-9 9-9h596c5 0 9 4 9 9v806c0 5-4 9-9 9z m-27-788h-542v589h154c4 0 8 4 8 9v154h380v-752z" horiz-adv-x="1000" />

<glyph glyph-name="gear" unicode="&#xf126;" d="M464-67c-1 0-1 0-2 0-20 2-38 19-42 39l-14 84c-1 3-5 9-9 10l-24 10c-5 2-13 1-15-1l-69-49c-16-11-42-10-57 3l-52 52c-15 17-16 41-4 58l49 69c2 3 2 10 1 12 0 1-2 4-6 14-5 12-5 14-5 14-1 3-6 7-10 8l-83 14c-21 4-37 22-38 42l-1 74c2 23 19 41 39 44l84 14c3 1 8 6 10 9l10 25c2 4 1 11-1 14l-49 69c-12 17-11 41 3 57l52 52c17 15 42 16 58 4l69-49c2-1 11-2 13-1 0 0 2 1 13 6 12 5 14 5 14 5 3 1 7 7 8 10l14 83c4 21 22 37 43 39h73c22-2 41-19 44-39l14-83c1-4 6-9 9-11l25-10c5-2 12 0 14 1l69 49c16 11 42 10 57-3l52-52c15-17 16-41 4-58l-49-69c-2-3-2-10-1-12 0-1 1-3 6-14 5-11 5-13 5-13 1-4 7-8 10-9l83-14c21-3 37-22 39-42v-74c-2-22-18-41-39-44l-83-14c-4-1-9-5-10-9l-11-24c-2-5-1-12 1-15l49-69c12-17 11-41-3-57l-52-52c-9-8-20-12-31-12l0 0c-10 0-20 3-27 8l-69 49c-2 1-11 2-13 1l0 0c0 0-1-1-13-6-11-5-13-5-13-5-4-1-8-6-9-10l-14-83c-3-21-22-37-42-39l-74 0 0 0z m-98 186c9 0 17-2 24-5l22-9c17-6 32-24 35-43l14-83c0-1 3-4 4-4l71 0c0 0 3 2 3 4l14 83c3 19 19 37 37 42h0c0 0 2 1 10 5 8 3 10 4 11 4 15 8 40 7 55-4l69-49 6 0 50 50 0 0c0 0 0 4-1 5l-49 69c-11 15-13 39-5 55l10 23c5 17 24 32 42 35l83 14c2 0 4 3 4 4l0 71 0 0c0 0-2 3-4 3l-83 14c-19 3-37 19-42 37l0 0c0 0-1 2-5 10-3 8-4 10-4 11-9 16-7 39 4 55l49 69c1 1 1 5 0 6l-50 50-5-1-69-49c-15-10-39-13-55-5l-23 10c-17 5-32 23-35 42l-14 83c0 2-3 4-4 4l-71 0c0 0-3-2-3-4l-14-83c-3-19-19-37-37-42 0 0 0 0-10-4-8-4-10-5-11-5-14-8-40-7-55 4l-69 49-5 0-51-50 0 0c0 0 0-4 1-5l49-69c11-15 13-39 5-56l-10-22c-5-16-23-32-42-35l-83-14c-2 0-4-3-4-4l0-71 0 0c0 0 2-3 4-3l83-14c19-3 37-19 42-37 1 0 2-3 5-10 2-7 4-9 4-10 9-17 7-40-4-56l-49-69c-1-1-1-4 0-5l50-51 5 1 69 49c9 6 21 10 32 10z m134 48c-101 0-183 82-183 183s82 183 183 183 183-82 183-183-82-183-183-183z m0 335c-84 0-152-68-152-152 0-84 68-152 152-152 84 0 152 68 152 152 0 84-68 152-152 152z" horiz-adv-x="1000" />

<glyph glyph-name="google-plus-sign" unicode="&#xf127;" d="M589 749h-208c-28 0-58-3-89-9-32-8-63-24-93-49-43-41-65-88-65-140 0-42 15-80 46-112 29-34 71-52 127-52 11 0 22 0 34 2-2-6-4-12-7-18-2-6-4-14-4-23 0-16 4-29 11-40 6-11 12-22 20-32-25-1-55-4-92-9-37-7-73-20-107-39-30-18-51-39-62-63-12-24-18-45-18-65 0-39 18-74 55-102 36-31 90-47 164-47 87 1 154 22 200 63 45 39 67 84 67 135 0 36-9 65-24 87-17 22-36 42-58 60l-36 29c-5 5-10 11-15 18-7 7-10 16-10 27 0 11 3 21 10 29 5 9 11 16 17 22 11 10 21 19 31 28 8 10 17 20 24 31 16 22 24 52 25 90 0 20-2 38-7 53-5 16-12 29-19 40-7 12-15 22-23 30-8 8-16 14-22 18h64l64 38z m-114-572c17-19 26-43 26-69 0-33-13-60-38-81-26-21-64-32-113-32-55 0-98 13-129 37-34 23-50 54-50 91 0 18 4 34 11 48 7 12 15 23 25 31 10 9 19 15 29 19 10 4 17 7 23 10 22 6 44 11 66 14 22 2 35 3 41 2 9 0 17 0 23-1 39-27 68-50 86-69z m-34 309c-2-14-8-28-17-41-18-19-41-29-69-30-21 0-41 7-58 20-17 13-30 30-41 49-22 41-33 80-33 118-1 29 7 55 22 78 19 22 43 34 71 34 21 0 40-6 57-18 16-13 29-29 39-50 21-42 31-83 31-125 0-9 0-21-2-35z m474-64v1h-110v112h-64v-112h-110v-63h0v-2h110v-110h65v110h112v64h-3z" horiz-adv-x="1000" />

<glyph glyph-name="heart" unicode="&#xf128;" d="M500-29l0 0c-8 0-16 2-23 7-124 85-217 166-293 256-14 16-26 32-39 48-3 5-7 9-11 14-41 53-60 118-57 198 1 33 7 60 19 84 54 107 137 158 249 150 60-4 112-29 155-75 13 12 26 24 41 35 40 27 86 41 134 41 123 0 228-88 245-206 12-86-6-163-55-228-55-75-122-145-205-213-29-24-60-47-90-69-14-11-29-22-43-33-4-2-13-9-27-9z m-177 698c-78 0-133-37-173-117-8-17-13-36-14-60-2-66 12-117 45-159 4-5 8-10 12-15 12-16 24-31 36-46 70-82 157-158 271-237 12 9 23 17 35 26 29 22 59 44 87 67 80 65 143 131 196 202 39 54 53 114 43 185-13 88-92 155-186 155-36 0-70-11-100-31-13-9-25-20-38-32-6-6-13-13-20-19l-23-20-25 31c-35 42-78 66-128 69-7 1-13 1-18 1z" horiz-adv-x="1000" />

<glyph glyph-name="laptop" unicode="&#xf129;" d="M856 208v424c0 12-9 22-22 22h-664c-12 0-22-10-22-22v-424l-85-95c0-14 10-33 23-33h831c14 0 24 19 24 33l-85 95z m-308-117h-92c-8 0-14 14-14 20 0 1 0 1 0 1h120c0 0 0 0 0-1 0-6-6-20-14-20z m273 145h-638v381h638l0-381 0 0z" horiz-adv-x="1000" />

<glyph glyph-name="leaf" unicode="&#xf12a;" d="M512 759l-12 12-12-12c-9-8-216-209-199-441 9-118 74-222 194-309v-80h34v80c120 87 185 191 194 309 17 232-190 433-199 441z m-26-709c-44 34-79 71-105 109 25-19 60-38 105-49v-60z m0 78c-68 17-111 56-134 81-16 36-26 72-29 111 0 9 0 19 0 28 22-41 70-101 163-128v-92z m0 110c-107 33-149 115-161 146 4 38 14 74 27 108 13-32 47-82 134-131v-123z m0 143c-98 57-119 115-124 136 16 36 35 69 54 98 8-28 26-68 70-107v-127z m0 151c-40 40-53 80-57 103 21 30 42 55 57 72v-175z m28 175c16-18 37-43 58-74-4-24-17-63-58-103v177z m0-201c44 39 63 78 72 107 19-29 38-63 53-99-6-24-30-79-125-134v126z m0-146c87 48 121 97 135 130 13-35 23-72 27-110-14-34-57-111-162-142v122z m0-310v60c44 10 78 28 103 46-26-37-60-73-103-106z m163 270c-3-40-14-79-31-116-24-25-67-61-132-77v93c92 25 140 83 163 125 0-9 0-17 0-25z" horiz-adv-x="1000" />

<glyph glyph-name="lock" unicode="&#xf12b;" d="M754 452c-2 0-4 1-6 1 0 0 0 0-1 0h0-48v257c0 38-31 68-68 68h0-262 0c-37 0-68-30-68-68v-257h-48 0c-1 0-1 0-1 0-2 0-4-1-5-1-7-3-12-9-12-17v-495c0-10 8-18 18-18h0 494c5 0 9 1 12 4 0 0 1 1 1 1 1 1 2 2 3 4 0 0 1 1 1 2 1 2 2 4 2 7v374 121c0 8-6 14-12 17z m-416 258c0 18 14 32 31 32h262c17 0 32-14 32-32v-247l-325 0v247z m391-432v-320h0 0-458 0v320 139h3 452 3v-139z m-143-218c2-6 1-13-3-18-4-6-10-9-16-9l-133-1c0 0 0 0 0 0-7 0-13 3-17 9-4 5-5 12-3 18l48 162c-17 12-28 31-28 54 0 35 29 64 64 64s64-29 64-64c0-21-10-39-25-51l49-164z" horiz-adv-x="1000" />

<glyph glyph-name="minus-sign-alt" unicode="&#xf12c;" d="M813 319c17 0 31 14 31 31 0 17-14 31-31 31h-626c-17 0-31-14-31-31 0-9 4-16 9-22 6-6 14-9 22-9h626z" horiz-adv-x="1000" />

<glyph glyph-name="minus" unicode="&#xf12d;" d="M813 319c17 0 31 14 31 31 0 17-14 31-31 31h-626c-17 0-31-14-31-31 0-9 4-16 9-22 6-6 14-9 22-9h626z" horiz-adv-x="1000" />

<glyph glyph-name="ok-circle" unicode="&#xf12e;" d="M708 523c11-8 14-23 6-34 0 0-248-354-250-356-5-5-11-8-17-8-6 0-12 2-17 7l-144 136c-10 9-10 25-1 34 9 10 25 11 35 1l123-116 231 330c8 11 23 14 34 6z m-199-611c-238 0-431 193-431 431 0 238 193 432 431 432s432-194 432-432c0-238-194-431-432-431z m0 821c-215 0-389-175-389-390 0-215 174-390 389-390 215 0 390 175 390 390 0 215-175 390-390 390z" horiz-adv-x="1000" />

<glyph glyph-name="ok" unicode="&#xf12f;" d="M788 617c-9 6-22 4-29-5l-336-480-185 176c-8 8-21 8-29-1-8-8-8-21 0-29l203-193c4-4 10-6 15-6 5 0 11 3 15 7 2 2 352 502 352 502 6 9 4 22-6 29z" horiz-adv-x="1000" />

<glyph glyph-name="pencil" unicode="&#xf130;" d="M200 216c-3-3-6-6-8-12l-77-193c-5-14-2-28 11-40 8-5 15-8 23-8 5 0 9 0 14 2l193 77c5 3 8 5 11 8l392 392-167 166-392-392z m-42-208l63 158 95-95-158-63z m194 85l-108 109 348 348 108-108-348-349z m516 552l-73 73c-27 26-68 26-94 0l-93-93 167-167 93 93c13 13 19 29 19 47 0 17-6 34-19 47z m-30-65l-63-63-108 108 63 63c11 10 26 10 36 0l72-72c5-5 8-11 8-18 0-7-3-13-8-18z" horiz-adv-x="1000" />

<glyph glyph-name="pending" unicode="&#xf131;" d="M267 684c0 1 0 2 0 3 1-3 1-7 1-10 0 2-1 4-1 7z m1-659c0-3-1-6-1-9 0-1 0-2 0-3 1 4 1 8 1 12z m465-11c0 1 0 1 0 2 0 2 0 3 0 5 0-2 0-5 0-7z m-1 7c1-2 1-5 1-7-1-28-24-51-53-51h-360c-28 0-51 22-53 50 1 4 1 8 1 11 14 142 61 264 129 325-68 62-116 185-129 328 0 3 0 7-1 10 2 28 25 50 53 50h360c29 0 52-23 53-52 0 0 0-1 0-1 0-1 0-2 0-3-13-145-61-269-129-332 68-62 116-185 128-328z m-112 422c0 0 0 0 0 0 29 49 50 115 62 188 3 20 6 41 8 62h-61-258-60c2-21 4-42 8-62 11-73 33-139 61-188h0v0h240z m63-383c0 3-1 6-1 9-20 122-67 222-126 262-2 1-3 2-4 3-15-3-32-6-52-6-20 0-37 3-52 6-1-1-2-2-3-3-60-40-107-140-126-262-1-2-1-5-2-8 3 3 7 5 10 7 46 30 115 62 175 62 61 0 126-33 170-62 4-3 8-5 11-8z" horiz-adv-x="1000" />

<glyph glyph-name="phone" unicode="&#xf132;" d="M707-24c-130 0-312 111-444 271-109 132-160 269-139 375 3 9 57 140 178 129 2 1 5 1 9 1 11 0 40-5 54-48l55-171c2-7 0-15-5-21l-73-72c18-41 86-176 233-234l63 63c5 5 13 8 20 6l190-45c17-5 49-26 48-72 1-2 13-114-129-174-20-6-40-8-60-8z m-419 734c-84 0-124-99-125-100-17-90 31-214 132-336 142-172 344-284 458-250 110 46 102 128 102 132 0 29-18 34-18 34l-178 42-64-65c-6-6-14-7-22-5-201 71-272 267-275 276-3 7-1 16 5 21l73 74-50 158c-2 6-7 19-15 19-3-1-7-1-10-1-5 1-9 1-13 1z" horiz-adv-x="1000" />

<glyph glyph-name="plus-sign" unicode="&#xf133;" d="M531 319h282c17 0 31 14 31 31 0 17-14 31-31 31h-282v282c0 17-14 31-31 31-17 0-31-14-31-31v-282h-282c-17 0-31-14-31-31 0-9 4-16 9-22 6-6 14-9 22-9h282v-282c0-8 3-16 9-22 6-5 13-9 22-9 17 0 31 14 31 31v282z" horiz-adv-x="1000" />

<glyph glyph-name="plus" unicode="&#xf134;" d="M531 319h282c17 0 31 14 31 31 0 17-14 31-31 31h-282v282c0 17-14 31-31 31-17 0-31-14-31-31v-282h-282c-17 0-31-14-31-31 0-9 4-16 9-22 6-6 14-9 22-9h282v-282c0-8 3-16 9-22 6-5 13-9 22-9 17 0 31 14 31 31v282z" horiz-adv-x="1000" />

<glyph glyph-name="processed" unicode="&#xf135;" d="M708 523c11-8 14-23 6-34 0 0-248-354-250-356-5-5-11-8-17-8-6 0-12 2-17 7l-144 136c-10 9-10 25-1 34 9 10 25 11 35 1l123-116 231 330c8 11 23 14 34 6z m-199-611c-238 0-431 193-431 431 0 238 193 432 431 432s432-194 432-432c0-238-194-431-432-431z m0 821c-215 0-389-175-389-390 0-215 174-390 389-390 215 0 390 175 390 390 0 215-175 390-390 390z" horiz-adv-x="1000" />

<glyph glyph-name="puzzle-piece" unicode="&#xf136;" d="M757 72h-192c-8 0-15 4-18 11-4 6-4 14 0 21 14 22 23 51 23 72 0 39-31 70-70 70-39 0-70-31-70-70 0-21 9-50 23-72 4-7 4-15 0-21-3-7-10-11-18-11h-192c-12 0-21 9-21 21v158c-21-8-43-13-62-13-62 0-112 50-112 112 0 62 50 112 112 112 19 0 41-5 62-13v158c0 12 9 21 21 21h192c8 0 15-4 18-10s4-15 0-22c-14-22-23-51-23-72 0-38 31-70 70-70 39 0 70 32 70 70 0 21-9 50-23 72-4 7-4 15 0 22 3 6 10 10 18 10h192c12 0 21-9 21-21v-158c21 8 43 13 62 13 62 0 112-50 112-112 0-62-50-112-112-112-19 0-41 5-62 14v-159c0-12-9-21-21-21z m-158 42h137v171c0 8 4 15 11 18 7 4 15 4 21 0 23-14 51-23 72-23 39 0 71 31 71 70 0 39-32 70-71 70-21 0-49-9-72-22-6-4-14-5-21-1-7 4-11 11-11 18v172h-137c8-22 13-44 13-63 0-61-50-112-112-112s-112 51-112 112c0 19 5 41 13 63h-137v-172c0-7-4-14-11-18-6-4-15-3-21 1-23 13-51 22-72 22-39 0-70-31-70-70 0-39 31-70 70-70 21 0 49 9 72 23 6 4 14 4 21 0 7-3 11-10 11-18v-171h137c-8 21-13 43-13 62 0 62 50 112 112 112s112-50 112-112c0-19-5-41-13-62z" horiz-adv-x="1000" />

<glyph glyph-name="recurring" unicode="&#xf137;" d="M638 648c3-3 7-8 8-13 1-6-1-12-4-17-2-2-3-4-5-5l-82-51c-2-1-3-2-5-2-6-2-13-1-18 3-4 3-8 8-8 14-1 1-1 2-1 4 0 0 1 3 1 4l3 33c-150 10-283-97-306-246-2-10-11-17-21-17-1 0-2 0-3 0-11 2-19 12-17 24 26 170 179 291 350 281l3 32c-1 4 0 8 2 12 0 1 1 3 1 3 7 9 20 12 30 5l72-64z m178-524c-2 4-6 6-10 8l-26 18c95 143 66 336-68 445-9 7-22 5-30-4-7-9-5-22 4-29 117-94 142-263 60-388l-28 19c0 1-3 2-3 3-1 0-2 1-3 1-6 3-12 2-17 0-6-3-10-8-11-14-1-2-1-3-1-5l3-97c1-2 1-4 2-7 3-5 7-9 12-11 6-2 12-2 16 0l92 30c10 5 15 18 10 28 0 0-2 3-2 3z m-200-55c-139-58-299 1-368 134l30 15c0 0 3 2 4 2 1 0 2 1 3 2 4 4 7 9 7 15 1 6-2 12-6 16-1 1-3 3-4 3l-87 44c-2 1-4 2-7 2-6 0-11-1-16-5-4-4-7-10-7-14l-18-95c-1-11 8-22 20-22 0 0 3 0 3 0 4 0 8 2 12 5l29 14c58-113 174-180 295-180 42 0 85 8 126 25 11 4 16 17 12 27-5 11-17 16-28 12z" horiz-adv-x="1000" />

<glyph glyph-name="refresh" unicode="&#xf138;" d="M879 383l-45-85c-2-5-6-9-11-11-6-3-11-3-17-1-3 1-4 3-6 4l-70 68c-1 1-2 2-3 4-3 5-3 12-1 18 2 5 6 9 12 11 1 1 2 2 3 2 1 0 4 0 5 0 0 0 12 2 29 5-24 154-169 260-323 237-99-15-184-82-221-175-4-11-16-16-27-12-11 5-16 17-12 27 43 107 140 184 254 201 177 27 343-95 370-272 25 4 46 7 48 7 0 0 3-1 3-1 11-4 16-16 12-27z m-83-131c-10 4-23-1-27-12-37-92-122-160-221-175-154-23-299 83-323 237 17 3 30 5 30 5 0 0 3 1 4 1 1 0 2 0 3 1 6 2 10 6 12 11 2 6 2 13-1 18-1 2-2 3-3 5l-70 67c-2 1-3 3-6 4-5 2-11 2-17-1-5-2-9-6-11-10l-45-86c-4-10 2-23 12-27 0 0 3-1 3-1 2 0 24 3 48 7 28-177 194-299 371-272 113 17 210 94 253 201 4 10-1 23-12 27z" horiz-adv-x="1000" />

<glyph glyph-name="remove-circle" unicode="&#xf139;" d="M500 829c-264 0-479-215-479-479 0-264 215-479 479-479 264 0 479 215 479 479 0 264-215 479-479 479z m0-917c-241 0-437 197-437 438 0 241 196 438 437 438 241 0 438-197 438-438 0-241-197-438-438-438z m209 609l-171-171 171-171c11-11 11-28 0-38-5-5-12-8-19-8-7 0-14 3-19 8l-171 171-171-171c-5-5-12-8-19-8-7 0-14 3-19 8-11 10-11 27 0 38l171 171-171 171c-11 11-11 28 0 38 10 11 27 11 38 0l171-171 171 171c11 11 28 11 38 0s11-27 0-38z" horiz-adv-x="1000" />

<glyph glyph-name="remove-sign" unicode="&#xf13a;" d="M544 350l199 199c12 12 12 32 0 44s-32 12-44 0l-199-199-199 199c-12 12-32 12-44 0s-12-32 0-44l199-199-199-199c-12-12-12-32 0-44 6-6 14-9 22-9 8 0 16 3 22 9l199 199 199-199c6-6 14-9 22-9 8 0 16 3 22 9 12 12 12 32 0 44l-199 199z" horiz-adv-x="1000" />

<glyph glyph-name="remove" unicode="&#xf13b;" d="M544 350l199 199c12 12 12 32 0 44s-32 12-44 0l-199-199-199 199c-12 12-32 12-44 0s-12-32 0-44l199-199-199-199c-12-12-12-32 0-44 6-6 14-9 22-9 8 0 16 3 22 9l199 199 199-199c6-6 14-9 22-9 8 0 16 3 22 9 12 12 12 32 0 44l-199 199z" horiz-adv-x="1000" />

<glyph glyph-name="reorder" unicode="&#xf13c;" d="M828 582h-656c-14 0-26 11-26 26s12 26 26 26h656c15 0 26-12 26-26s-11-26-26-26z m26-229c0 14-11 26-26 26h-656c-14 0-26-12-26-26s12-26 26-26h656c15 0 26 11 26 26z m0-256c0 15-11 27-26 27h-656c-14 0-26-12-26-27s12-26 26-26h656c15 0 26 12 26 26z" horiz-adv-x="1000" />

<glyph glyph-name="search" unicode="&#xf13d;" d="M829 103l-235 234c54 91 43 211-35 289-45 45-105 69-168 69s-122-24-167-69c-92-92-92-243 0-335 45-45 104-69 167-69 44 0 85 12 122 34l235-234c22-23 58-23 81 0 22 22 22 58 0 81z m-568 225c-72 72-72 189 0 261 35 35 81 54 130 54 50 0 96-19 131-54 72-72 72-189 0-261-35-35-81-54-131-54s-95 19-130 54z" horiz-adv-x="1000" />

<glyph glyph-name="send" unicode="&#xf13e;" d="M837 600h-674c-34 0-62-28-62-62v-395c0-35 28-63 62-63h674c34 0 62 28 62 63v395c0 34-28 62-62 62z m0-42c3 0 6 0 8-2l-323-226c-12-8-32-8-44 0l-323 226c2 2 5 2 8 2h674z m0-436h-674c-11 0-21 9-21 21v371l313-218c12-9 29-14 45-14 16 0 33 5 46 14l312 218v-371c0-12-10-21-21-21z" horiz-adv-x="1000" />

<glyph glyph-name="services" unicode="&#xf13f;" d="M637 766h-273c-108 0-196-88-196-196v-440c0-108 88-196 196-196h273c108 0 195 88 195 196v440c0 108-87 196-195 196z m154-636c0-85-69-154-154-154h-273c-85 0-155 69-155 154v440c0 85 70 154 155 154h273c85 0 154-69 154-154v-440z m-103 464v-71c0-20-16-37-37-37h-307c-20 0-37 17-37 37v71c0 20 17 37 37 37h307c21 0 37-17 37-37z m-291-220c0-15-12-27-28-27s-27 12-27 27 12 27 27 27 28-12 28-27z m132 0c0-15-12-27-27-27s-28 12-28 27 13 27 28 27 27-12 27-27z m133 0c0-15-13-27-28-27-15 0-27 12-27 27s12 27 27 27c15 0 28-12 28-27z m-265-130c0-15-12-27-28-27s-27 12-27 27 12 28 27 28 28-13 28-28z m132 0c0-15-12-27-27-27s-28 12-28 27 13 28 28 28 27-13 27-28z m133 0c0-15-13-27-28-27-15 0-27 12-27 27s12 28 27 28c15 0 28-13 28-28z m-265-130c0-15-12-27-28-27s-27 12-27 27 12 28 27 28 28-12 28-28z m132 0c0-15-12-27-27-27s-28 12-28 27 13 28 28 28 27-12 27-28z m133 0c0-15-13-27-28-27-15 0-27 12-27 27s12 28 27 28c15 0 28-12 28-28z" horiz-adv-x="1000" />

<glyph glyph-name="setup" unicode="&#xf140;" d="M730-53c-47 0-90 18-123 51-46 46-62 111-44 172l-243 243c-60-18-127-1-171 44-39 38-57 94-49 148l1 6c0 17 16 32 35 32 9 0 20-6 22-8 0 0 44-43 58-57l54 3 3 53-57 57c-6 7-9 15-9 23 0 6 1 12 5 17l0 0c3 7 11 15 18 17 57 14 122-4 164-46 45-45 62-110 44-171l243-243c59 17 128-1 171-44 40-40 58-98 47-155l-6-16c-4-6-10-12-17-14-3-1-7-2-11-2-9 0-18 5-22 7l-59 59-50-3-3-3-3-51 56-56c5-6 10-15 10-24 0-13-9-26-22-32l0 0c-12-6-32-7-42-7z m-402 500l269-269-3-9c-19-53-6-110 34-150 27-27 63-42 102-42 8 0 25 2 30 4l0 0c3 1 5 3 5 5-1 1-2 4-4 6l-63 63 4 75 19 19 75 4 65-66c0 1 3 0 4-1 2 1 5 7 5 7 9 48-5 96-39 130-37 38-99 52-149 34l-9-3-269 269 3 9c19 52 6 110-34 149-34 34-86 49-133 39-1-1-2-2-2-2l-1-6 66-66-5-93-93-5-5 4c0 0-60 60-62 62 1-2-2 0-3 0-2 0-4-3-4-6l-2-7c-7-45 8-91 40-123 39-39 99-53 150-35l9 4z" horiz-adv-x="1000" />

<glyph glyph-name="signout" unicode="&#xf141;" d="M954 328c-3 8-8 16-14 19l-121 89c-15 8-36 3-44-12 0-1-2-5-2-5 0-1 0-35 0-75l-308 0c-14 0-26-11-26-26 0-7 3-13 8-18 4-5 11-8 18-8l308 0c0-32 0-58 0-58 0-1 0-6 0-7 0-2 0-4 1-6 2-8 8-16 15-20 8-5 19-6 28-2 2 0 5 2 7 3l120 92c2 2 4 4 6 8 5 8 6 17 4 26z m-258-125c-14 0-26-12-26-27v-88c0-37-30-67-67-67h-391c-37 0-67 30-67 66v517c0 37 30 67 67 67h391c37 0 67-30 67-67v-139c0-15 12-26 26-26 14 0 26 11 26 26v139c0 66-53 119-119 119h-391c-65 0-119-53-119-119v-517c0-65 54-119 119-119h391c66 0 119 54 119 119v89c0 15-12 27-26 27z" horiz-adv-x="1000" />

<glyph glyph-name="sort-down" unicode="&#xf142;" d="M500-30l-317 317h634l-317-317z" horiz-adv-x="1000" />

<glyph glyph-name="sort-up" unicode="&#xf143;" d="M500 750l317-317h-634l317 317z" horiz-adv-x="1000" />

<glyph glyph-name="star-empty" unicode="&#xf144;" d="M257-51c-6 0-11 2-16 5-8 6-12 16-10 26l44 257-187 183c-7 7-10 17-6 27 3 9 11 16 21 17l258 38 116 234c9 18 38 18 46 0l116-234 259-38c9-1 18-8 21-17 3-10 0-20-7-27l-187-183 44-257c2-10-2-20-10-26-8-5-19-6-28-2l-231 122-231-122c-4-2-8-3-12-3z m-95 471l159-155c6-6 9-14 8-23l-38-219 197 103c8 4 17 4 24 0l197-103-38 219c-1 9 2 17 8 23l159 155-220 32c-8 2-16 7-20 15l-98 199-98-199c-4-8-11-14-20-15l-220-32z" horiz-adv-x="1000" />

<glyph glyph-name="star" unicode="&#xf145;" d="M919 447c-3 9-12 16-21 17l-259 38-116 234c-8 18-37 18-46 0l-116-234-258-38c-10-1-18-8-21-17-4-10-1-20 6-27l187-183-44-257c-2-10 2-20 10-26 5-3 10-5 16-5 4 0 8 1 12 3l231 122 231-122c9-4 20-3 28 2 8 6 12 16 10 26l-44 257 187 183c7 7 10 17 7 27z" horiz-adv-x="1000" />

<glyph glyph-name="ticket" unicode="&#xf146;" d="M625 400l-56 8c-3 0-8 3-12 7-2 2-2 3-3 4l-25 50c-5 11-16 17-26 16-5-1-13-4-19-16l-25-50c-2-5-10-10-15-11l-55-8c-11-2-19-8-22-17-3-9-1-18 8-26l40-39c3-4 6-13 5-18l-9-55c-2-14 3-21 6-24 6-6 17-10 31-3l49 26c5 2 15 2 19 0l50-26c10-5 20-5 27 0s11 15 9 27l-9 55c-1 5 2 14 6 18l40 39c7 7 9 14 9 19 0 12-9 22-23 24z m-48-60c-12-10-18-30-15-46l7-42-38 20c-14 7-35 7-49 0l-37-20 7 42c3 16-4 35-15 46l-31 30 42 6c16 3 33 15 40 29l19 38 18-38c3-5 6-9 10-13 8-8 19-14 30-16l42-6-30-30z m345 156c-3 3-7 5-12 4l-1 0c-2 0-4 0-6 0-27 0-53 11-72 30s-30 44-30 71c1 1 1 1 1 2 0 4-2 8-5 11 0 0 0 0 0 0-3 3-7 5-11 5h-572c-4 0-8-2-11-5-3-3-5-7-4-11 0-1 0-1 0-2 0-27-11-52-30-71-19-19-45-30-72-30-2 0-4 0-6 0l-1 0c-5 1-9-1-12-4-3-3-5-7-5-11v-262c0-4 2-8 5-11 3-3 8-5 12-5 3 1 5 1 7 1 27 0 53-11 72-30 19-19 30-45 30-72 0-2-1-5-1-7 0-5 1-9 4-13 0 0 1 0 1 0 3-3 7-5 11-5h572c5 0 9 2 12 5 3 4 4 8 4 13 0 2 0 5 0 7 0 56 45 102 101 102 2 0 4 0 6-1h1c5 0 9 2 12 5 3 3 5 7 5 11v262c0 4-2 8-5 11z m-27-257c-67-3-122-58-125-126h-540c-1 33-15 64-39 88-23 23-53 37-86 38v229c33 2 63 16 86 39 22 22 35 50 39 80h541c3-30 16-58 38-80 23-23 54-37 86-39v-229z m-610 236v-250c0-9-7-16-16-16-4 0-8 2-11 5-3 3-5 7-5 11v250c0 9 7 16 16 16 9 0 16-7 16-16z m467 0v-250c0-9-7-16-16-16-4 0-8 2-11 5-3 3-5 7-5 11v250c0 9 7 16 16 16s16-7 16-16z" horiz-adv-x="1000" />

<glyph glyph-name="time" unicode="&#xf147;" d="M509 775c-238 0-431-194-431-432s193-431 431-431c238 0 432 193 432 431 0 238-194 432-432 432z m0-822c-215 0-389 175-389 390s174 390 389 390c215 0 390-175 390-390 0-215-175-390-390-390z m255 355c0-12-10-21-21-21h-262c0 0 0 272 0 272 0 12 9 21 21 21 11 0 21-9 21-21v-230l220 0c11 0 21-10 21-21z" horiz-adv-x="1000" />

<glyph glyph-name="transactions" unicode="&#xf148;" d="M829 676h-658c-57 0-104-47-104-104v-444c0-57 47-104 104-104h658c57 0 104 47 104 104v444c0 58-47 104-104 104z m-658-41h658c34 0 62-28 62-63v-46h-782v46c0 35 28 63 62 63z m658-569h-658c-34 0-62 28-62 62v285h782v-285c0-34-28-62-62-62z" horiz-adv-x="1000" />

<glyph glyph-name="transfer" unicode="&#xf149;" d="M940 455c-3-4-6-7-9-9l-148-103c-3-2-6-3-9-4-11-4-24-3-34 2-10 5-17 13-19 23-1 2-1 5-1 7 0 1 0 7 0 7l0 13-354-3c0 0-27 0-31 3-5 4-8 10-8 16 0 4 1 7 3 10 0 0 0 0 0 0 52 82 186 141 345 141 15 0 29-1 43-2l0 9c-2 7-1 15 2 22 0 1 2 5 2 5 11 17 36 24 55 14l150-100c7-4 14-12 17-22 3-10 2-20-4-29z m-306-143l-354-3 0 13c0 1 1 7 1 7 0 3-1 5-1 7-3 10-10 18-20 23-10 5-23 6-34 2-3 0-6-2-9-4l-148-103c-3-2-6-4-9-9-6-9-7-19-4-29 3-10 10-18 17-22l150-100c19-10 44-3 55 14 0 0 2 5 2 5 3 7 4 15 2 22l0 9c14-1 28-2 43-2 159 0 293 59 345 141 0 0 0 0 0 0 2 3 3 6 3 10 0 6-3 12-8 16-4 3-31 3-31 3z" horiz-adv-x="1000" />

<glyph glyph-name="trash" unicode="&#xf14a;" d="M500 48c9 0 17 7 17 16v460c0 9-8 16-17 16s-16-7-16-16v-460c0-9 7-16 16-16z m132 0c9 0 16 7 16 16v460c0 9-7 16-16 16-9 0-17-7-17-16v-460c0-9 8-16 17-16z m-264 0c10 0 17 7 17 16v460c0 9-7 16-17 16-9 0-16-7-16-16v-460c0-9 7-16 16-16z m461 616h-197v50c0 27-22 49-50 49h-164c-27 0-50-22-50-49v-50h-197c-9 0-16-7-16-16 0-9 7-17 16-17h49v-625c0-36 30-66 66-66h428c36 0 66 30 66 66v625h49c9 0 17 8 17 17 0 9-8 16-17 16z m-428 50c0 9 8 16 17 16h164c9 0 17-7 17-16v-50h-198v50z m346-708c0-18-15-33-33-33h-428c-18 0-33 15-33 33v625h494v-625z" horiz-adv-x="1000" />

<glyph glyph-name="twitter" unicode="&#xf14b;" d="M957 602c-33-14-68-24-104-28 37 22 66 58 79 100-35-21-74-36-115-44-33 35-80 57-132 57-100 0-181-81-181-181 0-14 1-28 4-41-150 7-284 79-373 189-15-27-24-58-24-91 0-63 32-118 80-151-29 1-57 9-82 23 0-1 0-2 0-2 0-88 63-162 145-178-15-4-31-6-47-6-12 0-23 1-34 3 23-72 90-124 169-126-62-49-140-78-225-78-15 0-29 1-43 3 80-52 175-81 277-81 334 0 516 276 516 515 0 8-1 16-1 23 35 26 66 58 91 94z" horiz-adv-x="1000" />

<glyph glyph-name="user" unicode="&#xf14c;" d="M816-60h-632c-14 0-26 12-26 26v242c0 68 68 146 155 146h375c91 0 154-77 154-146v-242c0-14-12-26-26-26z m-606 52h580v216c0 38-40 94-102 94h-375c-60 0-103-56-103-94v-216z m290 406c-100 0-181 81-181 181s81 181 181 181c100 0 181-81 181-181s-81-181-181-181z m0 310c-71 0-129-58-129-129 0-71 58-129 129-129s129 58 129 129c0 71-58 129-129 129z" horiz-adv-x="1000" />

<glyph glyph-name="viewcheck" unicode="&#xf14d;" d="M950 448l-164 175c-4 4-9 6-15 6h-600c-57 0-104-47-104-104v-286c0-58 47-104 104-104h681c57 0 104 46 104 104v194c0 6-2 11-6 15z m-36-209c0-35-28-63-62-63h-681c-34 0-63 28-63 63v286c0 34 29 62 63 62h574v-96c0-35 28-63 62-63h104l3-3v-186z m-190 196c0-11-10-21-21-21h-383c-12 0-21 10-21 21s9 21 21 21h383c11 0 21-9 21-21z m0-106c0-12-10-21-21-21h-383c-12 0-21 9-21 21 0 11 9 21 21 21h383c11 0 21-10 21-21z" horiz-adv-x="1000" />

<glyph glyph-name="warning-sign" unicode="&#xf14e;" d="M907 79l-351 608c-11 20-32 32-56 32-23 0-44-12-56-32l-351-608c-12-21-12-45 0-66 11-20 32-32 56-32h702c24 0 45 12 57 33 11 20 11 44-1 65z m-56-52h-702c-7 0-13 4-16 10-4 6-4 13 0 18l351 608c3 6 9 10 16 10s13-4 16-10l351-608c4-5 4-12 0-18-3-6-9-10-16-10z m-322 104c0-16-13-29-29-29s-29 13-29 29c0 16 13 28 29 28s29-12 29-28z m-3 323c9-10 9-14 8-22l-11-213c-1-25-45-25-46 0l-11 213c-1 8 2 16 8 22 12 12 43 9 52 0z" horiz-adv-x="1000" />

<glyph glyph-name="wrench" unicode="&#xf14f;" d="M730-53c-47 0-90 18-123 51-46 46-62 111-44 172l-243 243c-60-18-127-1-171 44-39 38-57 94-49 148l1 6c0 17 16 32 35 32 9 0 20-6 22-8 0 0 44-43 58-57l54 3 3 53-57 57c-6 7-9 15-9 23 0 6 1 12 5 17l0 0c3 7 11 15 18 17 57 14 122-4 164-46 45-45 62-110 44-171l243-243c59 17 128-1 171-44 40-40 58-98 47-155l-6-16c-4-6-10-12-17-14-3-1-7-2-11-2-9 0-18 5-22 7l-59 59-50-3-3-3-3-51 56-56c5-6 10-15 10-24 0-13-9-26-22-32l0 0c-12-6-32-7-42-7z m-402 500l269-269-3-9c-19-53-6-110 34-150 27-27 63-42 102-42 8 0 25 2 30 4l0 0c3 1 5 3 5 5-1 1-2 4-4 6l-63 63 4 75 19 19 75 4 65-66c0 1 3 0 4-1 2 1 5 7 5 7 9 48-5 96-39 130-37 38-99 52-149 34l-9-3-269 269 3 9c19 52 6 110-34 149-34 34-86 49-133 39-1-1-2-2-2-2l-1-6 66-66-5-93-93-5-5 4c0 0-60 60-62 62 1-2-2 0-3 0-2 0-4-3-4-6l-2-7c-7-45 8-91 40-123 39-39 99-53 150-35l9 4z" horiz-adv-x="1000" />

<glyph glyph-name="youtube" unicode="&#xf150;" d="M936 528c0 0-9 61-36 88-34 35-71 36-89 38-124 9-311 9-311 9h0c0 0-187 0-311-9-17-2-55-3-89-38-27-27-35-88-35-88s-9-72-9-144v-67c0-72 9-144 9-144s8-62 35-89c34-35 78-34 98-38 71-6 302-8 302-8s187 0 311 9c18 2 55 2 89 37 27 27 36 89 36 89s8 72 8 144v67c0 72-8 144-8 144z m-528-293l0 249 240-125-240-124z" horiz-adv-x="1000" />

<glyph glyph-name="commercial" unicode="&#xf151;" d="M366 653h96v-97h-96v97z m0-252h96v96h-96v-96z m0-155h96v96h-96v-96z m172 310h96v97h-96v-97z m0-310h96v96h-96v-96z m0 155h96v96h-96v-96z m278-433c0-12-9-21-20-21h-64-467-61c-11 0-20 9-20 21s9 20 20 20h61v664c0 56 45 101 101 101h264c56 0 102-45 102-101v-664h64c11 0 20-9 20-20z m-126 20v664c0 33-27 60-60 60h-264c-33 0-60-27-60-60v-664h133v170h122v-170h129z" horiz-adv-x="1000" />

<glyph glyph-name="home" unicode="&#xf152;" d="M934 372c-9-8-22-7-30 1l-110 119c-4 4-6 9-6 14l0 142h-46v-70c0-7-4-14-10-18-6-4-13-4-20-1l-9 4c-2 0-3 1-5 3l-174 142-385-336c-4-4-9-5-14-5-6 0-11 2-15 7-8 8-7 22 2 29l398 348c8 7 19 7 27 1l163-134v51c0 12 9 21 21 21h88c6 0 11-2 15-6s6-9 6-15l0-155 105-112c8-9 7-22-1-30z m-124 67c-12 0-21-9-21-20v-392h-135v200c0 12-10 21-21 21h-221c-11 0-21-9-21-21v-200h-135v392c0 11-9 20-21 20s-21-9-21-20v-413c0-11 10-21 21-21h177c12 0 21 10 21 21v200h179v-200c0-11 9-21 21-21h177c11 0 21 10 21 21v413c0 11-10 20-21 20z" horiz-adv-x="1000" />

<glyph glyph-name="messages" unicode="&#xf153;" d="M837 600h-674c-34 0-62-28-62-62v-395c0-35 28-63 62-63h674c34 0 62 28 62 63v395c0 34-28 62-62 62z m0-42c3 0 6 0 8-2l-323-226c-12-8-32-8-44 0l-323 226c2 2 5 2 8 2h674z m0-436h-674c-11 0-21 9-21 21v371l313-218c12-9 29-14 45-14 16 0 33 5 46 14l312 218v-371c0-12-10-21-21-21z" horiz-adv-x="1000" />

<glyph glyph-name="question-sign" unicode="&#xf154;" d="M509 775c-238 0-431-194-431-432 0-238 193-431 431-431s432 193 432 431c0 238-194 432-432 432z m0-822c-215 0-389 175-389 390 0 215 174 390 389 390 215 0 390-175 390-390 0-215-175-390-390-390z m22 234c6-7 10-15 10-25 0-11-4-20-10-26-15-13-36-12-51 0-7 6-10 15-10 26 0 10 3 18 10 25 7 7 15 10 26 10 10 0 18-3 25-10z m102 318c11-17 16-35 16-55 0-15-3-29-9-40-6-12-14-22-23-31-9-9-26-24-50-46-7-7-13-12-18-17-4-6-8-10-10-15-2-4-4-9-5-13-1-4-3-11-5-22-3-16-11-23-27-23-8 0-14 3-19 8-5 5-8 12-8 23 0 15 2 29 7 40 5 11 11 21 19 29 8 9 20 20 34 32 13 12 22 20 28 26 6 6 11 13 16 21 4 8 7 17 7 27 0 19-7 35-21 47-13 13-31 19-52 19-24 0-43-6-55-19-11-12-21-30-29-53-7-24-20-27-29-27-9 0-16 3-22 9-6 6-9 13-9 19 0 17 6 35 17 53 11 18 28 33 50 45 22 12 48 18 77 18 27 0 52-5 72-15 21-10 37-24 48-40z" horiz-adv-x="1000" />

<glyph glyph-name="question" unicode="&#xf155;" d="M509 775c-238 0-431-194-431-432 0-238 193-431 431-431 238 0 432 193 432 431 0 238-194 432-432 432z m0-822c-215 0-389 175-389 390s174 390 389 390c215 0 390-175 390-390 0-215-175-390-390-390z m22 234c6-7 10-15 10-25 0-11-4-20-11-26-14-13-35-12-50 0-7 6-10 15-10 26 0 10 3 18 10 25 7 7 15 10 26 10 10 0 18-3 25-10z m102 318c11-17 16-35 16-55 0-15-3-29-9-40-6-12-14-22-23-31-9-9-26-24-50-46-7-7-13-12-18-17-4-6-7-10-10-15-2-4-4-9-5-13-1-4-3-11-5-22-3-16-11-23-27-23-7 0-14 3-19 8-5 5-8 12-8 23 0 15 2 29 7 40 5 11 11 21 19 29 8 9 20 20 34 32 13 12 22 20 28 26 6 6 11 13 16 21 4 8 7 17 7 27 0 19-7 35-21 47-13 13-31 19-52 19-24 0-43-6-55-19-11-12-21-30-28-53-8-24-21-27-30-27-9 0-16 3-22 9-6 6-9 13-9 19 0 17 6 35 17 53 11 18 28 33 50 45 22 12 48 18 77 18 27 0 52-5 72-15 21-10 37-24 48-40z" horiz-adv-x="1000" />

<glyph glyph-name="help" unicode="&#xf156;" d="M509 775c-238 0-431-194-431-432 0-238 193-431 431-431 238 0 432 193 432 431 0 238-194 432-432 432z m0-822c-215 0-389 175-389 390s174 390 389 390c215 0 390-175 390-390 0-215-175-390-390-390z m22 234c6-7 10-15 10-25 0-11-4-20-11-26-14-13-35-12-50 0-7 6-10 15-10 26 0 10 3 18 10 25 7 7 15 10 26 10 10 0 18-3 25-10z m102 318c11-17 16-35 16-55 0-15-3-29-9-40-6-12-14-22-23-31-9-9-26-24-50-46-7-7-13-12-18-17-4-6-7-10-10-15-2-4-4-9-5-13-1-4-3-11-5-22-3-16-11-23-27-23-7 0-14 3-19 8-5 5-8 12-8 23 0 15 2 29 7 40 5 11 11 21 19 29 8 9 20 20 34 32 13 12 22 20 28 26 6 6 11 13 16 21 4 8 7 17 7 27 0 19-7 35-21 47-13 13-31 19-52 19-24 0-43-6-55-19-11-12-21-30-28-53-8-24-21-27-30-27-9 0-16 3-22 9-6 6-9 13-9 19 0 17 6 35 17 53 11 18 28 33 50 45 22 12 48 18 77 18 27 0 52-5 72-15 21-10 37-24 48-40z" horiz-adv-x="1000" />

<glyph glyph-name="info" unicode="&#xf157;" d="M533 422c6-6 9-14 9-25v-232c0-12-3-21-9-27s-14-9-23-9c-9 0-17 3-22 9s-9 15-9 27v231c0 11 3 20 9 26 5 6 13 9 22 9 9 0 17-3 23-9z m408-79c0-238-194-431-432-431-238 0-431 193-431 431 0 238 193 432 431 432 238 0 432-194 432-432z m-42 0c0 215-175 390-390 390-215 0-389-175-389-390s174-390 389-390c215 0 390 175 390 390z m-389 214c-11 0-20-3-28-10s-12-17-12-28c0-12 4-21 12-28 8-6 17-10 28-10 10 0 19 4 27 10 7 7 11 17 11 28 0 13-4 22-11 29-8 6-17 9-27 9z" horiz-adv-x="1000" />

<glyph glyph-name="news" unicode="&#xf158;" d="M875 649c-7 50-50 89-102 89h-615c-57 0-104-47-104-104v-534c0-52 41-87 76-99 2-2 5-3 8-3 0 0 1 0 1 0 6-1 12-2 19-2h586l0 0 100-1c0 0 0 0 0 0 57 0 104 47 104 105v450c0 47-31 86-73 99z m-779-15c0 34 28 62 62 62h615c27 0 50-17 58-42h-560c-57 0-104-46-104-104v-450c0-42-12-58-24-60-12 4-47 18-47 60v534z m810-534c0-35-28-63-62-63l-101 1 0 0h0l-545 1c6 15 10 34 10 61v450c0 35 28 63 63 63h573c34 0 62-28 62-63v-450z m-378 392c0-11-9-21-21-21h-208c-12 0-21 10-21 21 0 12 9 21 21 21h208c12 0 21-9 21-21z m0-104c0-12-9-21-21-21h-208c-12 0-21 9-21 21 0 11 9 21 21 21h208c12 0 21-10 21-21z m0-112c0-12-9-21-21-21h-208c-12 0-21 9-21 21 0 11 9 21 21 21h208c12 0 21-10 21-21z m302 0c0-12-9-21-20-21h-209c-11 0-21 9-21 21 0 11 10 21 21 21h209c11 0 20-10 20-21z m-302-115c0-11-9-20-21-20h-208c-12 0-21 9-21 20 0 12 9 21 21 21h208c12 0 21-9 21-21z m302 0c0-11-9-20-20-20h-209c-11 0-21 9-21 20 0 12 10 21 21 21h209c11 0 20-9 20-21z m0 310v-62c0-23-18-42-41-42h-167c-23 0-42 19-42 42v62c0 23 19 42 42 42h167c23 0 41-19 41-42z" horiz-adv-x="1000" />

<glyph glyph-name="reports" unicode="&#xf159;" d="M320 227v-163c0-23-18-42-41-42s-42 19-42 42v163c0 23 19 42 42 42s41-19 41-42z m106 222c-23 0-41-19-41-42v-349c0-23 18-41 41-41s42 18 42 41v349c0 23-19 42-42 42z m148-78c-23 0-42-19-42-42v-271c0-23 19-41 42-41s42 18 42 41v271c0 23-19 42-42 42z m147 229c-23 0-41-19-41-42v-500c0-23 18-41 41-41s42 18 42 41v500c0 23-18 42-42 42z m196 63v-625c0-58-47-105-104-105h-625c-58 0-105 47-105 105v625c0 57 47 104 105 104h625c57 0 104-47 104-104z m-42 0c0 34-28 62-62 62h-625c-35 0-63-28-63-62v-625c0-35 28-63 63-63h625c34 0 62 28 62 63v625z" horiz-adv-x="1000" />

<glyph glyph-name="facebook-sign" unicode="&#xf15a;" d="M863 758h-725c-25 0-45-20-45-45v-726c0-25 20-45 45-45h390v316h-106v123h106v91c0 105 64 163 158 163 45 0 84-4 95-5v-110h-65c-51 0-61-25-61-60v-79h122l-16-123h-106v-316h208c24 0 45 20 45 45v726c0 25-21 45-45 45z" horiz-adv-x="1000" />

<glyph glyph-name="linkedin-sign" unicode="&#xf15b;" d="M848 758h-693c-33 0-60-26-60-59v-695c0-32 27-59 60-59h693c33 0 60 27 60 59v695c0 33-27 59-60 59z m-512-692h-120v387h120v-387z m-60 440c-38 0-70 32-70 70s32 70 70 70c39 0 70-31 70-70 0-38-31-70-70-70z m512-440h-121v188c0 45 0 103-62 103-63 0-73-49-73-100v-191h-120v387h116v-53h1c16 31 56 63 114 63 122 0 145-80 145-185l0-212 0 0z" horiz-adv-x="1000" />

<glyph glyph-name="globe" unicode="&#xf15c;" d="M942 379c-19 222-205 396-431 396-239 0-434-194-434-433 0-239 195-434 434-434 234 0 426 188 433 421l-2 50z m-431-433c-121 0-229 55-302 140 16 22 42 33 50 78 10 58 37 71-28 82-58 9-69 72-115 86 0 3-1 6-1 10 0 218 177 395 396 395 2 0 5 0 8 0-38-37-31-59-5-47 28 13 15-18-12-41-27-23-58-15-58-57 0-31 30-42 69-29 62 21 55-46 120-42 65 4 36-58-17-51-52 7-4 48-149 35s-94-223-30-210c64 13 123-52 108-106-14-53 13-179 57-172 58 9 42 63 74 119 32 55 33 100 72 157 39 58-35 35-10 57 25 22 68 8 64 59-5 51 53 20 68-14 8-20 22-62 35-86-17-203-187-363-394-363z" horiz-adv-x="1000" />

<glyph glyph-name="card" unicode="&#xf15d;" d="M910 598c-6 22-18 42-33 58-26 27-62 44-102 44h-550c-40 0-76-17-102-44-15-16-27-36-33-58-4-12-7-25-7-39v-417c0-78 64-142 142-142h550c78 0 142 64 142 142v417c0 14-3 27-7 39z m-35-456c0-47-37-100-84-100h-582c-46 0-84 53-84 100v417c0 14 4 28 11 39h728c7-11 11-25 11-39v-417z" horiz-adv-x="1000" />

<glyph glyph-name="copy" unicode="&#xf15e;" d="M843 607h-192v151c0 5-5 10-11 10h-343c-3 0-5-1-7-3l-141-141c-2-2-3-4-3-7v-513c0-6 5-10 11-10h192v-152c0-5 5-10 11-10h483c6 0 11 5 11 10v654c0 6-5 11-11 11z m-458-168h121c6 0 11 5 11 11v121h301v-603h-433v471z m-33 24c-2-2-3-5-3-7v-327h-167v472h121c6 0 11 4 11 10v122h301v-126h-115c-3 0-5-2-7-4l-141-140z" horiz-adv-x="1000" />

<glyph glyph-name="settings" unicode="&#xf15f;" d="M464-67c-1 0-1 0-2 0-20 2-38 19-42 39l-14 84c-1 3-5 9-9 10l-24 10c-5 2-13 1-15-1l-69-49c-16-11-42-10-57 3l-52 52c-15 17-16 41-4 58l49 69c2 3 2 10 1 12 0 1-2 4-6 14-5 12-5 14-5 14-1 3-6 7-10 8l-83 14c-21 4-37 22-38 42l-1 74c2 23 19 41 39 44l84 14c3 1 8 6 10 9l10 25c2 4 1 11-1 14l-49 69c-12 17-11 41 3 57l52 52c17 15 42 16 58 4l69-49c2-1 11-2 13-1 0 0 2 1 13 6 12 5 14 5 14 5 3 1 7 7 8 10l14 83c4 21 22 37 43 39h73c22-2 41-19 44-39l14-83c1-4 6-9 9-11l25-10c5-2 12 0 14 1l69 49c16 11 42 10 57-3l52-52c15-17 16-41 4-58l-49-69c-2-3-2-10-1-12 0-1 1-3 6-14 5-11 5-13 5-13 1-4 7-8 10-9l83-14c21-3 37-22 39-42v-74c-2-22-18-41-39-44l-83-14c-4-1-9-5-10-9l-11-24c-2-5-1-12 1-15l49-69c12-17 11-41-3-57l-52-52c-9-8-20-12-31-12l0 0c-10 0-20 3-27 8l-69 49c-2 1-11 2-13 1l0 0c0 0-1-1-13-6-11-5-13-5-13-5-4-1-8-6-9-10l-14-83c-3-21-22-37-42-39l-74 0 0 0z m-98 186c9 0 17-2 24-5l22-9c17-6 32-24 35-43l14-83c0-1 3-4 4-4l71 0c0 0 3 2 3 4l14 83c3 19 19 37 37 42h0c0 0 2 1 10 5 8 3 10 4 11 4 15 8 40 7 55-4l69-49 6 0 50 50 0 0c0 0 0 4-1 5l-49 69c-11 15-13 39-5 55l10 23c5 17 24 32 42 35l83 14c2 0 4 3 4 4l0 71 0 0c0 0-2 3-4 3l-83 14c-19 3-37 19-42 37l0 0c0 0-1 2-5 10-3 8-4 10-4 11-9 16-7 39 4 55l49 69c1 1 1 5 0 6l-50 50-5-1-69-49c-15-10-39-13-55-5l-23 10c-17 5-32 23-35 42l-14 83c0 2-3 4-4 4l-71 0c0 0-3-2-3-4l-14-83c-3-19-19-37-37-42 0 0 0 0-10-4-8-4-10-5-11-5-14-8-40-7-55 4l-69 49-5 0-51-50 0 0c0 0 0-4 1-5l49-69c11-15 13-39 5-56l-10-22c-5-16-23-32-42-35l-83-14c-2 0-4-3-4-4l0-71 0 0c0 0 2-3 4-3l83-14c19-3 37-19 42-37 1 0 2-3 5-10 2-7 4-9 4-10 9-17 7-40-4-56l-49-69c-1-1-1-4 0-5l50-51 5 1 69 49c9 6 21 10 32 10z m134 48c-101 0-183 82-183 183s82 183 183 183 183-82 183-183-82-183-183-183z m0 335c-84 0-152-68-152-152 0-84 68-152 152-152 84 0 152 68 152 152 0 84-68 152-152 152z" horiz-adv-x="1000" />

<glyph glyph-name="ban-circle-1" unicode="&#xf160;" d="M509 775c-238 0-431-194-431-432s193-431 431-431c238 0 432 193 432 431 0 238-194 432-432 432z m-389-432c0 215 174 390 389 390 101 0 192-38 261-101l-550-550c-62 70-100 161-100 261z m389-390c-99 0-190 38-259 100l549 550c62-69 100-160 100-260 0-215-175-390-390-390z" horiz-adv-x="1000" />

<glyph glyph-name="branches-solid" unicode="&#xf161;" d="M500-67c-6 0-12 3-16 8-12 14-296 355-296 519 0 169 140 307 312 307s313-138 313-307c0-164-285-505-297-519-4-5-10-8-16-8z" horiz-adv-x="1000" />

<glyph glyph-name="reply" unicode="&#xf165;" d="M871 13c4 0 12 0 21 12 21 25 33 88 25 179-13 154-146 367-371 379l0 96c0 4 0 9 0 9-8 37-54 62-88 45l-8-4c0 0-4-4-321-237l-4-4c0 0-8-17-12-17 0-8-5-17-5-29 0-9 0-17 5-25l4-4c4-5 4-9 8-13l4-4c0 0 0 0 0 0v0l17-17 292-216c4-5 4-5 8-9l8-4c9-4 17-4 25-4 38 0 67 29 67 67v91c142-16 254-200 287-258 0-4 21-25 25-29l5-4 8 0z m-346 529c217 0 342-196 350-342 4-79 0-117-8-133 0 0 0 0 0 0l0 0c-50 87-175 279-342 279l-25 0v-129c0-13-12-25-25-25-4 0-4 0-8 0l-4 0c0 0 0 0 0 0l-5 4-304 225-4 4 4 13c0 4 0 4 0 8 0 4 0 4 0 8 0 0 4 4 4 9 88 66 305 229 313 233 4 0 8 4 8 4 13 0 21-8 25-21 0 0 0-4 0-4v-133l21 0z" horiz-adv-x="1000" />

<glyph glyph-name="new-message" unicode="&#xf166;" d="M899 366v255c0 34-28 62-62 62h-674c-34 0-62-28-62-62v-395c0-34 28-62 62-62h446c28-66 92-112 168-112 100 0 181 81 181 181 0 53-23 100-59 133z m-736 276h674c3 0 6-1 8-2l-323-227c-12-8-32-8-44 0l-323 227c2 1 5 2 8 2z m433-409c0-10 1-19 2-28h-435c-11 0-21 10-21 21v371l313-218c12-9 29-13 45-13 16 0 33 4 46 13l312 218v-202c-25 12-52 19-81 19-100 0-181-81-181-181z m273-24h-68v-68c0-14-11-24-24-24-13 0-24 10-24 24v68h-68c-14 0-24 11-24 24 0 13 10 24 24 24h68v68c0 14 11 24 24 24 13 0 24-10 24-24v-68h68c14 0 24-11 24-24 0-13-10-24-24-24z" horiz-adv-x="1000" />

<glyph glyph-name="multiple_user" unicode="&#xf167;" d="M929 420h-289c-7 0-12 5-12 12v110c0 31 31 67 71 67h171c42 0 71-35 71-67v-110c0-7-5-12-12-12z m-277 23h265v99c0 18-18 43-47 43h-171c-27 0-47-25-47-43v-99z m132 186c-45 0-83 37-83 83 0 46 38 83 83 83s83-37 83-83-37-83-83-83z m0 142c-32 0-59-26-59-59 0-33 27-59 59-59 33 0 60 26 60 59 0 33-27 59-60 59z m-67-866h-632c-14 0-26 12-26 26v242c0 68 68 146 155 146h375c91 0 154-77 154-146v-242c0-14-12-26-26-26z m-606 52h580v216c0 39-40 94-102 94h-375c-60 0-103-56-103-94v-216z m290 406c-100 0-181 81-181 181s81 181 181 181 181-81 181-181-81-181-181-181z m0 310c-71 0-129-58-129-129s58-129 129-129 129 58 129 129-58 129-129 129z" horiz-adv-x="1000" />

<glyph glyph-name="no_view" unicode="&#xf168;" d="M931 352c-1 237-194 429-431 429-237 0-430-192-431-429 0-1 0-2 0-4 1-237 194-429 431-429 237 0 430 192 431 429 0 1 0 3 0 4z m-390 67c-12 8-26 12-41 12-40 0-73-32-73-73 0-15 5-29 13-40l-72-72c-26 31-42 69-42 112 0 96 78 174 174 174 43 0 82-16 112-42l-71-71z m-69-128c8-3 18-5 28-5 40 0 73 32 73 72 0 10-2 20-6 29l74 73c21-29 33-63 33-102 0-96-78-174-174-174-38 0-73 13-102 34l74 73z m170 229c-38 33-88 54-142 54-119 0-216-97-216-216 0-54 21-103 55-141l-38-38c-66 39-128 96-186 171 114 149 247 227 385 227 55 0 109-13 162-37l-20-20z m-273-332c36-28 82-45 131-45 119 0 216 96 216 215 0 50-18 95-46 132l30 30c66-38 128-95 185-170-114-149-247-227-385-227-54 0-108 13-160 36l29 29z m515 229c-48 55-100 100-153 133l59 60c48-54 81-120 94-193z m-384 323c100 0 192-39 261-101l-69-68c-61 31-126 48-192 48-138 0-269-70-384-202 32 183 192 323 384 323z m-384-456c49-57 101-102 155-135l-60-60c-48 54-82 121-95 195z m384-324c-100 0-190 38-259 100l68 69c62-31 126-48 191-48 138 0 270 70 384 202-32-183-192-323-384-323z" horiz-adv-x="1000" />

<glyph glyph-name="branches-2" unicode="&#xf169;" d="M591 405c0-50-41-91-91-91s-91 41-91 91c0 50 41 91 91 91s91-41 91-91z m326-55c0-230-187-417-417-417-230 0-417 187-417 417 0 230 187 417 417 417 230 0 417-187 417-417z m-228 55c0 104-85 189-189 189s-189-85-189-189 189-340 189-340 189 236 189 340z" horiz-adv-x="1000" />

<glyph glyph-name="commercial-2" unicode="&#xf16a;" d="M316 483l78-188h-155l77 188z m290-188h155l-77 188-78-188z m311 55c0-230-187-417-417-417-230 0-417 187-417 417 0 230 187 417 417 417 230 0 417-187 417-417z m-130-65c0 1 0 3-1 4l0 0c0 0 0 0 0 0l-83 201c25 6 48 18 65 35 4 4 4 11 0 15-4 4-11 4-15 0-15-15-36-26-58-30l-2 4c-3 8-16 8-19 0l-3-7c0 0 0 0-1 0-32 0-62 12-84 34-3 2-6 5-10 8-15 14-31 27-66 30v20c0 5-4 10-10 10-6 0-10-5-10-10v-20c-35-3-51-16-66-30-4-3-7-6-11-9-21-21-51-33-83-33-1 0-1 0-1 0l-3 7c-2 4-5 7-10 7-4 0-8-3-9-7l-2-4c-22 4-43 15-58 30-4 4-11 4-15 0-4-4-4-11 0-15 17-17 40-29 65-35l-83-201 0 0v0c-1-1-1-3-1-4 0 0 0 0 0 0 0 0 0-1 0-1 0-1 0-2 1-3 0 0 0 0 0 0 0 0 0 0 0 0 2-5 32-76 102-76 71 0 101 71 103 76 0 0 0 0 0 0 0 0 0 0 0 0 0 1 1 2 1 3 0 0 0 1 0 1 0 0 0 0 0 0 0 1 0 3-1 4l0 0c0 0 0 0 0 0l-82 198c35 1 67 15 89 37 4 3 8 6 11 9 9 8 18 16 30 20 3-25 6-49 19-56l-15-295c-50-6-91-29-107-59h272c-16 30-57 53-107 59l-14 295c12 7 15 31 18 56 12-4 21-12 30-20 3-3 7-6 10-8 23-23 55-37 90-38l-82-198c0 0 0 0 0 0v0c0-1-1-3-1-4 0 0 0 0 0 0 0 0 1-1 1-1 0-1 0-2 0-3 0 0 0 0 0 0 0 0 0 0 0 0 2-5 32-76 103-76s101 71 102 76c0 0 0 0 0 0 0 0 0 0 0 0 1 1 1 2 1 3 0 0 0 1 0 1l0 0z" horiz-adv-x="1000" />

<glyph glyph-name="help-2" unicode="&#xf16b;" d="M500 767c-230 0-417-187-417-417 0-230 187-417 417-417 230 0 417 187 417 417 0 230-187 417-417 417z m35-674c0-8-4-13-13-13h-64c-8 0-13 5-13 13v63c0 8 5 13 13 13h64c9 0 13-5 13-13v-63z m100 297c0-8-2-12-7-17l-86-82c-5-5-7-10-7-17v-30c0-9-5-13-13-13h-64c-9 0-13 4-13 13v60c0 6 2 11 6 16l92 91v93c0 18-10 27-27 27h-32c-18 0-27-9-27-27v-53c0-6-4-10-11-10h-70c-8 0-11 4-11 10v72c0 63 34 97 97 97h76c63 0 97-34 97-97v-133z" horiz-adv-x="1000" />

<glyph glyph-name="home-2" unicode="&#xf16c;" d="M310 157h380c11 0 21 9 22 20 0 1 12 93 12 161 0 68-12 159-12 160-1 11-11 20-22 20h-380c-10 0-21-9-22-20 0-1-12-92-12-160 0-68 12-160 12-161 1-11 12-20 22-20z m204 318c0 5 4 9 9 9h150c4 0 8-3 8-8 7-36 10-75 11-115 0-2-1-5-2-6-2-2-4-3-7-3h-160c-5 0-9 4-9 9v114z m0-161c0 5 4 9 9 9h160c3 0 5-1 7-2 1-2 2-4 2-7-1-40-4-79-11-115 0-5-4-8-8-8h-150c-5 0-9 4-9 9v114z m-195 162c0 5 4 8 8 8h150c5 0 9-4 9-9v-114c0-5-4-9-9-9h-160c-3 0-5 1-7 3-1 1-2 4-2 6 1 40 5 79 11 115z m-9-155c2 1 4 2 7 2h160c5 0 9-4 9-9v-114c0-5-4-9-9-9h-150c-4 0-8 4-8 8-6 36-10 75-11 115 0 3 1 5 2 7z m190-400c230 0 417 186 417 417 0 230-187 416-417 416-230 0-417-186-417-416 0-231 187-417 417-417z m-248 582c4 28 29 51 58 51h380c29 0 54-23 58-51 0-4 12-95 12-165s-12-162-12-166c-4-28-29-50-58-50h-380c-29 0-54 22-58 50 0 4-11 95-11 166s11 161 11 165z" horiz-adv-x="1000" />

<glyph glyph-name="messages-2" unicode="&#xf16d;" d="M500 767c-230 0-417-187-417-417 0-230 187-417 417-417 230 0 417 187 417 417 0 230-187 417-417 417z m-231-265h462c0 0 1 0 1 0l-232-172-232 172c0 0 1 0 1 0z m-28-28c0 0 0 1 0 1l157-117-157-104v220z m490-276h-462c-10 0-19 6-24 14l185 122 59-43c3-2 7-4 11-4 4 0 8 2 11 4l59 43 185-122c-5-9-14-14-24-14z m28 56l-157 104 157 117c0 0 0-1 0-1v-220z" horiz-adv-x="1000" />

<glyph glyph-name="news-2" unicode="&#xf16e;" d="M606 221c0-6-5-10-10-10h-280c-6 0-11 4-11 10s5 11 11 11h280c5 0 10-5 10-11z m-10 52h-280c-6 0-11-4-11-10s5-11 11-11h280c5 0 10 5 10 11s-5 10-10 10z m88 84h-153c-6 0-11-5-11-11 0-6 5-10 11-10h153c6 0 11 4 11 10 0 6-5 11-11 11z m-368-63h173c6 0 11 5 11 10v84c0 6-5 10-11 10h-173c-6 0-11-4-11-10v-84c0-5 5-10 11-10z m368 21h-153c-6 0-11-5-11-11s5-10 11-10h153c6 0 11 5 11 10s-5 11-11 11z m0 83h-153c-6 0-11-4-11-10 0-6 5-11 11-11h153c6 0 11 5 11 11 0 6-5 10-11 10z m233-48c0-230-187-417-417-417-230 0-417 187-417 417 0 230 187 417 417 417 230 0 417-187 417-417z m-167-98h-102v-98l102 98z m7 282c0 28-23 52-52 52h-410c-29 0-52-24-52-52v-334c0-28 23-52 52-52h332v115c0 6 5 10 10 10h120v261z m-62-21v-63c0-5-5-10-11-10h-368c-6 0-11 5-11 10v63c0 6 5 10 11 10h368c6 0 11-4 11-10z m-21-11h-348v-41h348v41z" horiz-adv-x="1000" />

<glyph glyph-name="offers-2" unicode="&#xf16f;" d="M500 767c-230 0-417-187-417-417 0-230 187-417 417-417 230 0 417 187 417 417 0 230-187 417-417 417z m224-391c0-12-6-28-14-36l-248-248c-9-8-22-8-30 0l-178 178c-8 8-8 22 0 30l248 248c8 8 24 15 36 15h166c11 0 20-10 20-21v-166z m-64 122c16-16 16-43 0-59-17-17-43-17-60 0-16 16-16 43 0 59 17 16 43 16 60 0z" horiz-adv-x="1000" />

<glyph glyph-name="payments-2" unicode="&#xf170;" d="M394 286c0 6 5 11 11 11h79c6 0 10-5 10-11 0-5-4-10-10-10h-79c-6 0-11 5-11 10z m-164-10h119c5 0 10 5 10 10 0 6-5 11-10 11h-119c-6 0-11-5-11-11 0-5 5-10 11-10z m513 219h-66v-66h66v66z m174-145c0-230-187-417-417-417-230 0-417 187-417 417 0 230 187 417 417 417 230 0 417-187 417-417z m-291-24h-448v-119c0-18 14-32 31-32h385c18 0 32 14 32 32v119z m0 57h-448v-37h448v37z m0 46c0 17-14 31-32 31h-385c-17 0-31-14-31-31v-25h448v25z m154 133h-386c-17 0-31-14-31-31v-50h21v50c0 5 5 10 10 10h386c6 0 10-5 10-10v-222c0-6-4-11-10-11h-134v-21h134c17 0 31 14 31 32v222c0 17-14 31-31 31z m-134-195v-21h49c6 0 10 5 10 11 0 6-4 10-10 10h-49z m21 41h87c5 0 10 5 10 10v87c0 6-5 11-10 11h-87c-6 0-11-5-11-11v-87c0-5 5-10 11-10z" horiz-adv-x="1000" />

<glyph glyph-name="reports-2" unicode="&#xf171;" d="M500 767c-230 0-417-187-417-417 0-230 187-417 417-417 230 0 417 187 417 417 0 230-187 417-417 417z m-28-123c0-79 0-157 0-235-55 56-112 112-169 169 49 39 105 62 169 66z m-215-178c49-49 99-99 148-148-49-49-98-98-147-147-69 74-79 207-1 295z m422-366c-97-63-216-57-303 10 2 1 3 3 5 4 49 50 99 100 148 149 13 13 25 25 38 38 3 3 4 6 4 11 0 87 0 174 0 260 0 3 0 6 0 9 85-10 184-74 217-186 32-111-13-233-109-295z" horiz-adv-x="1000" />

<glyph glyph-name="services-2" unicode="&#xf172;" d="M622 217c0-19-15-35-35-35s-34 16-34 35c0 19 15 35 34 35s35-16 35-35z m-209 133c-19 0-35-16-35-35 0-19 16-35 35-35 19 0 35 16 35 35 0 19-16 35-35 35z m87-98c-19 0-35-16-35-35 0-19 16-35 35-35s35 16 35 35c0 19-16 35-35 35z m-87 0c-19 0-35-16-35-35 0-19 16-35 35-35 19 0 35 16 35 35 0 19-16 35-35 35z m209 261h-244c-5 0-8-3-8-8v-96c0-4 3-8 8-8h244c5 0 8 4 8 8v96c0 5-3 8-8 8z m295-163c0-230-187-417-417-417-230 0-417 187-417 417 0 230 187 417 417 417 230 0 417-187 417-417z m-227 207c0 4-3 8-6 8-118 20-250 20-367 0-4 0-7-4-7-8v-414c0-4 3-8 7-8 58-10 120-15 183-15s125 5 184 15c3 1 6 4 6 8v414z m-103-207c-19 0-34-16-34-35 0-19 15-35 34-35s35 16 35 35c0 19-15 35-35 35z m-87 0c-19 0-35-16-35-35 0-19 16-35 35-35s35 16 35 35c0 19-16 35-35 35z" horiz-adv-x="1000" />

<glyph glyph-name="settings-2" unicode="&#xf173;" d="M597 350c0-53-43-97-97-97s-97 44-97 97 44 97 97 97 97-43 97-97z m320 0c0-230-187-417-417-417-230 0-417 187-417 417 0 230 187 417 417 417 230 0 417-187 417-417z m-135 21c0 9-7 17-15 18l-56 10c-6 23-15 45-27 65l32 47c5 7 4 18-2 24l-29 29c-6 6-17 7-24 2l-47-32c-20 12-41 21-65 27l-10 55c-1 9-9 16-18 16h-42c-8 0-17-7-18-16l-10-55c-23-6-45-15-65-27l-47 32c-7 5-18 4-24-2l-29-29c-6-6-7-17-2-24l32-47c-12-20-21-41-27-65l-55-10c-9-1-16-9-16-18v-42c0-8 7-17 16-18l55-10c6-23 15-45 27-65l-32-46c-5-7-4-18 2-25l29-29c6-6 17-7 24-2l47 33c20-13 42-22 65-27l10-56c1-9 9-16 18-16h42c8 0 17 7 18 16l10 56c23 5 45 14 65 27l46-33c8-5 18-4 25 2l29 30c6 6 7 17 2 24l-33 46c13 20 22 42 27 65l56 10c9 1 16 10 16 18v42h0z" horiz-adv-x="1000" />

<glyph glyph-name="signout-2" unicode="&#xf174;" d="M500 767c-230 0-417-187-417-417 0-230 187-417 417-417 230 0 417 187 417 417 0 230-187 417-417 417z m192-571c0-54-43-97-97-97h-249c-53 0-97 43-97 97v309c0 53 44 96 97 96h249c53 0 97-43 97-96v-48c0-21-17-37-38-37-20 0-37 16-37 37v48c0 12-10 21-22 21h-249c-12 0-22-9-22-21v-309c0-12 10-22 22-22h249c12 0 22 10 22 22v36c0 20 17 37 37 37 21 0 38-17 38-37v-36z m158 125l-77-59c-3-2-6-3-9-4-2-1-6-2-10-2-5 0-10 1-15 4-7 4-13 12-15 20 0 1-1 4-1 6l11 4-10 0 0 27-145 0c-7 0-14 3-19 8-5 5-8 12-8 19 0 15 12 27 27 27l144 0c0 25 0 34 1 39l-1 1 3 6c8 14 28 19 43 11l77-57c6-3 11-10 13-18 3-8 1-17-3-24-2-4-5-7-6-8z" horiz-adv-x="1000" />

<glyph glyph-name="transactions-2" unicode="&#xf175;" d="M500 767c-230 0-417-187-417-417 0-230 187-417 417-417 230 0 417 187 417 417 0 230-187 417-417 417z m-152-594l-48-68-78 217 231 1-48-68c128-89 282-96 374-26-107-125-293-151-431-56z m208 204l48 68c-128 89-281 96-373 26 107 125 293 151 431 56l47 68 79-217-232-1z" horiz-adv-x="1000" />

<glyph glyph-name="branches-3" unicode="&#xf176;" d="M865 324v51h52v71l-420 279-414-275v-75h51v-51h50v-210h-50v-51h-51v-88h834v88h-52v51h-54v210h54z m-418-210h-47v-51h-66v51h-50v210h50v51h66v-51h47v-210z m263 0h-45v-51h-65v51h-53v210h53v51h65v-51h45v-210z m-521 331l308 206 308-206h-616z" horiz-adv-x="1000" />

<glyph glyph-name="commercial-3" unicode="&#xf177;" d="M916 223l-121 292c36 9 69 26 94 51 6 6 6 15 0 21-6 6-16 6-22 0-22-22-51-37-84-43l-2 6c-5 12-24 12-28 0l-5-10-1 0c-46 0-90 17-121 48-5 5-10 9-15 13-22 19-46 39-96 43v29c0 8-7 15-15 15-8 0-15-7-15-15v-29c-50-4-74-24-96-43-5-4-9-8-16-14-30-30-74-47-120-47l-1 0-4 10c-3 6-8 10-14 10-7 0-12-4-14-10l-3-6c-33 6-62 21-84 43-6 6-16 6-22 0-6-6-6-15 0-21 25-25 58-42 94-51l-120-292-1-11c2-4 46-111 149-111 104 0 148 107 150 111l-1 11-118 287c50 3 97 23 129 55 6 4 11 9 16 13 13 12 25 22 43 29 5-36 9-72 27-82l-21-427c-73-10-132-43-156-86h396c-24 43-83 76-156 86l-21 427c18 10 22 46 27 82 18-7 30-17 43-29 5-4 10-9 15-12 33-33 80-53 130-56l-118-287 0-11c1-4 45-111 149-111 103 0 147 107 149 111l0 11z m-564-5l0 0h-237l0 0 119 287 118-287z m533 0h-237l0 0 119 287 118-287 0 0z" horiz-adv-x="1000" />

<glyph glyph-name="help-3" unicode="&#xf178;" d="M552 61v-93c0-6-1-12-5-15-1-1-3-3-6-3 0-1 0-1 0-1-3-1-5-1-9-1h-94 0c-13 0-20 7-20 20v93c0 4 1 7 2 10 3 6 9 10 18 10h94c13 0 20-7 20-20z m4 691h-112c-95 0-145-50-145-145v-106c0-10 5-16 16-16h105c10 0 16 6 16 16v78c0 26 13 40 40 40h48c25 0 40-14 40-40v-138l-136-136c-7-7-10-14-10-24v-89c0-13 7-20 20-20h94c13 0 20 7 20 20v45c0 11 3 18 10 25l128 122c8 7 11 14 11 25h0v198c0 95-51 145-145 145z" horiz-adv-x="1000" />

<glyph glyph-name="home-3" unicode="&#xf179;" d="M477 313v-183c0-8-6-15-14-15h-240c-7 0-13 5-14 12-10 58-16 121-18 185 0 4 2 8 4 11 3 2 7 4 11 4h257c8 0 14-6 14-14z m317 14h-257c-8 0-14-6-14-14v-183c0-8 6-15 14-15h240c7 0 13 5 14 12 10 58 16 120 18 185 0 4-2 8-4 11-3 3-7 4-11 4z m-331 258h-240c-7 0-13-5-14-12-10-58-16-121-18-185 0-4 2-8 4-11 3-2 7-4 11-4h257c8 0 14 6 14 14v183c0 8-6 15-14 15z m454-235c0-113-19-259-19-265-6-46-47-82-93-82h-610c-46 0-87 36-92 82-1 6-20 152-20 265s19 259 20 265c5 46 46 82 92 82h610c46 0 87-36 93-82 0-6 19-152 19-265z m-57 0c0 109-19 256-19 258-2 17-19 32-36 32h-610c-17 0-34-15-36-32 0-2-18-149-18-258 0-109 18-256 18-258 2-17 19-32 36-32h610c17 0 34 15 36 32 0 2 19 149 19 258z m-83 235h-240c-8 0-14-7-14-15v-183c0-8 6-14 14-14h257c4 0 8 2 11 4 2 3 4 7 4 11-2 65-8 127-18 185-1 7-7 12-14 12z" horiz-adv-x="1000" />

<glyph glyph-name="messages-3" unicode="&#xf17a;" d="M874 595l-3 0h-742l-3 0 374-278 374 278z m43-44l-253-188 253-167v353l0 2z m-833 0l-1-2v-353l253 167-252 188z m434-296c-5-4-12-6-18-6s-13 2-18 6l-94 70-298-197c8-14 22-23 39-23h742c17 0 31 9 39 23l-298 197-94-70z" horiz-adv-x="1000" />

<glyph glyph-name="news-3" unicode="&#xf17b;" d="M739 164h166l-166-158v158z m-521 338h564v68h-564v-68z m699 118v-422h-194c-10 0-17-7-17-17v-185h-538c-47-1-85 37-85 84v540c0 47 38 85 85 85h664c47 0 85-38 85-85z m-732-371c0-10 7-17 17-17h280c10 0 17 7 17 17v135c0 9-7 17-17 17h-280c-10 0-17-8-17-17v-135z m487-135c0 9-8 17-17 17h-453c-10 0-17-8-17-17 0-10 7-17 17-17h453c9 0 17 7 17 17z m0 67c0 10-8 17-17 17h-453c-10 0-17-7-17-17 0-9 7-17 17-17h453c9 0 17 8 17 17z m143 68c0 9-7 17-16 17h-249c-10 0-17-8-17-17 0-10 8-17 17-17h249c9 0 16 7 16 17z m0 67c0 10-7 17-16 17h-249c-10 0-17-7-17-17 0-9 8-17 17-17h249c9 0 16 8 16 17z m0 68c0 9-7 17-16 17h-249c-10 0-17-8-17-17s8-17 17-17h249c9 0 16 7 16 17z m0 202c0 10-7 17-16 17h-597c-10 0-17-7-17-17v-101c0-9 7-17 17-17h597c9 0 16 8 16 17v101z" horiz-adv-x="1000" />

<glyph glyph-name="offers-3" unicode="&#xf17c;" d="M452 374l-1-1c-12-12-14-24 1-53l50 50c-19 16-38 16-50 4z m-68-166c20-16 39-17 52-4l1 1c12 12 14 26-2 54l-51-51z m505 559h-306c-15 0-37-9-48-20l-77-77-366-367c-11-11-11-29 0-40l321-322c11-11 29-11 40 0l367 367 77 77c11 11 20 33 20 48l0 305c0 16-13 29-28 29z m-347-477c-3 21-10 40-20 56l-53-54c32-53 33-88 3-118l-1-1c-30-31-75-27-114 6l-28-28-24 24 28 28c-22 28-35 60-38 94l43 8c3-29 10-52 25-74l55 55c-30 52-34 87-2 118l0 1c31 30 75 27 113-6l16 17 25-25-17-17c18-23 28-47 31-74l-42-10z m262 261c-28-29-75-29-103 0-29 28-29 75 0 103 28 29 75 29 103 0 29-28 29-75 0-103z" horiz-adv-x="1000" />

<glyph glyph-name="payments-3" unicode="&#xf17d;" d="M741 516h86v-87h-86v87z m176 47v-292c0-23-19-41-41-41h-203v-93c0-23-19-41-41-41h-508c-22 0-41 18-41 41v156h590v28h91c7 0 14 6 14 13 0 8-7 14-14 14h-91v-27h-590v48h590v27h-590v33c0 23 19 41 41 41h204v93c0 23 18 41 41 41h507c22 0 41-18 41-41z m-595-321c0 7-6 14-14 14h-156c-8 0-14-7-14-14s6-14 14-14h156c8 0 14 6 14 14z m178 0c0 7-6 14-14 14h-104c-8 0-14-7-14-14s6-14 14-14h104c8 0 14 6 14 14z m355 288c0 7-6 13-14 13h-114c-8 0-14-6-14-13v-115c0-7 6-13 14-13h114c8 0 14 6 14 13v115z" horiz-adv-x="1000" />

<glyph glyph-name="reports-3" unicode="&#xf17e;" d="M745 6c-133-86-296-78-415 14 2 2 4 4 6 6 68 69 136 137 205 205 16 17 33 34 50 51 5 5 6 9 6 16 0 119 0 238 0 357 0 4 0 8 0 12 117-13 253-101 298-255 45-153-17-320-150-406z m-578 503c-108-121-95-304 1-405 67 67 134 135 201 203-67 67-135 135-202 202z m295 245c-88-6-165-37-232-91 78-78 155-155 232-232 0 107 0 215 0 323z" horiz-adv-x="1000" />

<glyph glyph-name="services-3" unicode="&#xf17f;" d="M832 740c-212 36-452 36-664 0-7-2-12-8-12-15v-750c0-7 5-13 12-15 106-18 218-27 332-27s226 9 332 27c7 2 12 8 12 15v750c0 7-5 13-12 15z m-490-694c-35 0-63 29-63 63s28 63 63 63 63-28 63-63-28-63-63-63z m0 178c-35 0-63 28-63 63s28 63 63 63 63-28 63-63-28-63-63-63z m158-178c-35 0-63 29-63 63s28 63 63 63 63-28 63-63-28-63-63-63z m0 178c-35 0-63 28-63 63s28 63 63 63 63-28 63-63-28-63-63-63z m158-178c-35 0-63 29-63 63s28 63 63 63 63-28 63-63-28-63-63-63z m0 178c-35 0-63 28-63 63s28 63 63 63 63-28 63-63-28-63-63-63z m78 234c0-9-7-15-15-15h-442c-8 0-15 6-15 15v173c0 8 7 15 15 15h442c8 0 15-7 15-15v-173z" horiz-adv-x="1000" />

<glyph glyph-name="settings-3" unicode="&#xf180;" d="M646 263l-62 11c-6 25-16 49-29 71l35 51c6 8 5 20-2 26l-32 33c-7 6-19 8-27 2l-50-36c-22 14-46 24-72 30l-10 61c-2 9-11 17-21 17h-45c-10 0-19-8-21-17l-10-61c-26-6-50-16-72-30l-51 36c-8 6-20 4-26-2l-33-33c-6-6-7-18-2-26l36-51c-14-22-24-46-30-71l-61-11c-9-2-17-11-17-20v-46c0-10 8-19 17-20l61-11c6-26 16-50 30-71l-36-51c-5-8-4-20 2-27l33-32c6-7 18-8 26-3l51 36c22-13 46-23 72-29l10-62c2-9 11-17 21-17h45c10 0 19 8 21 17l10 62c26 6 50 16 72 29l51-36c7-5 19-4 26 3l32 32c7 7 8 19 3 27l-36 51c13 21 23 45 29 71l62 11c9 1 17 10 17 20v46c0 9-8 18-17 20z m-293-165c-67 0-121 55-121 122 0 67 54 121 121 121s122-54 122-121c0-67-54-122-122-122z m579 545l-10 29c-2 6-9 10-15 9l-41-7c-9 15-21 28-34 39l12 39c1 6-2 13-8 16l-27 13c-5 3-13 1-17-4l-24-33c-16 3-34 5-51 3l-20 36c-3 5-10 8-16 6l-29-10c-6-2-10-9-9-15l7-40c-15-10-28-21-38-35l-40 12c-6 2-13-2-16-7l-13-27c-3-6-1-14 4-17l34-24c-4-17-5-34-3-52l-36-19c-6-3-9-11-7-17l10-28c2-6 9-10 15-9l41 6c9-15 21-27 34-38l-12-40c-1-6 2-13 8-16l27-13c5-2 13-1 17 5l24 33c16-4 34-5 51-3l20-36c3-6 10-8 16-6l29 9c6 3 10 9 9 16l-7 40c15 9 28 21 38 34l40-11c6-2 13 1 16 7l13 27c3 6 1 13-4 17l-34 24c4 17 5 34 3 51l36 20c6 3 9 10 7 16z m-172-128c-42-15-88 8-103 49-14 42 8 88 50 103 42 14 88-8 102-50 15-42-7-88-49-102z" horiz-adv-x="1000" />

<glyph glyph-name="signout-3" unicode="&#xf181;" d="M743 135v-48c0-77-63-139-140-139h-391c-77 0-140 62-140 139v517c0 77 63 140 140 140h391c77 0 140-62 140-140v-98c0-26-21-47-47-47s-47 21-47 47v98c0 26-20 46-46 46h-391c-25 0-46-20-46-46v-517c0-25 21-46 46-46h391c26 0 46 21 46 47v47c0 26 21 47 47 47 26 0 47-21 47-47z m231 198c-4 14-13 26-22 31l-122 90c-25 14-59 4-73-20l-5-14c0-7 0-21 0-55l-245 0c-26 0-47-21-47-47 0-12 5-24 14-33 8-9 20-14 33-14h0l245 0 0-38 0-6c0-5 1-9 2-12 4-14 13-26 25-32 7-5 16-7 26-7 6 0 12 1 18 3 5 1 9 4 14 7l121 93c3 2 7 6 10 13 8 13 10 28 6 41z" horiz-adv-x="1000" />

<glyph glyph-name="transactions-3" unicode="&#xf182;" d="M97 528c157 185 431 223 634 83l70 100 116-320-341-1 70 100c-188 130-414 141-549 38z m172-439c203-140 477-102 634 83-135-103-361-92-549 38l70 100-341-1 116-320 70 100z" horiz-adv-x="1000" />

<glyph glyph-name="branches-4" unicode="&#xf183;" d="M196 462h608c33 0 62 14 75 34 12 21 5 45-18 61l-304 212c-32 21-82 21-114 0l-304-212c-23-16-30-40-18-61 13-20 42-34 75-34z m304 200c39 0 70-31 70-70s-31-70-70-70c-39 0-70 31-70 70s31 70 70 70z m-174-289c14 0 26 11 26 26 0 14-12 26-26 26h-129c-15 0-27-12-27-26 0-15 12-26 27-26h3v-220h-3c-15 0-27-12-27-26 0-15 12-26 27-26h129c14 0 26 11 26 26 0 14-12 26-26 26h-4v220h4z m239 0c14 0 26 11 26 26 0 14-12 26-26 26h-129c-15 0-27-12-27-26 0-15 12-26 27-26h3v-220h-3c-15 0-27-12-27-26 0-15 12-26 27-26h129c14 0 26 11 26 26 0 14-12 26-26 26h-4v220h4z m239 0c14 0 26 11 26 26 0 14-12 26-26 26h-130c-14 0-26-12-26-26 0-15 12-26 26-26h4v-220h-4c-14 0-26-12-26-26 0-15 12-26 26-26h130c14 0 26 11 26 26 0 14-12 26-26 26h-4v220h4z m76-363c6 6 10 15 10 24 0 19-16 35-35 35h-710c-19 0-35-16-35-35 0-9 4-18 10-24-21-6-37-24-37-46 0-27 22-49 49-49h736c27 0 49 22 49 49 0 22-16 40-37 46z" horiz-adv-x="1000" />

<glyph glyph-name="commercial-4" unicode="&#xf184;" d="M826 447h-42v178c0 50-40 90-90 90h-520c-50 0-91-40-91-90v-281c0-50 41-91 91-91h42v-178c0-50 40-90 90-90h520c50 0 91 40 91 90v281c0 51-41 91-91 91z m-280 194h113c29 0 54-24 54-54 0-30-25-54-54-54h-113c-30 0-54 24-54 54 0 30 24 54 54 54z m-80-270h89c12 0 22-9 22-22 0-12-10-21-22-21h-89c-12 0-22 9-22 21 0 13 10 22 22 22z m-145 0h90c12 0 21-9 21-22 0-12-9-21-21-21h-90c-12 0-22 9-22 21 0 13 10 22 22 22z m-144-43c-12 0-22 9-22 21 0 13 10 22 22 22h89c12 0 22-9 22-22 0-12-10-21-22-21h-89z m607-306h-435c-37 0-67 26-74 61h583c-7-35-38-61-74-61z m76 156h-587v75h421c50 0 90 41 90 91v65c42 0 76-34 76-75l0-156 0 0z" horiz-adv-x="1000" />

<glyph glyph-name="help-4" unicode="&#xf185;" d="M405 117c-6 14-10 30-10 51 0 179 185 195 185 398 0 59-31 81-85 81s-84-22-84-81v-88h-160v80c0 131 85 206 249 206s249-75 249-206c0-213-200-245-200-395 0-15 2-30 6-46h-150z m155-57v-124h-163v124h163z" horiz-adv-x="1000" />

<glyph glyph-name="home-4" unicode="&#xf186;" d="M583 756l-122-387-1-434c-211 20-377 198-377 414 0 230 186 416 416 416 29 0 57-3 84-9z m304-258c-44 113-136 203-251 243l-107-341 358 98z m30-166c0-213-167-385-379-394l-25 0v404l387 106 6-25c7-31 11-61 11-91z m-49 0c0 18-2 36-5 55l-302-82v-316c174 19 307 165 307 343z" horiz-adv-x="1000" />

<glyph glyph-name="messages-4" unicode="&#xf187;" d="M547 718c-28 14-63 14-91 0l-373-183v-134-429h834v429 135l-370 182z m-387-651l330 212c3 2 7 3 10 3s6-1 9-3l330-212h-679z m3 369c3-1 6-2 8-3l222-139c2-1 3-3 3-4 0-1-1-3-3-4l-229-148-1 298z m676-298l-230 148c-2 1-3 3-3 4 0 1 1 3 3 4l223 139c2 1 4 2 8 3l-1-298z m-676 331l329 162c3 2 6 2 9 2 4 0 7 0 10-2l329-162h-677z" horiz-adv-x="1000" />

<glyph glyph-name="news-4" unicode="&#xf188;" d="M894 677h-788c-12 0-23-10-23-23v-608c0-13 11-23 23-23h788c12 0 23 10 23 23v608c0 13-11 23-23 23z m-558-81h117v-35h-74v-39h70v-35h-70v-45h78v-35h-121v189z m-194 0h50l39-69c12-20 23-44 31-65h1c-3 25-3 51-3 79v55h39v-189h-45l-41 73c-11 20-23 45-32 67l-1 0c1-25 1-52 1-83v-57h-39v189z m358-495h-358v57h358v-57z m0 96h-358v57h358v-57z m0 95h-358v58h358v-58z m65 115h-46v0l-45 189h45l15-78c4-22 8-47 11-66h1c3 21 7 43 12 67l16 77h46l15-80c4-22 7-42 10-63h0c3 21 7 43 11 66l16 77h43l-49-189h-46l-16 81c-4 19-7 37-9 59h-1c-3-22-6-40-11-59l-18-81z m277-306h-253v249h253v-249z m-60 303c-22 0-43 6-54 12l9 35c11-6 29-12 47-12 20 0 30 8 30 21 0 12-9 18-32 27-31 10-52 28-52 55 0 33 27 57 72 57 22 0 37-4 49-9l-10-35c-8 4-21 9-40 9-18 0-27-8-27-18 0-12 10-17 35-27 33-12 49-29 49-56 0-32-24-59-76-59z" horiz-adv-x="1000" />

<glyph glyph-name="offers-4" unicode="&#xf189;" d="M500 767c-230 0-417-187-417-417 0-230 187-417 417-417 230 0 417 187 417 417 0 230-187 417-417 417z m33-644v-75h-72v0 0 70c-50 2-98 16-126 32l22 87c31-17 75-33 123-33 42 0 71 17 71 46 0 28-23 46-78 65-80 26-134 63-134 135 0 65 46 116 126 132v70h72v-65c50-2 83-12 108-24l-22-84c-19 8-53 25-107 25-48 0-63-21-63-41 0-25 26-40 89-64 88-31 123-72 123-138 0-66-46-123-132-138z" horiz-adv-x="1000" />

<glyph glyph-name="payments-4" unicode="&#xf18a;" d="M824 609h-349-299c-51 0-93-42-93-93v-177-24-130c0-52 42-94 93-94h349 299c51 0 93 42 93 94v120 34 177c0 51-42 93-93 93z m30-270v-110h0c-9 7-20 11-33 11-33 0-59-26-59-59 0-10 3-19 7-28h-549c4 9 8 18 8 28 0 33-27 59-60 59-8 0-15-1-22-4v79h0v156h0c10-6 21-11 33-11 33 0 59 26 59 59 0 10-3 19-7 28h549c-4-8-8-18-8-28 0-33 27-59 60-59 8 0 15 1 22 4l0-125z m-256-42c0-39-28-73-78-81v-45l-43 0v42c-30 1-58 9-75 18l13 52c19-10 45-20 73-20 25 0 42 10 42 28 0 16-14 27-46 38-47 16-79 38-79 80 0 39 27 69 74 78v42h43v-38c30-2 49-8 64-15l-13-49c-11 4-32 14-63 14-29 0-38-12-38-24 0-15 15-24 53-38 52-18 73-42 73-82z" horiz-adv-x="1000" />

<glyph glyph-name="reports-4" unicode="&#xf18b;" d="M773 695h-546c-79 0-144-64-144-144v-402c0-79 65-144 144-144h546c79 0 144 65 144 144v402c0 80-65 144-144 144z m86-546c0-48-38-86-86-86h-546c-47 0-86 38-86 86v402c0 48 39 87 86 87v0h546c48 0 86-39 86-87v-402z m-113 335c0-29-23-52-51-54l-70-122c4-6 5-14 5-22 0-29-24-53-53-53-26 0-47 18-52 43l-83 45c-7-5-16-8-25-8-2 0-4 1-6 1l-58-70c2-6 4-11 4-17 0-30-24-54-54-54-30 0-54 24-54 54 0 30 24 54 54 54 2 0 4-1 6-1l57 70c-1 6-3 11-3 17 0 30 24 54 54 54 28 0 50-22 53-50l77-41c8 6 18 10 30 10 0 0 0 0 0 0l68 119c-4 7-7 15-7 25 0 29 24 53 54 53 30 0 54-24 54-53z" horiz-adv-x="1000" />

<glyph glyph-name="services-4" unicode="&#xf18c;" d="M806 734c0 0-195-103-271-98 0 0-113-16-145-60 0 0-102-149-61-211l9-17h-183c-40 0-72-33-72-72v-238c0-40 32-72 72-72h497c39 0 71 32 71 72v238c0 21-9 39-23 52 44 16 91 42 108 85 0 0 52 94 108 112 0 0 19 171-110 209z m-335-257c0 0 60-1 75 11l32-25c0 0-12-40-53-54l-60-25c0 0-15-9-33-22l-9 58c0 0 37 33 48 57z m204-405c-7 5-16 9-25 9-26 0-46-20-46-46 0-7 3-15 6-21h-422c4 6 6 13 6 21 0 26-20 46-45 46-6 0-12-1-18-4v159c6-2 12-3 18-3 25 0 45 20 45 45 0 8-2 15-6 22h181c-9-17-11-33-1-49-22-10-34-29-34-51 0-31 23-47 57-58 24-8 34-16 34-28 0-13-12-20-30-20-21 0-40 6-54 14l-9-38c12-7 33-13 54-13v-31h32v33c37 6 57 30 57 59 0 29-16 47-54 60-27 10-38 17-38 28 0 7 5 15 20 17 5-1 15-3 30-2 10-3 18-6 24-8l3 13c32 8 77 28 138 74h12c-3-7-6-14-6-22 0-25 21-45 46-45 9 0 18 3 25 9l0-170 0 0z" horiz-adv-x="1000" />

<glyph glyph-name="settings-4" unicode="&#xf18d;" d="M656 357c0 45-34 84-85 102v204c0 23-19 43-43 43h-56c-24 0-43-20-43-43v-206c-48-19-80-56-80-100 0-44 32-81 80-100v-219c0-24 19-44 43-44h56c24 0 43 20 43 44v217c51 18 85 57 85 102z m-153-71c-60 0-111 32-111 71 0 39 51 71 111 71 60 0 110-32 110-71s-50-71-110-71z m331-47v424c0 23-19 43-43 43h-56c-24 0-43-20-43-43v-424c-50-19-83-56-83-101 0-44 33-82 83-101 0-23 19-43 43-43h56c24 0 43 20 43 43 49 19 83 57 83 101s-34 82-83 101z m-71-172c-60 0-111 33-111 71 0 39 51 71 111 71 60 0 111-32 111-71 0-38-51-71-111-71z m-372 490c0 45-33 82-82 101v5c0 23-20 43-43 43h-57c-24 0-43-20-43-43v-5c-49-19-83-56-83-101 0-44 34-82 83-101v-418c0-24 19-44 43-44h57c23 0 43 20 43 44v418c49 19 82 57 82 101z m-154-71c-60 0-111 33-111 71 0 39 51 71 111 71s111-32 111-71c0-38-51-71-111-71z" horiz-adv-x="1000" />

<glyph glyph-name="signout-4" unicode="&#xf18e;" d="M743 135v-48c0-77-63-139-140-139h-391c-77 0-140 62-140 139v517c0 77 63 140 140 140h391c77 0 140-62 140-140v-98c0-26-21-47-47-47s-47 21-47 47v98c0 26-20 46-46 46h-391c-25 0-46-20-46-46v-517c0-25 21-46 46-46h391c26 0 46 21 46 47v47c0 26 21 47 47 47 26 0 47-21 47-47z m231 198c-4 14-13 26-22 31l-122 90c-25 14-59 4-73-20l-5-14c0-7 0-21 0-55l-245 0c-26 0-47-21-47-47 0-12 5-24 14-33 8-9 20-14 33-14h0l245 0 0-38 0-6c0-5 1-9 2-12 4-14 13-26 25-32 7-5 16-7 26-7 6 0 12 1 18 3 5 1 9 4 14 7l121 93c3 2 7 6 10 13 8 13 10 28 6 41z" horiz-adv-x="1000" />

<glyph glyph-name="transactions-4" unicode="&#xf18f;" d="M917 625v-42c0-55-36-101-86-116v196h-662v-196c-49 15-86 61-86 116v42c0 67 55 121 122 121h590c67 0 122-54 122-121z m-211-18h-19v-314c-2 0-3 1-4 1-47 0-84-38-84-84 0-5 1-10 2-15h-201c1 5 1 10 1 15 0 46-37 84-84 84-1 0-2-1-3-1v314h-19c-34 0-61-28-61-61v-336-23c0-34 27-61 61-61h22 366 23c33 0 60 27 60 61v23 336c0 33-27 61-60 61z m0-515h-411c-32 0-58 17-60 39 0-1-1-2-1-4v-45c0-23 27-42 61-42h411c33 0 60 19 60 42v45c0 2 0 3 0 4-3-22-28-39-60-39z m0-86h-411c-32 0-58 17-60 39 0-1-1-2-1-3v-46c0-23 27-42 61-42h411c33 0 60 19 60 42v46c0 1 0 2 0 3-3-22-28-39-60-39z m-286 515c-4-9-8-21-9-40h-25v-27h27c6-30 25-48 49-48 27 0 41 21 51 51 7 20 14 29 25 29 11 0 17-11 17-27 0-18-6-34-12-46l32-8c6 10 11 29 12 47h27v28h-29c-5 32-26 49-51 49-25 0-41-13-52-46-9-24-15-34-24-34-8 0-16 6-16 24 0 20 6 33 10 40l-32 8z" horiz-adv-x="1000" />

<glyph glyph-name="branches-5" unicode="&#xf190;" d="M849 550c-2 6-6 12-13 14l-32 11-6 25c-1 7-6 12-13 14l-142 48c-3 1-5 1-8 1l-145-14-163 20c-4 1-7 0-10-1l-143-65c-6-3-10-8-11-14l-94-505c-1-7 1-14 6-18 4-3 8-4 12-4 3 0 5 0 7 1l33 13-8-43c-1-7 2-14 7-18 3-3 8-4 12-4 2 0 5 0 7 1l201 79 192-55c4-1 8-1 11 0l165 55 219-77c6-2 14-1 19 4 5 4 7 11 6 18l-109 514z m-562-371l-175-68 87 461 118 54-6-87-2-5 2-1-22-353c-1-1-1 0-2-1z m15 0l22 356 0 1 3 5-3 2 6 87 117-14 1-7 7 1 2 0 6 1 0 3 17-2v0l2 0 3-331-1 7-2 1-11-1 2-11 1-1 11 1 1-151-184 53z m197-52l-1 135 0 0 6 9-5 3 1 1-1 1-2-1-2 336 136 13 8-126-1 0 1 0 6-114-4 2-1-2 5-3 1-12-11 6-1-2 11-6 1 1 10-189-157-52z m171 53c0 0-1 0-1 0l-12 209 1 1-1 1-1 14 8-7 2 1-9 9-1 0-4 68 9-3 3 10-1 3-10 3-1-3-1 12 2 6-2 2 0 0-7 115 119-39 41-194-3-8 3-1 1 4 58-271-193 68z m-238 154c1 1 2 2 2 3 3 15-9 37-26 49-18 12-34 9-37-6-3-15 9-37 26-48 10-7 20-9 27-6l0-2 2-2 10-1 1 11-2 2-3 0z m397-113l8 8-7 8-1 0-8-7 7-9 1 0z m-56 42l-11 0 1-11 2-2 10 1 0 11-2 1z m-38 54l-10 3-3-10 1-2 10-3 3 10-1 2z m69-91l2-1 10 5-5 10-2 1-10-5 5-10z m-78 109l-1 2-10 4-4-10 1-3 11-3 3 10z m-116 185l1 0 8 7-6 8-3 1h-1l-7-8 7-8h1z m17-8l10 0 0 11-2 2-11-1 1-11 2-1z m47-50l-1 3-10 3-4-10 1-2 10-4 4 10z m-77 50l2 2-2 10-10-1-2-2 2-11 10 2z m71-75l1-2 10-4 4 10-1 2-10 4-4-10z m32-39l-1 2-10 5-4-10 0-3 10-4 5 10z m-15 12l2-1 4 10-1 3-9 4-5-10 1-2 5-2 1-3 2 1 0 0z m32-54l-1 2-10 4-4-10 1-2 10-4 4 10z m-139 94l0 2-6 9-9-6 0-2 6-9 9 6z m-38-107l0-2 5-9 9 5 1 2-5 10-10-6z m-16-40l-1-2 3-11 10 3 1 2-2 10-11-2z m9 19l-1-2 5-10 10 4 1 3-5 10-10-5z m-23-37l0-11 10-1 3 2 0 11-11 0-2-1z m280-35l-11-2 3-11 2-1 10 2-2 11-2 1z m-44 48l-10 2-3-10 2-2 10-3 3 11-2 2z m-157 195l0 2-4 10-10-4-1-3 5-10 10 5z m159-212l-1-11 1-2 11-1 1 11-1 2-11 1z m-188 78l1 3-6 9-9-6-1-2 6-9 9 5z m13 68l1 3-6 9-9-6-1-3 7-9 8 6z m10 45l0 2-5 9-10-5v0l0-3 5-9 10 6z m125-95l-1 2-10 4-4-10 1-2 10-4 4 10z m-143 5l1 3-6 8-9-6-1-2 6-9 9 6z m4 23l1 2-6 9-9-6-1-3 6-8 9 6z m-103-102l-11 0 1-11 1-2 11 1 0 11-2 1z m-27 15l0-11 2-1h11v10l-2 2-11 0z m-105 251l-2-2-4-4 9-9 4 4 2 2 5 5-9 9-5-5z m59 24l3 1 5 3-5 11-5-2-3-1-6-2 5-12 6 2z m-27 1l-5-4-2-1-6-4 7-10 6 3 2 2 5 3-7 11z m57 10l3 0 6 2-3 12-6-1-3-1-6-2 3-12 6 2z m-235-151l-2-1-7-1 3-12 6 1 2 0 7 2-3 12-6-1z m59 23l-3-1-5-3 6-11 6 3 2 1 5 3-6 11-5-3z m52 45l-4-5-2-2-4-4 10-9 4 5 2 2 4 5-10 8z m-81-59l-2-1-6-2 4-12 6 2 3 1 6 2-5 12-6-2z m54 32l-1-1-5-4 8-10 5 4 1 1 5 5-8 9-5-4z m355-161l-12 6 2 2 11-6-1-2z m119 82l2-1-4-12-2 1 4 12z m10-17l-2 1 4 12 3-1-5-12z m-117-43l-12 6 2 3 11-6-1-3z m-68-185l-12 0 0-3 12 0 0 3z m62 174l-12 6 2 2 11-6-1-2z m33 71l7-11 2 2-6 11-3-2z m104-9l3-1-5-12-2 1 4 12z m-160-107l-12 5 1 2 12-5-1-2z m172 102l3-1-5-11-3 1 5 11z m10-17l-3 1 5 11 2-1-4-11z m-59 35l3-1-3-12-3 1 3 12z m-151-191l-12 4 0 2 12-4 0-2z m-4-12l-12 3 1 3 12-4-1-2z m8 24l-12 4 0 3 12-5 0-2z m137 182l-3 0-2-12 3-1 2 13z m-151-243l0 3-13 1 0-3 13-1z m18 73l-12 4 1 3 12-5-1-2z m-30-58l13-2 0 2-12 2-1-2z m0-38l0-3 13 3-1 2-12-2z m15 48l-12 3 0 2 13-3-1-2z m135 220l-3 0-1-13 3 0 1 13z m-89-103l-11 6 1 2 11-5-1-3z m-6-11l-11 6 1 2 11-6-1-2z m82 101l-1 13-3 0 1-13 3 0z m-98-136l-11 5 1 3 11-5-1-3z m5 12l-11 5 1 3 11-6-1-2z m-10-23l-11 4 1 3 11-5-1-2z" horiz-adv-x="1000" />

<glyph glyph-name="commercial-5" unicode="&#xf191;" d="M927 510l-51 48c0 0 1 0 1 0h-1l-29 28c0 37-24 66-53 66h0c-7 28-27 49-51 49h-527c-29 0-53-30-53-67h0l-76-76h-1c0-42 23-79 56-99v-341h0c0-30 23-54 52-57 4-27 27-49 56-49h561c31 0 57 26 57 57h1v340c35 20 58 58 58 101h0z m-145-392h-216v325c3-1 6-1 8-1 38 0 72 18 93 47 22-29 55-47 93-47 8 0 15 1 22 2v-326l0 0z m-606 0v327c9-2 17-3 26-3 39 0 72 18 93 47 22-29 55-47 93-47s72 18 93 47c13-17 30-31 50-39v-332h-355z m429 199c-17 0-30-13-30-30 0-16 13-30 30-30 17 0 69 13 69 30 0 17-52 30-69 30z m-189 43c-5 5-13 5-18 0l-105-105c-5-5-5-13 0-18 3-2 6-4 9-4s7 2 9 4l105 105c5 5 5 13 0 18z m-10-57l-52-53c-5-4-5-13 0-17 2-3 5-4 9-4 3 0 6 1 9 4l52 52c5 5 5 13 0 18-5 5-13 5-18 0z m-105-18l53 53c5 5 5 13 0 18-5 4-13 5-18 0l-52-53c-5-5-5-13 0-18 2-2 5-3 8-3 4 0 7 1 9 3z" horiz-adv-x="1000" />

<glyph glyph-name="dashboard" unicode="&#xf192;" d="M746 595c-63 80-162 132-272 132-193 0-349-156-349-349 0-110 52-209 132-272 64-81 162-133 273-133 192 0 348 157 348 349 0 111-51 209-132 273z m-23-368h-498c-23 38-37 81-41 127l37 3c-1 12-1 23-1 35l-31 2-6 0c2 39 12 76 28 109l17-8 16-8c5 11 11 21 17 30l-13 9-18 12c21 32 48 60 79 81l12-18 10-14c9 7 19 13 29 18l-8 16-8 17c33 17 70 27 109 30l0-6 2-32c12 1 23 1 35 0l3 38c0 0 0 0 0 0 33-2 64-8 93-20l-16-37c11-5 21-10 31-16l20 34c33-20 62-45 85-76l-32-24c7-9 13-19 19-29l35 20c18-33 30-70 35-109l-40-4c1-11 2-23 1-35l41-1c-1-52-16-101-42-144z m-298 119c18-27 55-35 83-16 27 18 161 181 161 181s-201-63-228-82c-28-18-35-55-16-83z" horiz-adv-x="1000" />

<glyph glyph-name="help-5" unicode="&#xf193;" d="M819 176c32 52 51 113 51 178 0 108-51 205-129 268-63 78-159 128-267 128-190 0-343-153-343-343 0-108 50-204 128-267 63-78 159-129 268-129 50 0 97 11 140 30l202-59c0 0-68 164-50 194z m-642 231c0 164 133 297 297 297 163 0 296-133 296-297 0-54-15-108-43-154-8-12-23-37 13-147l-113 33-17 5-15-7c-38-17-79-26-121-26-164 0-297 133-297 296z m235 168c14 20 36 29 66 29 6 0 13-1 22-4 8-3 15-8 23-14 7-6 13-14 18-25 5-10 8-22 8-37 0-12-2-22-5-31-3-9-7-17-13-24-5-6-12-13-19-19-7-5-14-12-22-18-9-9-18-17-25-25-7-9-13-19-17-30-5-11-9-24-11-38-2-15-3-33-3-54h78c0 17 2 32 5 44 3 12 7 23 13 31 6 9 12 17 20 25 8 7 16 14 25 22 8 7 16 14 24 21 7 7 14 15 20 23 6 9 11 20 15 32 3 12 5 27 5 44 0 23-4 44-12 62-8 18-20 34-34 46-14 12-31 22-50 28-19 7-39 10-61 10-27 0-51-4-72-13-22-8-40-20-55-36-15-15-27-33-35-55-8-22-12-46-12-72h83c0 32 7 59 21 78z m22-340h78v-90h-78v90z" horiz-adv-x="1000" />

<glyph glyph-name="home-5" unicode="&#xf194;" d="M874 397c-1 47-41 70-41 70s-5 4-15 11c-12 24-33 36-33 36s-13 10-34 26v53c0 22-18 40-40 40-2 0-5-1-7-2v9c0 22-18 40-40 40-22 0-40-18-40-40v-7c-55 40-104 76-114 83-6 4-12 7-18 9-1 0-3 0-5 1-3 0-7 2-11 2 0 0 0-1 0-1-3 0-7-1-10-1-2-1-4-1-6-2-6-1-11-4-17-8-22-15-275-202-275-202s-42-26-43-69c0-1-1-1-1-1v-294c0-28 22-51 49-55 4-27 27-49 55-49h115 348 127c31 0 56 25 56 57v293c0 0 0 1 0 1z m-230-256h-349l1 210h348l1-1-1-209z m135 9c0-5-4-9-9-9h-78c0 1 0 1 0 1v208c0 27-21 48-48 48h-348c-27 0-49-21-49-48v-208c0 0 0 0 1-1h-67c-5 0-9 4-9 9v246 41l0 0 0 7c0 13 16 27 21 30l1 1 2 1c70 52 257 189 274 200 4 3 6 4 6 4 1 0 3-1 8-4 17-11 173-126 273-200l2-1 2-1c1-1 18-12 18-29l0-8 0 0v-287h0z m-304 476c26 0 48-22 48-48 0-26-22-48-48-48s-48 22-48 48c0 26 22 48 48 48z m102-335h-218c-7 0-12-6-12-12 0-7 5-12 12-12h218c7 0 12 5 12 12 0 6-5 12-12 12z m0-70h-218c-7 0-12-6-12-12s5-12 12-12h218c7 0 12 5 12 12s-5 12-12 12z" horiz-adv-x="1000" />

<glyph glyph-name="messages-5" unicode="&#xf195;" d="M878 581h-11v11c0 23-19 42-42 42h-703c-24 0-43-19-43-42v-392c0-24 19-43 43-43h11v-10c0-24 19-43 42-43h703c24 0 43 19 43 43v391c0 24-19 43-43 43z m-53 0v-43-338h-650-42-11v392h703v-11z m-145-155c7 7 22 8 28 0 7 9 22 9 29 0 6 9 22 9 28 0 7 9 22 7 29-1 1 2 3 3 4 4-4 3-6 8-6 13 0 5 2 10 6 14-4 3-6 8-6 13s2 10 6 14c-4 3-6 8-6 13s2 10 6 14c-4 3-6 8-6 13 0 5 2 10 6 14 0 0-1 1-1 1-3 3-5 7-5 12 0 6 3 11 7 14-2 1-3 3-4 4-3-4-8-7-13-7-6 0-12 3-15 7-6-9-22-8-28 0-7-8-22-8-29 0-6-9-22-7-29 1-1-2-2-3-4-4 4-3 6-8 6-13 0-5-2-10-6-14 0 0 0 0 0 0 4-3 6-8 6-13 0-5-2-10-6-14 4-3 6-8 6-13 0-5-2-10-6-14 4-3 6-8 6-13 0-5-2-10-6-14 4-3 6-8 6-13 0-5-2-10-6-14 1-1 2-3 3-4z m20 112v5h76v-5-87h-76v87z m-248-8c0 0 9 5 22 8 15 4 34 7 53 0 5-2 10-4 14-7 17-12 36-16 53-16 33 0 61 14 63 15 3 1 4 5 5 8 0 2 0 4-1 6-2 5-9 7-14 5 0 0-15-7-34-11-11-2-23-2-35 0-8 2-17 5-24 10-48 34-110 2-112 1-4-2-6-7-5-11 0-1 0-2 0-4 3-5 9-7 15-4z m0-38c0 1 52 28 89 1 17-12 36-16 53-16 33 0 61 14 63 15 5 3 7 9 4 15-2 5-9 7-14 4-1 0-56-27-93 0-49 34-110 2-112 0-6-2-8-9-5-14 3-5 9-7 15-5z m0-37c0 0 52 27 89 1 17-12 36-16 53-16 33 0 61 14 63 15 5 3 7 9 4 14-2 6-9 8-14 5-1 0-56-27-93-1-49 34-110 2-112 1-6-3-8-9-5-15 3-5 9-7 15-4z" horiz-adv-x="1000" />

<glyph glyph-name="news-5" unicode="&#xf196;" d="M807 677c0 28-23 51-52 51h-562c-28 0-52-23-52-51v-630c0-28 24-52 52-52 0-28 23-51 52-51h562c29 0 52 23 52 51v630c0 28-23 52-52 52z m-622-630v630c0 4 4 8 8 8h562c5 0 8-4 8-8v-630c0-4-3-8-8-8h-562c-4 0-8 4-8 8z m31 73h514v-50h-514v50z m22 487h483c12 0 21 10 21 22s-9 22-21 22h-483c-12 0-21-10-21-22s9-22 21-22z m-11-41h491c6 0 11 4 11 11 0 6-5 10-11 10h-491c-6 0-11-4-11-10 0-6 5-11 11-11z m0-241h290c6 0 11 5 11 11s-5 11-11 11h-290c-6 0-11-5-11-11s5-11 11-11z m0-43h290c6 0 11 4 11 11 0 6-5 11-11 11h-290c-6 0-11-5-11-11s5-11 11-11z m0-44h290c6 0 11 5 11 11 0 6-5 11-11 11h-290c-6 0-11-5-11-11 0-6 5-11 11-11z m0-44h290c6 0 11 5 11 11 0 6-5 11-11 11h-290c-6 0-11-5-11-11 0-6 5-11 11-11z m0-44h259c6 0 11 5 11 11s-5 11-11 11h-259c-6 0-11-5-11-11s5-11 11-11z m347 175h144c6 0 11 5 11 11s-5 11-11 11h-144c-6 0-11-5-11-11s5-11 11-11z m0-43h144c6 0 11 4 11 11 0 6-5 11-11 11h-144c-6 0-11-5-11-11s5-11 11-11z m0-44h144c6 0 11 5 11 11 0 6-5 11-11 11h-144c-6 0-11-5-11-11 0-6 5-11 11-11z m0-44h144c6 0 11 5 11 11 0 6-5 11-11 11h-144c-6 0-11-5-11-11 0-6 5-11 11-11z m-347 307h290c6 0 11 5 11 11s-5 11-11 11h-290c-6 0-11-5-11-11s5-11 11-11z m0-44h290c6 0 11 5 11 11s-5 11-11 11h-290c-6 0-11-5-11-11s5-11 11-11z m0-44h290c6 0 11 5 11 11 0 6-5 11-11 11h-290c-6 0-11-5-11-11 0-6 5-11 11-11z m0-44h290c6 0 11 5 11 11 0 6-5 11-11 11h-290c-6 0-11-5-11-11s5-11 11-11z m347 132h144c6 0 11 5 11 11s-5 11-11 11h-144c-6 0-11-5-11-11s5-11 11-11z m0-44h144c6 0 11 5 11 11s-5 11-11 11h-144c-6 0-11-5-11-11s5-11 11-11z m0-44h144c6 0 11 5 11 11 0 6-5 11-11 11h-144c-6 0-11-5-11-11 0-6 5-11 11-11z m0-44h144c6 0 11 5 11 11 0 6-5 11-11 11h-144c-6 0-11-5-11-11s5-11 11-11z m0-219h129c6 0 11 5 11 11s-5 11-11 11h-129c-6 0-11-5-11-11s5-11 11-11z" horiz-adv-x="1000" />

<glyph glyph-name="offers-5" unicode="&#xf197;" d="M864 564l-53 53c0 0 0 0 0 0l-100 100c-1 1-4 2-6 3-1 1-3 1-4 1-2 1-4 1-7 2-2 0-4 0-5 1-3 0-6 0-9 0-2 1-5 1-7 1-3 0-6 0-10 0-1 0-2 0-3 0-1 0-3 0-4 0-6 0-13 0-20-1-1 0-3 0-4 0-9 0-17-1-26-2-3 0-5 0-7 0-8-1-15-2-22-2-2-1-4-1-6-1-9-1-18-2-26-4-2 0-3 0-5-1-7-1-14-2-20-3-2 0-4-1-5-1-8-2-15-3-21-5-1 0-1 0-2-1-5-1-10-2-14-4-1 0-2-1-3-1-4-2-7-4-9-5l-323-323c-20-21-20-55 0-75l53-53 196-196 53-53c5-5 11-9 18-12 1 0 2 0 4-1 5-1 10-3 16-3 5 0 10 2 16 3 7 3 15 7 21 13l323 323c21 21 41 227 21 247z m-638-291l-53 53c-4 4-4 11 0 15l320 320c21 8 105 22 167 22 14 0 23-1 27-2l88-88c7-35-5-165-18-196l-320-320c-2-3-5-3-7-3-2 0-5 0-8 3l-196 196z m413 341c30 0 54-24 54-54s-24-54-54-54-54 24-54 54 24 54 54 54z m-169-435l163 164c20 20 20 54 0 74l-119 119c-21 21-54 21-75 0l-163-163c-21-21-21-54 0-75l119-119c20-20 54-20 75 0z" horiz-adv-x="1000" />

<glyph glyph-name="payments-5" unicode="&#xf198;" d="M865 629c-8 29-35 51-67 51h-517c-39 0-71-32-71-71v-157c-67-34-114-102-114-182 0-68 34-128 86-164 37-52 97-86 165-86 93 0 170 63 194 148h304c40 0 72 32 72 71v322c0 32-22 59-52 68z m-566-522c-90 0-163 74-163 163 0 90 73 164 163 164 90 0 163-74 163-164 0-89-73-163-163-163z m530 180c0-18-14-32-32-32h-297c1 5 2 10 2 15 0 26-5 50-14 73h139c8 0 15 7 15 15 0 8-7 15-15 15h-154c-8 13-17 25-27 36h270c8 0 15 7 15 15 0 8-7 15-15 15h-305c-32 22-70 34-112 34-17 0-34-3-50-7v36h580v-215l0 0z m0 281h-580v41c0 17 15 32 32 32h517c17 0 31-15 31-32v-41l0 0z m-494-312c6 6 19 2 25 8 2 3 3 8 2 12-1 4-7 5-8 9 0 6 3 10 5 18 3 3 11 0 13 5 0 10-8 15-12 25-4 10 0 26-11 38 1 6 13 6 12 12-2 16-26 22-41 24-16 3-44 2-58-6-15-8-24-15-33-40-1-28 1-48 10-65 3-9 14-26 19-29 0-10-5-6-10-15-17-20-49-70-43-90 40-48 149-50 189-3 4 18-47 53-64 86-1 5 2 8 5 11z" horiz-adv-x="1000" />

<glyph glyph-name="reports-5" unicode="&#xf199;" d="M835 480l-41 41-2 2-160 160-44 44h-15-275-65c-27 0-49-22-49-50v-602c0-26 19-46 44-49 3-25 23-45 49-45h511c27 0 49 23 49 50v447l-2 2z m-262 201l157-158h-106c-28 0-51 23-51 52v106z m-275 2h231v-108c0-53 43-95 95-95h44 82v-405c0-4-3-6-6-6h-446v614z m-71-608v559 43c0 4 3 6 6 6h22v-614h-22c-3 0-6 2-6 6z m463 379h-343c-12 0-22-9-22-21s10-22 22-22h343c12 0 22 9 22 22s-10 21-22 21z m7-82c6 0 11 5 11 11s-5 10-11 10h-358c-6 0-11-4-11-10s5-11 11-11h358z m-5-62h-107-11-113-10-108c-9 0-16-8-16-17v-35-64-36c0-9 7-16 16-16h107 11 113 10 108c9 0 17 7 17 16v36 64 35c0 9-8 17-17 17z m-242-158h-106c-4 0-7 3-7 6v36h113v-42z m1 52h-114v43h114v-43z m0 54h-114v35c0 4 3 6 7 6h107v-41z m123-106h-113v42h113v-42z m0 52h-112v43h112v-43z m0 54h-112v41h112v-41z m124-100c0-3-3-6-6-6h-107v42h0 113l0-36 0 0z m0 46h-113v43h113v-43z m0 54h-113v41h107c3 0 6-2 6-6v-35z" horiz-adv-x="1000" />

<glyph glyph-name="services-5" unicode="&#xf19a;" d="M702 20h-426c6-4 13-6 21-6h452c25 0 44 20 44 44v535c0 8-2 15-6 21v-508c0-48-38-86-85-86z m79 653c4-10 6-21 6-32v-27c4-6 6-13 6-21v-535c0-24-19-44-44-44h-452c-8 0-15 2-21 6h-27c-11 0-22 2-31 6 12-32 43-54 79-54h452c48 0 86 39 86 86v535c0 36-22 67-54 80z m-505-653h426c47 0 85 38 85 86v508 27c0 11-2 22-6 31-13 32-43 54-79 54h-453c-47 0-86-38-86-85v-535c0-36 23-67 55-80 9-4 20-6 31-6l27 0 0 0z m-71 86v535c0 24 20 44 44 44h453c24 0 44-20 44-44v-535c0-25-20-44-44-44h-453c-24 0-44 19-44 44z m117 242c0-6 4-10 10-10 6 0 10 4 10 10v55h-20v-55z m20 132c0 5-4 10-10 10-6 0-10-5-10-10v-56h20v56z m56-56h-56-20-56c-6 0-10-4-10-10 0-6 4-11 10-11h56 20 56c5 0 10 5 10 11 0 6-5 10-10 10z m151-276c-4-4-4-10 0-14 2-2 5-3 7-3 3 0 6 1 8 3l39 39-15 15-39-40z m108 93c-4 5-11 5-15 0l-39-39 15-14 39 39c4 4 4 10 0 14z m-93 0c-4 5-11 5-15 0-4-4-4-10 0-14l39-39 15-15 39-39c2-2 5-3 7-3s6 1 8 3c4 4 4 10 0 14l-39 40-15 14-39 39z m-166-30h-132c-6 0-10-5-10-11s4-10 10-10h132c5 0 10 4 10 10s-5 11-10 11z m271 213h-132c-6 0-10-4-10-10 0-6 4-11 10-11h132c5 0 10 5 10 11 0 6-5 10-10 10z m-337-163c9 0 17-8 17-17s-8-17-17-17c-9 0-17 7-17 17s8 17 17 17z m0-87c9 0 17-8 17-17 0-10-8-17-17-17-9 0-17 7-17 17 0 9 8 17 17 17z m-44 382h384c27 0 49 22 49 50 0 27-22 49-49 49h-384c-27 0-50-22-50-49 0-28 23-50 50-50z" horiz-adv-x="1000" />

<glyph glyph-name="settings-5" unicode="&#xf19b;" d="M870 335c0 30-4 58-11 86l-39 9c-2 12-5 25-8 37l-16 4 25 40c-20 34-47 65-78 90-25 31-55 58-90 78l-40-25-4 16c-12 3-24 6-37 7l-9 39c-27 7-56 12-86 12-30 0-59-5-86-12l-19-82-71 45c-50-30-92-72-122-122l45-71-82-19c-7-27-12-56-12-86 0-30 5-59 12-86l38-9c2-13 5-25 8-37l16-4-25-40c20-35 47-65 78-91 25-30 55-57 90-77l40 25 4-16c12-4 24-6 37-8l9-39c28-7 56-11 86-11 30 0 59 4 86 11l19 83 71-46c50 30 93 72 122 122l-45 72 83 18c7 28 11 57 11 87z m-443-253l-13 55-65 27-48-30c-27 20-51 44-71 71l30 48-27 65-55 13c-3 17-5 34-5 50 0 16 2 33 5 50l55 13 27 65-30 48c20 27 44 51 71 71l48-30 65 27 13 55c17 3 34 5 50 5 16 0 33-2 50-5l13-55 65-27 48 30c27-20 51-44 71-71l-30-48 26-65 56-13c3-17 4-34 4-50 0-17-1-33-4-50l-56-13-26-65 30-48c-20-27-44-51-71-71l-48 30-65-27-13-55c-17-3-34-5-50-5-16 0-33 2-50 5z m223 299c0 96-77 173-173 173-96 0-173-77-173-173 0-96 77-173 173-173 96 0 173 77 173 173z m-303 0c0 72 58 130 130 130 72 0 130-58 130-130 0-72-58-130-130-130-72 0-130 58-130 130z" horiz-adv-x="1000" />

<glyph glyph-name="signout-5" unicode="&#xf19c;" d="M524 223l27-85c0-25-20-45-45-45h-35c-25 0-45 20-45 45l25 85c-20 12-34 35-34 61 0 39 32 71 71 71 39 0 72-32 72-71 0-26-15-49-36-61z m297 170v-373c0-29-23-51-51-51h-472c-27 0-49 20-51 47-25 3-44 24-44 50v372c0 27 21 48 47 51 0 0 0 0 0 1 0 131 106 238 238 238 80 0 151-40 194-101 47-39 79-95 86-160 5-7 8-15 9-25 25-3 44-24 44-49z m-537 97h65c0 77 62 139 139 139 77 0 140-62 140-139h64c0 112-91 204-204 204-112 0-204-92-204-204z m298 45c-15 9-32 14-50 14-42 0-78-24-95-59h156c0 16-4 32-11 45z m150-97c0 3-3 6-6 6h-89-211-172c-3 0-6-3-6-6h0v-372c0-4 3-6 6-6h472c4 0 6 2 6 6v372z" horiz-adv-x="1000" />

<glyph glyph-name="transactions-5" unicode="&#xf19d;" d="M864 593c-5 4-19 14-38 27-1 1-3 2-4 4-19 14-185 129-203 141-6 4-11 6-15 6-8 0-12-7-12-18 0-4 0-31 0-68 0 0-233-11-324-146h-52c-28 0-50-22-50-49v-228c0-23 16-42 38-48-27-18-49-33-56-38-25-18-24-32 0-50 5-3 19-13 38-27 2-1 3-2 5-3 18-14 184-129 202-142 6-4 11-6 15-6 8 0 12 7 12 18 0 4 0 32 0 69 0 0 235 11 326 146h50c28 0 50 23 50 50v228c0 23-15 41-36 47 26 18 47 33 54 37 25 18 24 32 0 50z m-271 61l30 1v29 41c54-38 165-115 180-126l-180-126v36 29l-29 2c-1 0-33 2-78 2-36 0-68-2-98-4h-112c89 105 285 115 287 116z m-377-400c-4 0-8 4-8 8v197 31c0 4 4 7 8 7h376c0-48 0-83 0-83s60 42 119 83h43c4 0 7-3 7-7v-228c0-4-3-8-7-8h-376c0 47 0 82 0 82s-59-41-117-82h-45z m-49-103l180 126v-36-29l29-2c1 0 33-2 78-2 36 0 67 2 97 4h113c-89-105-285-115-287-116l-30-1v-30-40c-55 38-165 115-180 126z m318 133c34 0 60 38 60 85 0 47-26 86-60 86-33 0-60-39-60-86 0-47 27-85 60-85z m185 63c18 0 34-15 34-33s-16-34-34-34-34 15-34 34 15 33 34 33z m-370 112c19 0 34-15 34-34 0-18-15-33-34-33s-34 15-34 33c0 19 15 34 34 34z" horiz-adv-x="1000" />

<glyph glyph-name="print" unicode="&#xf19e;" d="M867 575h-109v113c0 12-10 22-22 22h-472c-12 0-22-10-22-22v-113h-109c-33 0-60-27-60-60v-296c0-33 27-60 60-60h109v-146c0-13 10-23 22-23h472c12 0 22 10 22 23v146h109c33 0 60 27 60 60v296c0 33-27 60-60 60z m-153-348v-192h-428v192h428z m-428 348v90h428v-90h-428z m450-304h-472c-12 0-22-10-22-22v-46h-109c-9 0-16 8-16 16v296c0 8 7 16 16 16h734c9 0 16-8 16-16v-296c0-8-7-16-16-16h-109v46c0 12-10 22-22 22z m0 124c-21 0-39 18-39 39 0 22 18 39 39 39s39-17 39-39c0-21-17-39-39-39z" horiz-adv-x="1000" />

<glyph glyph-name="account-bar" unicode="&#xf19f;" d="M500 779c-237 0-429-192-429-429s192-429 429-429 429 192 429 429-192 429-429 429z m-143-679c0-23-19-42-42-42s-42 19-42 42v163c0 23 19 42 42 42s42-19 42-42v-163z m174 0c0-23-18-42-41-42s-42 19-42 42v307c0 23 19 42 42 42s41-19 41-42v-307z m175 0c0-23-19-42-42-42-23 0-42 19-42 42v479c0 23 19 42 42 42 23 0 42-19 42-42v-479z" horiz-adv-x="1000" />

<glyph glyph-name="account-coin" unicode="&#xf1a0;" d="M621 225c0-41-32-78-79-93l-9-3v189l10-3c49-17 78-37 78-90z m-242 266c0-34 27-61 79-82l10-4v176l-9-3c-48-12-80-47-80-87z m550-141c0-237-192-429-429-429s-429 192-429 429 192 429 429 429 429-192 429-429z m-243-125c0 103-71 138-148 160l-5 2v191l10-3c27-11 48-28 59-50 5-11 16-18 29-18 5 0 10 1 15 4 16 8 22 28 14 44-22 44-66 76-121 88l-6 5v5c0 18-14 33-32 33-18 0-33-15-33-33v-6l-6-1c-86-14-148-79-148-155 0-70 50-122 149-153l5-1v-210l-9 2c-39 10-66 35-81 76-4 13-17 22-30 22-4 0-8-1-11-2-9-3-15-9-19-17-4-8-4-17-1-25 24-68 74-110 145-121l6 0v-15c0-18 15-33 33-33 18 0 32 15 32 33v15l6 1c85 17 147 85 147 162z" horiz-adv-x="1000" />

<glyph glyph-name="theme-concert" unicode="&#xf1a1;" d="M500 808c-253 0-458-205-458-458 0-253 205-458 458-458 253 0 458 205 458 458 0 253-205 458-458 458z m203-750l-203 107-203-107 39 226-165 161 227 33 102 206 102-206 227-33-164-161 38-226z" horiz-adv-x="1000" />

<glyph glyph-name="theme-underwater" unicode="&#xf1a2;" d="M925 482c0 0 0 0-27-12-25-12-58-48-86-51-1 0-2 0-3 0h-1c-15 0-56 9-91 17v0c0 17 17 26 16 43-1 30-28 64-82 71-31 4-36 1-56-21l-7-2c-58-4-80 17-81 34-1 17 20 40 18 58-4 33-78 63-103 68-68 14-127-134-159-177-70-32-185-65-220-167-16-46-28-79-26-108 2-35 25-63 88-96 61-32 137-42 212-32 16 2 32 5 49 7 1 0 1 0 2-1 13-43 19-95 78-100 23-3 76 10 105 31 45 32-4 98-36 116l1 3c0 0 0 0 14 6 13 5 69 47 69 47s7-16 16-24c22-21 74 9 81 34 3 7 2 16 1 25-2 22 1 25 20 39 50 36 97-4 114-26 29-38 75-35 96-37 20-1 39 8 46 20 18 29-15 74-15 104 0 24 75 164-33 131z m-745-283c-43 0-78 34-78 77 0 42 35 77 78 77 42 0 77-35 77-77 0-43-35-77-77-77z m24 89c0-20-16-36-36-36-16 0-30 12-33 28 1 0 2-1 4-1 9 0 16 8 16 17 0 8-5 14-12 16 6 7 15 11 25 11 20 0 36-16 36-35z m-59-15c0 4 4 8 9 8 4 0 8-4 8-8 0-5-4-9-8-9-5 0-9 4-9 9z" horiz-adv-x="1000" />

</font>
</defs>
</svg>
