<?xml version="1.0" standalone="no"?>
<!DOCTYPE svg PUBLIC "-//W3C//DTD SVG 1.1//EN" "http://www.w3.org/Graphics/SVG/1.1/DTD/svg11.dtd">
<svg xmlns="http://www.w3.org/2000/svg">
<metadata>Copyright (C) 2019 by original authors @ fontello.com</metadata>
<defs>
<font id="pfm-categories" horiz-adv-x="1000" >
<font-face font-family="pfm-categories" font-weight="400" font-stretch="normal" units-per-em="1000" ascent="850" descent="-150" />
<missing-glyph horiz-adv-x="1000" />
<glyph glyph-name="auto" unicode="&#xf100;" d="M749 412c-57 58-187 188-187 188s-62 0-187 0-375-125-375-125l62-63-62-124v-125h66c14-71 77-125 153-125s138 54 153 125c78 0 168 0 256 0 14-71 77-125 153-125s138 54 152 125c26 0 48 0 67 0 0 15-1 249-251 249z m-530-343c-69 0-125 56-125 125s56 125 125 125c69 0 124-56 124-125s-55-125-124-125z m218 343l-62 125h162l126-125h-226z m344-343c-69 0-125 56-125 125s56 125 125 125 124-56 124-125-55-125-124-125z" horiz-adv-x="1000" />

<glyph glyph-name="bills" unicode="&#xf101;" d="M290 616c7 0 14 1 21 4l308 121c29 12 43 45 32 74-11 28-44 42-73 31l-308-121c-29-12-43-44-32-73 9-22 30-36 52-36z m0-167c7 0 14 2 21 4l420 167c28 11 42 44 31 73-12 29-44 43-73 31l-419-166c-29-11-43-44-32-73 9-22 30-36 52-36z m399 109l-419-166c-1-1-1-1-1-1-2 0-3-1-4-1 0-1-1-1-1-1-1-1-2-1-3-2-1 0-2-1-2-1-1-1-2-1-3-2 0 0-1-1-2-2 0 0-1-1-1-1-1-1-2-1-3-2 0-1-1-1-1-2-1-1-1-2-2-2-1-1-1-2-1-2-1-1-2-2-2-3-1 0-1-1-2-2 0-1-1-2-1-2 0-1-1-2-1-3-1-1-1-1-1-2-1-1-1-2-1-3-1-1-1-2-1-2-1-1-1-2-1-3 0-1 0-2-1-3 0-1 0-2 0-2 0-1 0-2 0-3 0-1-1-2-1-3 0-1 0-2 0-3 0-1 0-1 0-2 0-1 1-2 1-4 0 0 0 0 0-1 0 0 0 0 0-1 0-1 0-2 0-3 1-1 1-2 1-3 0 0 0-1 1-2 0-1 1-2 1-3 0-1 0-1 0-1 1-1 1-1 1-2 0 0 1-1 1-2 0-1 1-1 1-2 0-1 1-2 1-2 1-2 2-3 3-4 0-1 0-1 1-1 0-1 1-2 2-3 0 0 0-1 1-1 1-1 1-2 2-3 1 0 1 0 1-1 2-1 3-2 4-3 0 0 0 0 0 0 1-1 3-2 4-3 1 0 1 0 2-1 0 0 1-1 2-1 1-1 1-1 2-1 1-1 2-1 3-2 1 0 1 0 2 0 1-1 2-1 4-2 0 0 1 0 2 0 1 0 2-1 3-1 0 0 1 0 1 0 2-1 3-1 5-1 0 0 0 0 0 0 2 0 3 0 5 0 0 0 0 0 1 0 0 0 1 0 1 0 2 0 3 0 4 0 0 0 1 0 1 0 8 1 44 1 64-17 13-11 19-31 19-58 0-2 0-4 1-5h112c0 1 0 3 0 5 0 66-24 107-47 132l284 114c28 11 42 44 31 73-11 29-44 43-73 31z m-28-162c-8 0-49-1-85-37-37-36-55-93-55-168 0-5 0-10 2-15h-207c-7 0-12-5-12-11v-180c0-6 5-11 12-11h56c0-69 56-124 124-124 69 0 125 55 125 124h55c6 0 11 5 11 11v180c0 6-5 11-11 11h-45c1 5 2 10 2 15 0 70 20 90 29 92 29 1 53 25 54 55 0 31-24 57-55 58z" horiz-adv-x="1000" />

<glyph glyph-name="business" unicode="&#xf102;" d="M662 608c-19 0-34 15-34 34 0 68-56 123-124 123-68 0-124-55-124-123 0-19-15-34-34-34-19 0-34 15-34 34 0 105 86 192 192 192 106 0 192-87 192-192 0-19-15-34-34-34z m-63-390v-55c0-30-25-55-55-55h-82c-30 0-55 25-55 55v55c-146 7-284 30-407 66v-378c0-21 17-38 38-38h924c21 0 38 17 38 38v374c-121-34-258-56-401-62z m-192 51v51c0 30 25 55 55 55h82c30 0 55-25 55-55v-51c143 7 280 29 400 64l1-2v212c0 21-17 38-38 38h-924c-21 0-38-17-38-38v-209l1 3c121-37 260-60 406-68z m163-88c0-22-17-39-38-39h-58c-21 0-38 17-38 39v121c0 21 17 39 38 39h58c21 0 38-18 38-39v-121z" horiz-adv-x="1000" />

<glyph glyph-name="education" unicode="&#xf103;" d="M1000 479l-500 165-500-165 500-147 350 103v-20h47v35l103 29z m-500-217l-221 70c0 0-26-58-20-85 0 0 241-56 241-120 0 64 241 120 241 120 6 27-20 85-20 85l-221-70z m350-241h47v235l-47 6v-241z m0 297h47v-33h-47v33z m0 64h47v-32h-47v32z" horiz-adv-x="1000" />

<glyph glyph-name="entertainment" unicode="&#xf104;" d="M750-74c0-23-21-44-44-44h-662c-23 0-44 21-44 44v415c0 24 21 44 44 44h662c23 0 44-20 44-44v-415z m-571 753c-64 0-117-52-117-117 0-65 53-118 117-118 65 0 118 53 118 118s-56 117-118 117z m342 142c-103 0-189-83-189-189 0-103 83-188 189-188 103 0 188 83 188 188 0 106-85 189-188 189z m470-565c-6 3-9 3-14 0l-159-94c0 0-3-3-3-3 0 0 0 0 0 0 0 0 0-3-3-3 0 0 0 0 0 0 0 0 0-3 0-3 0 0 0 0 0 0v0-38 0c0 0 0 0 0 0 0 0 0-3 0-3 0 0 0 0 0 0 0 0 0-3 3-3 0 0 0 0 0 0 0 0 3-3 3-3l159-88c2-3 5-3 8-3 3 0 6 0 6 3 6 3 9 6 9 11v92 38 94c0-3-3 0-9 3z" horiz-adv-x="1000" />

<glyph glyph-name="fees" unicode="&#xf105;" d="M993-60l0 0-437 874c0 1 0 1 0 1l0 1 0 0c-10 20-31 34-56 34-24 0-46-14-56-34l0 0 0-1c0 0 0 0 0-1l-437-874h0c-5-8-7-17-7-28 0-34 28-62 63-62h875c34 0 62 28 62 62 0 11-2 20-7 28z m-555 660c0 35 28 63 62 63s63-28 63-63v-250c0-34-28-62-63-62s-62 28-62 62v250z m62-626c-52 0-94 43-94 94s42 94 94 94c52 0 94-42 94-94s-42-94-94-94z" horiz-adv-x="1000" />

<glyph glyph-name="financial" unicode="&#xf106;" d="M625 475c0 35-28 63-62 63s-63-28-63-63v-500h125v500z m188 125c0 35-28 63-63 63s-62-28-62-63v-625h125v625z m125 188c-35 0-63-28-63-63v-750h125v750c0 35-28 63-62 63z m-500-250c0 34-28 62-63 62s-62-28-62-62v-563h125v563z m-188-125c0 34-28 62-62 62s-63-28-63-62v-438h125v438z" horiz-adv-x="1000" />

<glyph glyph-name="food" unicode="&#xf107;" d="M500-27h62v-61c0-36-30-62-62-62h-438c-33 0-62 29-62 62v61h62 438z m0 189h-438c-35 0-62-30-62-62s29-62 62-62h438c35 0 62 30 62 62s-27 62-62 62z m-491 126c-9-17-9-32-3-44 6-9 12-17 26-17 12 0 412 0 503 0 12 0 27 5 30 17 3 12 0 27-9 44-24 36-159 124-268 124s-261-94-279-124z m991 244l0 0-62-556c0-35-29-61-61-61h-189c-35 0-61 29-61 61l-62 551c0 2-3 8-3 14 0 36 29 62 62 62h147l35 138-100 50 0 0c-9 6-18 15-18 27 0 17 15 32 33 32 6 0 8 0 14-3l0 0 124-62 0 0c9-6 18-14 18-26 0-3 0-6 0-9l0 0-39-150h12 88c36 0 62-29 62-62 0-3 0-3 0-6z m-123-58h-62l-65-436 62 0 65 436z" horiz-adv-x="1000" />

<glyph glyph-name="gift" unicode="&#xf108;" d="M562-149h250c34 0 62 28 62 62v313h-312v-375z m312 688h-126l189 187h-125v125l-313-312-250 250v-125h-125l124-125h-124c-34 0-62-28-62-63v-62-63-62h23 39 313v187h125v-187h312 63v62 63 62c0 35-28 63-63 63z m-750-626c0-34 28-62 63-62h250v375h-313v-313z" horiz-adv-x="1000" />

<glyph glyph-name="health" unicode="&#xf109;" d="M1000 315v-50h-194l-318-333-311 333h-177v50h285c12 0 24 6 33 17l41 65 118-229c5-12 20-21 32-21 0 0 0 0 0 0 15 0 26 9 32 24l130 300 44-127c6-15 20-26 35-26h250z m-950 82l0 0c3-3 6-6 9-9h206l67 100c6 12 21 18 33 18 14 0 26-9 32-21l109-217 135 314c6 15 21 24 36 21 14 0 29-12 32-26l65-192h144c35 44 59 100 59 159 0 135-109 244-245 244-135 0-244-109-244-244 0 135-109 244-244 244-135 3-244-106-244-241 0-56 21-109 50-150l0 0z" horiz-adv-x="1000" />

<glyph glyph-name="home" unicode="&#xf10a;" d="M125 351v-313c0-35 28-63 63-63h187v250h250v-250h188c34 0 62 28 62 63v313l-375 249-375-249z m-62 30c-11 0-21 5-27 14-9 15-5 34 9 44l456 298 454-298c14-10 18-29 9-44-10-14-29-18-44-9l-419 276-421-276c-6-3-12-5-17-5z" horiz-adv-x="1000" />

<glyph glyph-name="income" unicode="&#xf10b;" d="M824 456c-12 21-21 41-21 71h-600c0-59-29-98-74-124-20-12-41-21-70-21v-264c59 0 94-15 120-62 12-24 24-59 24-59h600c0 30 26 82 71 109 20 12 38 9 67 9v264c-59 3-91 30-117 77z m-197-350c-33-47-74-71-124-74-76 0-126 45-153 136 0 3-3 6-3 9-6 23-9 47-9 73 0 53 15 100 41 144 33 47 74 71 124 74 76 0 126-44 153-136 0-3 3-5 3-8 6-24 9-47 9-74 0-53-15-103-41-144z m208 715c-11 20-26 29-50 29l-597-153 659 68-12 56z m100-139c-6 24-23 39-47 42l-779-80h829l-3 38z m33-97h-933c-17 0-29-17-35-35v-600c6-21 18-12 35-41h933c17 29 29 20 32 41v600c-3 18-15 35-32 35z m-27-467c-29 0-47 3-67-9-45-27-71-80-71-109h-600c0 0-12 35-24 56-26 44-61 62-120 62v264c29 0 50 12 70 24 45 23 74 62 74 121h600c0-30 9-50 21-71 26-47 58-77 117-77v-261z m-285 211c-27 89-79 136-153 136-53 0-94-27-124-74-26-44-41-91-41-144 0-26 3-53 9-73 0-3 0-6 3-9 27-88 79-136 153-136 53 0 94 27 124 74 26 44 41 91 41 144 0 27-3 53-9 74 0 6-3 8-3 8z" horiz-adv-x="1000" />

<glyph glyph-name="investment" unicode="&#xf10c;" d="M1000-88c0-36-29-62-62-62h-864c-3 0-3 0-6 0-3 0-3 0-6 0-33 0-62 29-62 62v876c0 33 29 62 62 62 35 0 62-29 62-62v-611l191 385 0 0c9 23 32 38 59 38 20 0 38-9 50-26l0 0 0 0c0 0 3-3 3-3l211-318 256 206 0 0c12 9 27 15 41 15 36 0 62-30 62-62 0-21-9-38-23-50l0 0-309-247 0 0c-12-9-24-15-38-15-21 0-42 12-53 27l-192 288-217-442h773c33 0 62-26 62-61z" horiz-adv-x="1000" />

<glyph glyph-name="kids" unicode="&#xf10d;" d="M1000 188c0-135-109-244-244-244-135 0-244 109-244 244 0 83 41 156 103 200 0-3 3-6 3-9l20-50c-38-32-64-82-64-141 0-100 82-182 182-182 100 0 182 82 182 182 0 100-82 183-182 183-3 0-3 0-6 0l-15 38v20c6 0 12 0 21 0 135 3 244-105 244-241z m-673-82c0-91-74-162-162-162-91 0-162 74-162 162 0 91 74 162 162 162 88 0 162-74 162-162z m-62 0c0 56-47 103-103 103-56 0-103-47-103-103 0-56 44-103 103-103 56 0 103 47 103 103z m379 294c0-3 0-9 3-12l80-211c5-12 17-21 29-21 3 0 6 0 12 3 14 6 23 23 17 38l-79 206v274c0 47-38 85-85 85h-194c-18 0-30-15-30-30 0-17 15-29 30-29h194c14 0 23-12 23-24v-141c-88-14-220-82-312-173-8 50-29 97-73 129h109c17 0 29 15 29 30 0 17-15 29-29 29h-241c-18 0-30-15-30-29v-27c0-18 15-29 30-29 108 0 147-47 147-177 0-12 8-23 20-29 3 0 6-3 9-3 9 0 18 6 24 12 76 100 226 185 314 203v-74z" horiz-adv-x="1000" />

<glyph glyph-name="personal" unicode="&#xf10e;" d="M708 732h-125c-26 0-25-39 0-39h125v-19h-125c-26 0-25-39 0-39h125v-20-1h-125c-26 0-25-39 0-39h125v-19h-125c-26 0-25-39 0-39h125v-20h-125c-26 0-26-39 0-39h125v-19h-125c-26 0-26-39 0-39h125v-20h-125c-26 0-26-39 0-39h125v-19h-125c-26 0-25-39 0-39h125v-390c-1-58 105-57 105 0v897c0 26-22 60-58 60l-172 0c-26 0-25-39 0-39h125v-20h-125c-26 0-25-39 0-39h125v-20l0 0z m-396-670l274-86-3 0c26 19 41 50 41 86 0 67-69 139-157 92v258l-48 424c-2 12-9 14-15 14-7 0-14-2-15-14l-47-424v-258c-88 47-155-26-155-92 0-59 43-108 104-108 62 0 104 55 104 108v259h19v-259c0-62 49-107 102-107 5 0 10 0 15 1-1-33 10-78 29-96 24-22 51 6 40 28-12 23-26 35-14 88z m-21-53c-29 0-52 23-53 53 1 29 24 52 53 52 29 0 52-23 52-52 0-30-24-53-52-53z m177 53c0 29 24 52 52 52 29 0 53-23 53-52 0-30-24-53-53-53-28 0-52 23-52 53z m76 0" horiz-adv-x="1000" />

<glyph glyph-name="pet" unicode="&#xf10f;" d="M518 465l197-194-24-42v-26-118-117c0-30-23-53-53-53-29 0-53 23-53 53v109c-147-6-270 17-397 73v-182c0-30-23-53-53-53-29 0-53 23-53 53v235c0 6 0 24 0 24v161c-3 33-73 91-79 133-6 41 47 53 56 29 12-35 20-62 53-85h406z m294 167v100l-253-232 176-168 44 59 121-67 100 100-188 208z" horiz-adv-x="1000" />

<glyph glyph-name="shopping" unicode="&#xf110;" d="M873-20v599h-105v7c0 146-118 264-264 264-146 0-264-118-264-264v-7h-115v-601l-33-128h813l-32 130z m-574 606c0 113 92 205 205 205s205-92 205-205v-7h-410v7z" horiz-adv-x="1000" />

<glyph glyph-name="taxes" unicode="&#xf111;" d="M289 538v-140h-63v69h-36v-233h36v-71h-161v71h36v233h-38v-69h-63v140h289z m355-375h-173v70h41l-9 36h-88l-9-36h33v-70h-137v70h30l58 235h-18v70h166l76-305h30v-70z m-213 171h56l-28 116-28-116z m374-171h-143v69h37l63 102-78 134h-22v70h171v-70h-25l42-72 44 72h-38v70h143v-70h-36l-66-104 78-132h25v-69h-172v69h25l-33 55-9 15-45-70h39v-69z" horiz-adv-x="1000" />

<glyph glyph-name="transfer" unicode="&#xf112;" d="M1000 324c0-30-23-62-56-62h-382v-321c0-29-33-56-62-56-15 0-29 6-38 15l0 0c0 0 0 0 0 0l-444 382c-12 12-18 24-18 42 0 14 6 29 15 38l0 0 0 0c0 0 0 0 0 0l444 382c12 9 26 15 41 15 29 0 62-24 62-56v-321h382c33 3 56-29 56-58z m-250 247v-103c0-21 15-30 32-15l206 159c18 12 18 35 0 47l-206 156c-17 12-32 6-32-15v-103l-123 0 0-123h123z m-685 0c3 0 6 0 9 0h114l124 123h-247v0c-36 3-65-26-65-59 0-35 29-64 65-64z" horiz-adv-x="1000" />

<glyph glyph-name="travel" unicode="&#xf113;" d="M1000-25l-214 536 168 168c49 49 61 117 26 151-34 35-102 23-151-26l-168-168-536 214-125-125 188-141v-46h62l179-134-179-179v0h-187c-35 0-63-28-63-62v-1 0-62h0l188-62 62-188 1 0h61c35 0 62 28 63 63l0 0v187l179 179 134-179v-62h46l141-188 125 125z" horiz-adv-x="1000" />

<glyph glyph-name="uncategorized" unicode="&#xf114;" d="M727 785c63-45 95-114 95-207 0-48-15-94-45-138-8-13-40-42-98-89l-53-33c-29-26-46-48-52-67-6-18-9-34-9-50 0-11-5-16-17-16h-144c-11 0-17 5-17 13 1 73 11 119 30 140 19 22 37 39 55 52 21 17 42 33 61 48l28 15c19 16 31 29 37 39 20 31 30 56 30 77 0 30-9 59-28 87-19 27-53 41-102 41-50 0-85-17-105-50-20-29-30-63-30-102h-185c4 121 46 207 126 259 52 31 114 46 185 46 97 0 177-22 238-65z m-159-743c21-25 32-52 30-83-1-33-13-61-35-83-23-19-51-27-83-26-32 0-59 10-82 30-21 24-30 52-29 85 0 34 12 61 35 81 23 20 51 30 83 28 32 1 59-10 81-32z" horiz-adv-x="1000" />

<glyph glyph-name="auto-1" unicode="&#xf115;" d="M688 415c-44 44-141 141-141 141s-47 0-141 0-282-94-282-94l47-47-47-94v-94h50c11-53 58-95 114-95s103 42 115 95c59 0 126 0 191 0 12-53 59-95 115-95s103 42 115 95c17 0 35 0 50 0 3 11 0 188-186 188z m-400-259c-53 0-94 41-94 94s41 94 94 94 94-41 94-94-41-94-94-94z m165 259l-47 94h123l95-94c0 0-171 0-171 0z m259-259c-53 0-94 41-94 94s41 94 94 94 94-41 94-94-44-94-94-94z m-212 694c-276 0-500-223-500-500s224-500 500-500 500 224 500 500-223 500-500 500z m327-826c-42-42-92-77-148-101-55-23-117-35-179-35s-123 12-179 35c-56 24-103 56-147 101-42 41-77 91-100 147-24 56-36 117-36 179s12 124 36 179c23 56 55 103 100 148s91 76 147 100c56 23 117 35 179 35s124-12 179-35c56-24 103-56 148-100 41-42 76-92 100-148 23-55 35-117 35-179s-12-123-35-179c-24-56-59-103-100-147z" horiz-adv-x="1000" />

<glyph glyph-name="bills-1" unicode="&#xf116;" d="M500 850c-276 0-500-223-500-500s224-500 500-500 500 224 500 500-223 500-500 500z m327-826c-42-42-92-77-148-101-55-23-117-35-179-35s-123 12-179 35c-56 24-103 56-147 101-42 41-77 91-100 147-24 56-36 117-36 179s12 124 36 179c23 56 55 103 100 148s91 76 147 100c56 23 117 35 179 35s124-12 179-35c56-24 103-56 148-100 41-42 76-92 100-148 23-55 35-117 35-179s-12-123-35-179c-24-56-59-103-100-147z m-474 514c6 0 9 0 15 3l217 86c21 8 30 32 24 52-9 21-32 30-53 24l-218-88c-20-9-29-33-23-53 6-15 20-24 38-24z m0-117c6 0 9 0 15 3l297 117c20 9 29 33 23 53-9 21-32 30-53 24l-297-118c-20-9-29-32-23-53 6-18 20-26 38-26z m279 76l-297-118c0 0 0 0 0 0 0 0-3 0-3 0 0 0 0 0 0 0 0 0 0 0-3 0 0 0 0 0-2 0 0 0 0 0-3 0 0 0 0 0-3 0s0 0 0 0c0 0 0 0-3-2 0 0 0 0 0 0 0 0 0 0 0-3 0 0 0 0 0 0 0 0 0 0 0-3 0 0 0 0 0-3 0 0 0 0 0-3 0 0 0 0 0-3 0 0 0 0 0-3 0 0 0 0 0-3 0 0 0 0 0-3 0 0 0 0 0-3 0 0 0 0 0-3 0 0 0 0 0-3 0 0 0 0 0-3 0 0 0 0 0-3 0 0 0-3 0-3 0 0 0 0 0-3 0 0 0-3 0-3 0 0 0 0 0 0 0 0 0 0 0 0 0 0 0-2 0-2 0 0 0 0 0-3s0 0 0-3c0 0 0-3 0-3 0 0 0 0 0 0 0 0 0 0 0 0 0 0 0 0 0-3 0 0 0 0 0-3 0 0 0 0 0 0 0 0 0-3 3-3 0 0 0 0 0 0 0 0 0 0 3-3 0 0 0 0 0 0 0 0 0 0 3-3 0 0 0 0 0 0 0 0 2-3 2-3 0 0 0 0 0 0 0 0 3 0 3-3 0 0 0 0 0 0 0 0 0 0 3 0 0 0 0 0 0 0 0 0 0 0 3 0 0 0 0 0 0 0 0 0 3 0 3 0 0 0 0 0 0 0 0 0 0 0 3 0 0 0 0 0 0 0 0 0 3 0 3 0 0 0 0 0 0 0 0 0 3 0 3 0 0 0 0 0 0 0 0 0 0 0 0 0 0 0 3 0 3 0 0 0 0 0 0 0 6 0 32 0 44-12 9-8 15-20 15-41 0 0 0-3 0-3h79c0 0 0 3 0 3 0 47-17 77-32 94l200 80c20 9 29 32 23 53-5 23-29 35-50 26z m-17-115c-6 0-36 0-59-26-27-27-38-65-38-118 0-3 0-9 3-11h-147c-3 0-9-3-9-9v-127c0-3 3-9 9-9h41c0-47 38-88 88-88s88 38 88 88h38c3 0 9 3 9 9v127c0 3-3 9-9 9h-32c0 2 3 5 3 11 0 50 15 65 21 65 20 0 38 18 38 38-6 24-24 41-44 41z" horiz-adv-x="1000" />

<glyph glyph-name="business-1" unicode="&#xf117;" d="M500 850c-276 0-500-223-500-500s224-500 500-500 500 224 500 500-223 500-500 500z m327-826c-42-42-92-77-148-101-55-23-117-35-179-35s-123 12-179 35c-56 24-103 56-147 101-42 41-77 91-100 147-24 56-36 117-36 179s12 124 36 179c23 56 55 103 100 148s91 76 147 100c56 23 117 35 179 35s124-12 179-35c56-24 103-56 148-100 41-42 76-92 100-148 23-55 35-117 35-179s-12-123-35-179c-24-56-59-103-100-147z m-233 517c-12 0-20 9-20 21 0 41-33 73-74 73-41 0-73-32-73-73 0-12-9-21-21-21-12 0-21 9-21 21 3 62 56 112 118 112 62 0 112-50 112-112 0-12-9-21-21-21z m-35-229v-33c0-17-15-32-32-32h-48c-17 0-32 15-32 32v33c-88 3-168 17-241 38v-223c0-12 9-24 23-24h545c11 0 23 9 23 24v220c-73-20-156-32-238-35z m-115 29v30c0 17 15 32 33 32h47c17 0 32-15 32-32v-30c85 3 165 18 235 38l0 0v124c0 12-9 24-23 24h-539c-11 0-23-9-23-24v-124l0 3c71-23 153-35 238-41z m97-53c0-11-9-23-23-23h-36c-11 0-23 9-23 23v71c0 12 9 23 23 23h36c11 0 23-8 23-23v-71z" horiz-adv-x="1000" />

<glyph glyph-name="education-1" unicode="&#xf118;" d="M500 850c-276 0-500-223-500-500s224-500 500-500 500 224 500 500-223 500-500 500z m327-826c-42-42-92-77-148-101-55-23-117-35-179-35s-123 12-179 35c-56 24-103 56-147 101-42 41-77 91-100 147-24 56-36 117-36 179s12 124 36 179c23 56 55 103 100 148s91 76 147 100c56 23 117 35 179 35s124-12 179-35c56-24 103-56 148-100 41-42 76-92 100-148 23-55 35-117 35-179s-12-123-35-179c-24-56-59-103-100-147z m41 408l-368 121-368-121 368-108 259 76v-15h35v24l74 23z m-368-161l-162 53c0 0-20-45-14-62 0 0 176-41 176-88 0 47 177 88 177 88 2 20-15 62-15 62l-162-53z m259-177h35v174l-35 3v-177z m0 218h35v-24h-35v24z m0 47h35v-24h-35v24z" horiz-adv-x="1000" />

<glyph glyph-name="entertainment-1" unicode="&#xf119;" d="M500 850c-276 0-500-223-500-500s224-500 500-500 500 224 500 500-223 500-500 500z m327-826c-42-42-92-77-148-101-55-23-117-35-179-35s-123 12-179 35c-56 24-103 56-147 101-42 41-77 91-100 147-24 56-36 117-36 179s12 124 36 179c23 56 55 103 100 148s91 76 147 100c56 23 117 35 179 35s124-12 179-35c56-24 103-56 148-100 41-42 76-92 100-148 23-55 35-117 35-179s-12-123-35-179c-24-56-59-103-100-147z m-159 103c0-15-12-27-27-27h-388c-15 0-26 12-26 27v244c0 14 11 26 26 26h388c15 0 27-12 27-26v-244z m-336 444c-38 0-67-33-67-71s32-71 70-71 71 33 71 71-38 71-74 71z m200 82c-61 0-111-47-111-112 0-62 47-112 111-112 62 0 112 48 112 112s-50 112-112 112z m277-332c-3 3-6 3-9 0l-94-56 0-3 0 0c0 0 0-3-3-3l0 0v-3l0 0 0 0v-24l0 0 0 0v-3l0 0c0 0 0-2 3-2l0 0 3-3 94-53c3-3 3-3 6-3s3 0 3 3c3 3 6 3 6 6v52 33 56c-3 0-3 0-9 3z" horiz-adv-x="1000" />

<glyph glyph-name="fees-1" unicode="&#xf11a;" d="M500 850c-276 0-500-223-500-500s224-500 500-500 500 224 500 500-223 500-500 500z m327-826c-42-42-92-77-148-101-55-23-117-35-179-35s-123 12-179 35c-56 24-103 56-147 101-42 41-77 91-100 147-24 56-36 117-36 179s12 124 36 179c23 56 55 103 100 148s91 76 147 100c56 23 117 35 179 35s124-12 179-35c56-24 103-56 148-100 41-42 76-92 100-148 23-55 35-117 35-179s-12-123-35-179c-24-56-59-103-100-147z m-36 111l0 0-259 515c0 0 0 0 0 0l0 0h0c-5 12-17 21-32 21-15 0-26-9-32-21h0l0 0c0 0 0 0 0 0l-259-515 0 0c-3-6-3-11-3-17 0-21 18-36 35-36h515c21 0 35 18 35 36 3 6 3 11 0 17z m-326 389c0 20 17 35 35 35s35-18 35-35v-147c0-21-17-36-35-36s-35 18-35 36v147z m35-368c-29 0-56 23-56 56s24 56 56 56 56-24 56-56-27-56-56-56z" horiz-adv-x="1000" />

<glyph glyph-name="financial-1" unicode="&#xf11b;" d="M500 850c-276 0-500-223-500-500s224-500 500-500 500 224 500 500-223 500-500 500z m327-826c-42-42-92-77-148-101-55-23-117-35-179-35s-123 12-179 35c-56 24-103 56-147 101-42 41-77 91-100 147-24 56-36 117-36 179s12 124 36 179c23 56 55 103 100 148s91 76 147 100c56 23 117 35 179 35s124-12 179-35c56-24 103-56 148-100 41-42 76-92 100-148 23-55 35-117 35-179s-12-123-35-179c-24-56-59-103-100-147z m-253 400c0 20-18 35-36 35s-38-15-38-35v-295h74v295z m108 73c0 21-17 35-35 35s-35-17-35-35v-368h73v368z m77 112c-21 0-35-18-35-35v-442h70v442c0 17-17 35-35 35z m-518-480v515h-35v-588h588v12 23h-553v38z m224 333c0 20-18 35-36 35s-35-18-35-35v-330h74v330z m-112-77c0 21-18 36-35 36s-36-18-36-36v-258h71v258z" horiz-adv-x="1000" />

<glyph glyph-name="food-1" unicode="&#xf11c;" d="M500 850c-276 0-500-223-500-500s224-500 500-500 500 224 500 500-223 500-500 500z m327-826c-42-42-92-77-148-101-55-23-117-35-179-35s-123 12-179 35c-56 24-103 56-147 101-42 41-77 91-100 147-24 56-36 117-36 179s12 124 36 179c23 56 55 103 100 148s91 76 147 100c56 23 117 35 179 35s124-12 179-35c56-24 103-56 148-100 41-42 76-92 100-148 23-55 35-117 35-179s-12-123-35-179c-24-56-59-103-100-147z m-345 129h36v-35c0-21-18-36-36-36h-255c-18 0-36 18-36 36v35h36 255z m0 112h-255c-21 0-36-18-36-36s18-35 36-35h258c21 0 36 18 36 35s-18 36-39 36z m-288 73c-6-11-6-17-3-26 3-6 6-12 15-12 6 0 241 0 297 0 6 0 15 3 18 12 3 6 0 15-6 26-15 21-94 74-159 74s-150-56-162-74z m583 144l0 0-36-326c0-21-17-35-35-35h-112c-20 0-35 17-35 35l-35 323c0 3-3 6-3 9 0 21 17 36 35 36h85l21 82-59 29 0 0c-6 3-12 9-12 15 0 12 9 18 18 18 3 0 6 0 9-3l0 0 73-36 0 0c9 0 15-5 15-11 0-3 0-3 0-6l0 0-24-88h6 53c21 0 36-18 36-36 0-3 0-3 0-6z m-71-35h-35l-39-256h36l38 256z" horiz-adv-x="1000" />

<glyph glyph-name="gift-1" unicode="&#xf11d;" d="M500 850c-276 0-500-223-500-500s224-500 500-500 500 224 500 500-223 500-500 500z m327-826c-42-42-92-77-148-101-55-23-117-35-179-35s-123 12-179 35c-56 24-103 56-147 101-42 41-77 91-100 147-24 56-36 117-36 179s12 124 36 179c23 56 55 103 100 148s91 76 147 100c56 23 117 35 179 35s124-12 179-35c56-24 103-56 148-100 41-42 76-92 100-148 23-55 35-117 35-179s-12-123-35-179c-24-56-59-103-100-147z m-286 5h168c23 0 41 18 41 42v208h-209v-250z m212 462h-85l126 127h-85v82l-209-209-168 168v-85h-85l82-86h-82c-23 0-41-17-41-41v-41-41-41h15 26 209v126h85v-126h209 44v41 41 41c0 27-17 44-41 44z m-506-420c0-24 18-42 41-42h168v253h-209v-211z" horiz-adv-x="1000" />

<glyph glyph-name="health-1" unicode="&#xf11e;" d="M500 850c-276 0-500-223-500-500s224-500 500-500 500 224 500 500-223 500-500 500z m327-826c-42-42-92-77-148-101-55-23-117-35-179-35s-123 12-179 35c-56 24-103 56-147 101-42 41-77 91-100 147-24 56-36 117-36 179s12 124 36 179c23 56 55 103 100 148s91 76 147 100c56 23 117 35 179 35s124-12 179-35c56-24 103-56 148-100 41-42 76-92 100-148 23-55 35-117 35-179s-12-123-35-179c-24-56-59-103-100-147z m23 276v-35h-132l-215-224-209 227h-120v32h194c9 0 14 3 20 12l27 44 79-156c3-9 15-15 21-15l0 0c9 0 17 6 20 15l89 203 29-85c3-9 15-18 24-18l173 0 0 0z m-641 56l0 0c3-3 3-3 6-6h138l47 68c3 9 15 11 21 11 8 0 17-5 20-14l74-147 91 211c3 9 15 15 23 15 9 0 21-9 21-17l44-130h100c24 30 41 68 41 109 0 91-73 165-164 165s-165-74-165-165c0 91-74 165-165 165-91 3-164-71-164-162-3-38 11-74 32-103l0 0z" horiz-adv-x="1000" />

<glyph glyph-name="home-1" unicode="&#xf11f;" d="M500 850c-276 0-500-223-500-500s224-500 500-500 500 224 500 500-223 500-500 500z m327-826c-42-42-92-77-148-101-55-23-117-35-179-35s-123 12-179 35c-56 24-103 56-147 101-42 41-77 91-100 147-24 56-36 117-36 179s12 124 36 179c23 56 55 103 100 148s91 76 147 100c56 23 117 35 179 35s124-12 179-35c56-24 103-56 148-100 41-42 76-92 100-148 23-55 35-117 35-179s-12-123-35-179c-24-56-59-103-100-147z m-586 353v-215c0-24 21-44 44-44h130v173h173v-173h130c23 0 44 20 44 44v215l-262 173-259-173z m-44 20c-6 0-15 3-18 9-5 9-2 23 6 29l315 209 315-206c9-6 12-20 6-29-6-9-21-12-30-6l-291 188-291-191c-3 0-6-3-12-3z" horiz-adv-x="1000" />

<glyph glyph-name="income-1" unicode="&#xf120;" d="M500 850c-276 0-500-223-500-500s224-500 500-500 500 224 500 500-223 500-500 500z m327-826c-42-42-92-77-148-101-55-23-117-35-179-35s-123 12-179 35c-56 24-103 56-147 101-42 41-77 91-100 147-24 56-36 117-36 179s12 124 36 179c23 56 55 103 100 148s91 76 147 100c56 23 117 35 179 35s124-12 179-35c56-24 103-56 148-100 41-42 76-92 100-148 23-55 35-117 35-179s-12-123-35-179c-24-56-59-103-100-147z m-136 388c-6 12-12 23-12 41h-352c0-35-18-56-45-74-11-5-23-11-41-11v-156c36 0 56-9 71-35 6-15 15-36 15-36h352c0 18 15 47 42 65 11 6 23 6 41 6v156c-38 0-56 17-71 44z m-117-206c-18-27-45-41-74-44-44 0-73 26-91 79 0 3-3 3-3 6-3 15-6 27-6 44 0 33 9 59 24 86 17 26 44 41 73 44 44 0 74-27 91-80 0-3 3-3 3-6 3-14 6-26 6-44 3-32-6-62-23-85z m123 421c-6 11-15 17-29 17l-350-91 388 41-9 33z m59-83c-3 15-15 24-27 24l-458-44h488l-3 20z m21-56h-550c-12 0-18-11-21-20v-353c3-12 12-6 21-24h547c11 18 17 12 17 24v353c0 11-6 20-14 20z m-18-273c-18 0-27 3-41-6-27-15-41-47-41-65h-353c0 0-6 21-15 33-15 26-35 35-71 35v156c18 0 30 6 41 14 27 15 45 36 45 71h353c0-18 5-29 11-41 15-27 36-44 71-44v-153z m-168 123c-14 53-47 80-91 80-32 0-56-15-73-44-15-27-24-53-24-86 0-14 3-32 6-44 0-3 0-3 3-6 15-53 47-79 91-79 32 0 56 15 74 44 14 26 23 53 23 85 0 15-3 33-6 44 0 3-3 6-3 6z" horiz-adv-x="1000" />

<glyph glyph-name="investment-1" unicode="&#xf121;" d="M500 850c-276 0-500-223-500-500s224-500 500-500 500 224 500 500-223 500-500 500z m327-826c-42-42-92-77-148-101-55-23-117-35-179-35s-123 12-179 35c-56 24-103 56-147 101-42 41-77 91-100 147-24 56-36 117-36 179s12 124 36 179c23 56 55 103 100 148s91 76 147 100c56 23 117 35 179 35s124-12 179-35c56-24 103-56 148-100 41-42 76-92 100-148 23-55 35-117 35-179s-12-123-35-179c-24-56-59-103-100-147z m-50 103c0-18-15-33-33-33h-459c-3 0-3 0-3 0-3 0-3 0-3 0-17 0-32 15-32 33v464c0 18 15 33 32 33 18 0 33-15 33-33v-323l100 203 0 0c6 11 17 20 32 20 12 0 21-6 27-14l0 0 0 0 3-3 111-168 136 109 0 0c6 6 14 9 20 9 18 0 33-15 33-33 0-12-6-20-12-26l0 0-165-130 0 0c-6-6-12-8-20-8-12 0-21 5-30 14l-100 153-115-232h409c21-3 36-18 36-35z" horiz-adv-x="1000" />

<glyph glyph-name="kids-1" unicode="&#xf122;" d="M500 850c-276 0-500-223-500-500s224-500 500-500 500 224 500 500-223 500-500 500z m327-826c-42-42-92-77-148-101-55-23-117-35-179-35s-123 12-179 35c-56 24-103 56-147 101-42 41-77 91-100 147-24 56-36 117-36 179s12 124 36 179c23 56 55 103 100 148s91 76 147 100c56 23 117 35 179 35s124-12 179-35c56-24 103-56 148-100 41-42 76-92 100-148 23-55 35-117 35-179s-12-123-35-179c-24-56-59-103-100-147z m-3 229c0-88-71-159-159-159s-159 71-159 159c0 53 26 100 68 129 0-3 3-3 3-5l14-33c-23-20-41-53-41-91 0-65 53-118 118-118s117 53 117 118c0 65-53 118-117 118-3 0-3 0-3 0l-9 23v15c3 0 9 0 15 0 82 0 153-71 153-156z m-439-56c0-59-47-106-106-106-58 0-105 47-105 106 0 59 47 106 105 106s106-47 106-106z m-38 0c0 35-29 68-68 68s-67-30-67-68 29-68 67-68c36 3 68 33 68 68z m244 191c0-3 0-6 3-9l53-138c3-9 12-14 18-14 3 0 3 0 9 2 8 3 14 15 11 24l-53 132v177c0 29-23 56-55 56h-127c-12 0-18-9-18-18 0-6 9-15 18-15h127c8 0 14-8 14-14v-92c-56-8-144-52-203-111-6 32-17 61-47 85h71c12 0 17 9 17 18 0 11-8 17-17 17h-156c-12 0-18-9-18-17v-18c0-12 9-18 18-18 71 0 94-29 94-114 0-9 6-15 15-18 3 0 3-3 6-3 6 0 11 3 14 9 50 65 147 120 203 132l3-53 0 0z" horiz-adv-x="1000" />

<glyph glyph-name="personal-1" unicode="&#xf123;" d="M500 850c-276 0-500-223-500-500s224-500 500-500 500 224 500 500-223 500-500 500z m327-826c-42-42-92-77-148-101-55-23-117-35-179-35s-123 12-179 35c-56 24-103 56-147 101-42 41-77 91-100 147-24 56-36 117-36 179s12 124 36 179c23 56 55 103 100 148s91 76 147 100c56 23 117 35 179 35s124-12 179-35c56-24 103-56 148-100 41-42 76-92 100-148 23-55 35-117 35-179s-12-123-35-179c-24-56-59-103-100-147z m-156 603v-580c0-35-68-38-68 0v253h-79c-18 0-18 27 0 27h79v11h-79c-18 0-18 27 0 27h79v12h-79c-18 0-18 26 0 26h79v12h-79c-18 0-18 26 0 26h79v12h-79c-18 0-18 26 0 26h79v12h-79c-18 0-18 27 0 27h79v0 9h-79c-18 0-18 26 0 26h79v12h-79c-18 0-18 26 0 26h79 0v12h-79c-18 0-18 26 0 26h79v12h-79c-18 0-18 27 0 27l111 0c21-3 36-24 36-41z m-124-471c0 44-44 91-103 59v167l-32 274c0 9-6 9-9 9-3 0-9-3-9-9l-29-274v-167c-56 29-100-18-100-59 0-38 29-71 67-71 39 0 68 36 68 71v168h12v-168c0-41 32-71 65-71 2 0 5 0 8 0 0-20 6-50 18-61 15-15 32 3 26 17-8 15-17 24-8 56l-3 0c20 15 29 35 29 59z m-215-35c-17 0-32 14-32 35 0 18 15 35 32 35 18 0 33-14 33-35 0-21-15-35-33-35z m147 0c-17 0-32 14-32 35 0 18 15 35 32 35 18 0 36-14 33-35 3-21-12-35-33-35z" horiz-adv-x="1000" />

<glyph glyph-name="pet-1" unicode="&#xf124;" d="M500 850c-276 0-500-223-500-500s224-500 500-500 500 224 500 500-223 500-500 500z m327-826c-42-42-92-77-148-101-55-23-117-35-179-35s-123 12-179 35c-56 24-103 56-147 101-42 41-77 91-100 147-24 56-36 117-36 179s12 124 36 179c23 56 55 103 100 148s91 76 147 100c56 23 117 35 179 35s124-12 179-35c56-24 103-56 148-100 41-42 76-92 100-148 23-55 35-117 35-179s-12-123-35-179c-24-56-59-103-100-147z m-303 429l126-126-15-27v-18-76-77c0-17-14-35-35-35s-35 15-35 35v74c-94-3-177 12-259 47v-118c0-17-15-35-35-35-18 0-36 15-36 35v153c0 3 0 15 0 15v106c-3 21-47 59-53 85s30 36 36 18c9-24 14-41 35-56h271z m191 109v65l-165-150 115-109 29 38 80-44 64 65-123 135z" horiz-adv-x="1000" />

<glyph glyph-name="shopping-1" unicode="&#xf125;" d="M500 850c-276 0-500-223-500-500s224-500 500-500 500 224 500 500-223 500-500 500z m327-826c-42-42-92-77-148-101-55-23-117-35-179-35s-123 12-179 35c-56 24-103 56-147 101-42 41-77 91-100 147-24 56-36 117-36 179s12 124 36 179c23 56 55 103 100 148s91 76 147 100c56 23 117 35 179 35s124-12 179-35c56-24 103-56 148-100 41-42 76-92 100-148 23-55 35-117 35-179s-12-123-35-179c-24-56-59-103-100-147z m-92 120v388h-67v6c0 94-77 171-171 171-94 0-170-77-170-171v-6h-77v-388l-21-82h527l-21 82z m-373 394c0 74 59 133 132 133s133-59 133-133v-6h-265v6z" horiz-adv-x="1000" />

<glyph glyph-name="taxes-1" unicode="&#xf126;" d="M500 850c-276 0-500-223-500-500s224-500 500-500 500 224 500 500-223 500-500 500z m327-826c-42-42-92-77-148-101-55-23-117-35-179-35s-123 12-179 35c-56 24-103 56-147 101-42 41-77 91-100 147-24 56-36 117-36 179s12 124 36 179c23 56 55 103 100 148s91 76 147 100c56 23 117 35 179 35s124-12 179-35c56-24 103-56 148-100 41-42 76-92 100-148 23-55 35-117 35-179s-12-123-35-179c-24-56-59-103-100-147z m-483 479v-103h-47v50h-26v-171h26v-52h-118v52h27v171h-27v-50h-47v103h212z m262-274h-127v53h30l-6 27h-65l-6-27h24v-53h-100v53h21l44 174h-12v50h120l56-224h24l-3-53 0 0z m-156 127h41l-20 85-21-85z m274-127h-106v50h29l47 77-59 97h-17v50h126v-50h-17l32-53 32 53h-26v50h106v-50h-27l-47-76 56-98h18v-50h-127v50h18l-27 42-6 11-32-53h30v-50z" horiz-adv-x="1000" />

<glyph glyph-name="transfer-1" unicode="&#xf127;" d="M500 850c-276 0-500-223-500-500s224-500 500-500 500 224 500 500-223 500-500 500z m327-826c-42-42-92-77-148-101-55-23-117-35-179-35s-123 12-179 35c-56 24-103 56-147 101-42 41-77 91-100 147-24 56-36 117-36 179s12 124 36 179c23 56 55 103 100 148s91 76 147 100c56 23 117 35 179 35s124-12 179-35c56-24 103-56 148-100 41-42 76-92 100-148 23-55 35-117 35-179s-12-123-35-179c-24-56-59-103-100-147z m-3 297c0-18-15-42-36-42h-247v-205c0-18-20-36-41-36-9 0-18 3-23 9l0 0 0 0-289 247c-9 9-11 15-11 27 0 8 2 17 8 23l0 0 0 0 0 0 289 247c8 6 17 9 26 9 18 0 41-15 41-35v-206h247c21 3 36-18 36-38z m-162 158v-67c0-15 9-18 20-9l133 103c12 9 12 23 0 29l-133 100c-11 9-20 3-20-8v-68h-80v-80l80 0 0 0z m-444 0c3 0 3 0 6 0h73l80 80h-159l0 0c-24 3-41-15-41-35 0-24 17-45 41-45z" horiz-adv-x="1000" />

<glyph glyph-name="travel-1" unicode="&#xf128;" d="M500 850c-276 0-500-223-500-500s224-500 500-500 500 224 500 500-223 500-500 500z m327-826c-42-42-92-77-148-101-55-23-117-35-179-35s-123 12-179 35c-56 24-103 56-147 101-42 41-77 91-100 147-24 56-36 117-36 179s12 124 36 179c23 56 55 103 100 148s91 76 147 100c56 23 117 35 179 35s124-12 179-35c56-24 103-56 148-100 41-42 76-92 100-148 23-55 35-117 35-179s-12-123-35-179c-24-56-59-103-100-147z m-42 85l-126 315 100 100c29 29 35 67 15 88-21 20-59 15-89-15l-100-100-314 127-74-74 112-82v-27h35l106-79-106-106v0h-112c-20 0-35-18-35-35v0 0-36h0l109-35 35-109 0 0h36c20 0 35 18 35 36l0 0v108l106 106 79-106v-35h27l82-112 79 71z" horiz-adv-x="1000" />

<glyph glyph-name="uncategorized-1" unicode="&#xf129;" d="M500 850c-276 0-500-223-500-500s224-500 500-500 500 224 500 500-223 500-500 500z m327-826c-42-42-92-77-148-101-55-23-117-35-179-35s-123 12-179 35c-56 24-103 56-147 101-42 41-77 91-100 147-24 56-36 117-36 179s12 124 36 179c23 56 55 103 100 148s91 76 147 100c56 23 117 35 179 35s124-12 179-35c56-24 103-56 148-100 41-42 76-92 100-148 23-55 35-117 35-179s-12-123-35-179c-24-56-59-103-100-147z m-156 635c44-30 64-80 64-141 0-33-11-65-32-94-6-9-26-30-68-62l-35-24c-21-17-32-32-35-47-3-12-6-23-6-35 0-6-3-12-12-12h-97c-9 0-12 3-12 9 0 50 9 82 21 94 12 15 26 27 38 35 15 12 30 24 41 33l21 12c12 11 20 20 26 26 15 21 21 38 21 53 0 21-6 41-21 59-11 17-35 29-70 29-33 0-59-12-71-35-15-21-20-44-20-71h-130c3 83 33 141 85 177 39 26 80 38 127 38 68 0 123-15 165-44z m-109-509c15-18 20-35 20-56 0-23-8-41-23-56-15-11-35-17-56-17-21 0-41 6-56 20-15 15-20 36-20 59 0 24 8 41 23 56 15 15 35 21 56 21 21-3 41-12 56-27z" horiz-adv-x="1000" />

<glyph glyph-name="split" unicode="&#xf12a;" d="M895 264c-22-1-37-22-34-44l14-128-317 258 317 256-14-128c-2-22 12-40 34-44 2 0 3 0 5 0 20 0 36 16 39 35l28 261-262 29c-22 4-41-12-44-34-2-22 12-41 34-44l130-14-334-270h-383c-27 0-47-20-47-47 0-27 20-47 47-47h383l334-270-130-14c-22-2-37-22-34-44 2-20 19-34 39-34 2 0 3 0 5 0l262 28-28 261c-3 22-22 37-44 34z" horiz-adv-x="1000" />

<glyph glyph-name="split-1" unicode="&#xf12b;" d="M500 850c-277 0-500-223-500-500s223-500 500-500 500 223 500 500-223 500-500 500z m327-827c-41-40-91-76-147-100-57-23-117-36-180-36s-123 13-180 36c-56 24-103 57-147 100-40 41-76 91-100 147s-35 118-35 180 12 123 35 180 57 103 100 147 91 76 147 100 118 36 180 36 123-13 180-36 103-57 147-100c40-41 76-91 100-147 23-57 36-117 36-180s-13-123-36-180c-24-56-60-103-100-147z m-68 265c-15-2-26-16-25-32l10-92-230 186 231 186-11-92c-1-16 10-30 25-31 2 0 2 0 4 0 14 0 26 10 28 25l22 189-193 20c-15 1-29-9-31-25-1-16 9-30 25-31l95-11-243-196h-278c-19 0-35-15-35-34 0-19 16-34 35-34h278l243-197-95-11c-16-2-26-16-25-31 2-14 14-25 28-25 2 0 2 0 3 0l193 21-21 190c-3 15-15 26-33 25z" horiz-adv-x="1000" />

<glyph glyph-name="prohibited" unicode="&#xf12c;" d="M500 850c-276 0-500-223-500-500 0-276 224-500 500-500s500 224 500 500c0 277-223 500-500 500z m327-173l0 0c0 0 0 0 0 0 0 0 0 0 0 0z m-753-506c-24 56-36 117-36 179 0 62 12 124 36 179 23 56 55 103 100 148s91 76 147 100c56 23 117 35 179 35s124-12 179-35c50-21 95-50 133-89l-650-650c-35 39-68 83-88 133z m100-147l0 0c0 0 0 0 0 0 0 0 0 0 0 0z m653 0c-42-42-92-77-148-101-55-23-117-35-179-35s-123 12-179 35c-50 21-94 50-133 89l650 650c36-38 65-83 89-133 23-55 35-117 35-179 0-62-12-123-35-179-24-56-59-103-100-147z" horiz-adv-x="1000" />

<glyph glyph-name="waiting" unicode="&#xf12d;" d="M475 562v-227h-211c-13 0-24-11-24-25s11-24 24-24h261v276c0 14-11 24-25 24s-25-11-25-24z m440-212c0-229-186-415-415-415s-415 186-415 415 186 415 415 415c146 0 280-79 356-204l-136 18c-14 2-27-7-28-21-2-14 7-27 21-28l210-28 30 222c2 13-8 26-22 28-13 1-26-8-28-22l-16-124c-87 129-231 209-387 209-256 0-465-209-465-465s209-465 465-465 465 209 465 465c0 0-50 0-50 0z" horiz-adv-x="1000" />
</font>
</defs>
</svg>
