<?xml version="1.0" encoding="UTF-8"?>
<svg version="1.1" viewBox="0 0 327 310" xmlns="http://www.w3.org/2000/svg" xmlns:xlink="http://www.w3.org/1999/xlink">
<title>Group 3 Copy 4</title>
<desc>Created with Sketch.</desc>
<defs>
<circle id="c" cx="192" cy="170" r="154"/>
<rect id="b" width="742" height="228" rx="3"/>
<filter id="e" x="-2%" y="-6.6%" width="104%" height="113.2%">
<feOffset dx="0" dy="0" in="SourceAlpha" result="shadowOffsetOuter1"/>
<feGaussianBlur in="shadowOffsetOuter1" result="shadowBlurOuter1" stdDeviation="5"/>
<feColorMatrix in="shadowBlurOuter1" values="0 0 0 0 0   0 0 0 0 0   0 0 0 0 0  0 0 0 0.299450861 0"/>
</filter>
<path id="a" d="m96.583 75.476v77.177h-27v-77.177h-28.664l42.5-68 42.5 68h-29.336z"/>
</defs>
<g fill="none" fill-rule="evenodd">
<g transform="translate(-59 -403)">
<g transform="translate(39 388)">
<mask id="d" fill="white">
<use xlink:href="#c"/>
</mask>
<use fill="#E5E5E5" fill-rule="nonzero" stroke="#979797" xlink:href="#c"/>
<g mask="url(#d)">
<g transform="translate(130 61)">
<g fill-rule="evenodd">
<g fill-rule="nonzero">
<use fill="black" filter="url(#e)" xlink:href="#b"/>
<use fill="#FFFFFF" xlink:href="#b"/>
</g>
<text fill="#2E2E2E" font-family="sans-serif" font-size="14">
<tspan x="60.5" y="68">Account 2</tspan>
</text>
<text fill="#9B9B9B" font-family="sans-serif" font-size="12">
<tspan x="61" y="83">XXXX3451</tspan>
</text>
<g transform="translate(15 14)" fill="#9B9B9B">
<path d="m4.2815 18.971c-0.12629 0-0.25259-0.038691-0.3593-0.11511-0.18895-0.13639-0.28294-0.36466-0.24378-0.591l1.0378-5.9787-4.3958-4.2328c-0.16643-0.16153-0.22615-0.40142-0.15469-0.62002 0.071469-0.2186 0.26336-0.3782 0.49343-0.41109l6.0758-0.87151 2.7168-5.439c0.20657-0.41303 0.89189-0.41303 1.0975 0l2.7168 5.439 6.0748 0.87151c0.22909 0.032887 0.42294 0.19249 0.49441 0.41109 0.071468 0.21957 0.012727 0.45945-0.15371 0.62002l-4.3958 4.2328 1.0387 5.9787c0.039161 0.22634-0.055804 0.45752-0.24378 0.591-0.18601 0.13542-0.43664 0.15283-0.6442 0.046429l-5.4365-2.8225-5.4336 2.8225c-0.09007 0.046429-0.18699 0.068676-0.2849 0.068676zm-2.2185-10.929l3.7379 3.6012c0.14392 0.14025 0.20951 0.34048 0.17622 0.5349l-0.8821 5.084 4.621-2.3988c0.17916-0.090924 0.39063-0.090924 0.56979 0l4.621 2.3988-0.88308-5.084c-0.032308-0.19442 0.032308-0.39465 0.1772-0.5349l3.7389-3.6012-5.1663-0.7419c-0.19874-0.029018-0.37203-0.15283-0.46112-0.33081l-2.3124-4.6255-2.3105 4.6255c-0.089091 0.17895-0.26042 0.30276-0.46014 0.33177l-5.1663 0.74093z" fill-rule="nonzero"/>
</g>
<path d="m0 46h742" stroke="#D8D8D8" stroke-linecap="square"/>
<path d="m0 94h742" stroke="#D8D8D8" stroke-linecap="square"/>
<path d="m0 139h742" stroke="#D8D8D8" stroke-linecap="square"/>
<path d="m0 184h742" stroke="#D8D8D8" stroke-linecap="square"/>
<text fill="#2E2E2E" font-family="sans-serif" font-size="14">
<tspan x="60.5" y="21">Account 1</tspan>
</text>
<text fill="#9B9B9B" font-family="sans-serif" font-size="12">
<tspan x="61" y="36">XXXX2351</tspan>
</text>
<g transform="translate(15 60)" fill="#F0B400">
<path d="m19.835 7.4335c-0.072448-0.2186-0.26434-0.3782-0.49441-0.41109l-6.0748-0.87151-2.7168-5.4399c-0.20657-0.41303-0.89091-0.41303-1.0975 0l-2.7168 5.439-6.0758 0.87151c-0.23007 0.032887-0.42196 0.19249-0.49343 0.41206-0.072448 0.21957-0.011748 0.45945 0.15469 0.62002l4.3958 4.2328-1.0378 5.9787c-0.039161 0.22634 0.055804 0.45655 0.24378 0.591 0.10671 0.076415 0.23301 0.11511 0.3593 0.11511 0.097902 0 0.19483-0.022247 0.2849-0.069644l5.4336-2.8215 5.4345 2.8225c0.20755 0.1064 0.4572 0.088989 0.6442-0.046429 0.18797-0.13542 0.28294-0.36466 0.24378-0.591l-1.0378-5.9787 4.3948-4.2338c0.16741-0.16057 0.22713-0.40045 0.15566-0.61905z" fill-rule="nonzero"/>
</g>
</g>
<text font-family="sans-serif" font-size="14">
<tspan x="60.2924805" y="115" fill="#2E2E2E">Account 3</tspan>
</text>
<text font-family="sans-serif" font-size="14">
<tspan x="60.2924805" y="160" fill="#2E2E2E">Account 4</tspan>
</text>
<text font-family="sans-serif" font-size="14">
<tspan x="60.2924805" y="205" fill="#2E2E2E">Account 5</tspan>
</text>
<text font-family="sans-serif" font-size="12">
<tspan x="61" y="130" fill="#9B9B9B">XXXX1236</tspan>
</text>
<text font-family="sans-serif" font-size="12">
<tspan x="61" y="175" fill="#9B9B9B">XXXX6942</tspan>
</text>
<text font-family="sans-serif" font-size="12">
<tspan x="61" y="220" fill="#9B9B9B">XXXX1234</tspan>
</text>
<g transform="translate(16 106)" fill-rule="evenodd">
<g fill="#9B9B9B">
<path d="m4.2815 18.971c-0.12629 0-0.25259-0.038691-0.3593-0.11511-0.18895-0.13639-0.28294-0.36466-0.24378-0.591l1.0378-5.9787-4.3958-4.2328c-0.16643-0.16153-0.22615-0.40142-0.15469-0.62002 0.071469-0.2186 0.26336-0.3782 0.49343-0.41109l6.0758-0.87151 2.7168-5.439c0.20657-0.41303 0.89189-0.41303 1.0975 0l2.7168 5.439 6.0748 0.87151c0.22909 0.032887 0.42294 0.19249 0.49441 0.41109 0.071468 0.21957 0.012727 0.45945-0.15371 0.62002l-4.3958 4.2328 1.0387 5.9787c0.039161 0.22634-0.055804 0.45752-0.24378 0.591-0.18601 0.13542-0.43664 0.15283-0.6442 0.046429l-5.4365-2.8225-5.4336 2.8225c-0.09007 0.046429-0.18699 0.068676-0.2849 0.068676zm-2.2185-10.929l3.7379 3.6012c0.14392 0.14025 0.20951 0.34048 0.17622 0.5349l-0.8821 5.084 4.621-2.3988c0.17916-0.090924 0.39063-0.090924 0.56979 0l4.621 2.3988-0.88308-5.084c-0.032308-0.19442 0.032308-0.39465 0.1772-0.5349l3.7389-3.6012-5.1663-0.7419c-0.19874-0.029018-0.37203-0.15283-0.46112-0.33081l-2.3124-4.6255-2.3105 4.6255c-0.089091 0.17895-0.26042 0.30276-0.46014 0.33177l-5.1663 0.74093z" fill-rule="nonzero"/>
</g>
</g>
<g transform="translate(16 151)" fill-rule="evenodd">
<g fill="#9B9B9B">
<path d="m4.2815 18.971c-0.12629 0-0.25259-0.038691-0.3593-0.11511-0.18895-0.13639-0.28294-0.36466-0.24378-0.591l1.0378-5.9787-4.3958-4.2328c-0.16643-0.16153-0.22615-0.40142-0.15469-0.62002 0.071469-0.2186 0.26336-0.3782 0.49343-0.41109l6.0758-0.87151 2.7168-5.439c0.20657-0.41303 0.89189-0.41303 1.0975 0l2.7168 5.439 6.0748 0.87151c0.22909 0.032887 0.42294 0.19249 0.49441 0.41109 0.071468 0.21957 0.012727 0.45945-0.15371 0.62002l-4.3958 4.2328 1.0387 5.9787c0.039161 0.22634-0.055804 0.45752-0.24378 0.591-0.18601 0.13542-0.43664 0.15283-0.6442 0.046429l-5.4365-2.8225-5.4336 2.8225c-0.09007 0.046429-0.18699 0.068676-0.2849 0.068676zm-2.2185-10.929l3.7379 3.6012c0.14392 0.14025 0.20951 0.34048 0.17622 0.5349l-0.8821 5.084 4.621-2.3988c0.17916-0.090924 0.39063-0.090924 0.56979 0l4.621 2.3988-0.88308-5.084c-0.032308-0.19442 0.032308-0.39465 0.1772-0.5349l3.7389-3.6012-5.1663-0.7419c-0.19874-0.029018-0.37203-0.15283-0.46112-0.33081l-2.3124-4.6255-2.3105 4.6255c-0.089091 0.17895-0.26042 0.30276-0.46014 0.33177l-5.1663 0.74093z" fill-rule="nonzero"/>
</g>
</g>
<g transform="translate(16 196)" fill-rule="evenodd">
<g fill="#9B9B9B">
<path d="m4.2815 18.971c-0.12629 0-0.25259-0.038691-0.3593-0.11511-0.18895-0.13639-0.28294-0.36466-0.24378-0.591l1.0378-5.9787-4.3958-4.2328c-0.16643-0.16153-0.22615-0.40142-0.15469-0.62002 0.071469-0.2186 0.26336-0.3782 0.49343-0.41109l6.0758-0.87151 2.7168-5.439c0.20657-0.41303 0.89189-0.41303 1.0975 0l2.7168 5.439 6.0748 0.87151c0.22909 0.032887 0.42294 0.19249 0.49441 0.41109 0.071468 0.21957 0.012727 0.45945-0.15371 0.62002l-4.3958 4.2328 1.0387 5.9787c0.039161 0.22634-0.055804 0.45752-0.24378 0.591-0.18601 0.13542-0.43664 0.15283-0.6442 0.046429l-5.4365-2.8225-5.4336 2.8225c-0.09007 0.046429-0.18699 0.068676-0.2849 0.068676zm-2.2185-10.929l3.7379 3.6012c0.14392 0.14025 0.20951 0.34048 0.17622 0.5349l-0.8821 5.084 4.621-2.3988c0.17916-0.090924 0.39063-0.090924 0.56979 0l4.621 2.3988-0.88308-5.084c-0.032308-0.19442 0.032308-0.39465 0.1772-0.5349l3.7389-3.6012-5.1663-0.7419c-0.19874-0.029018-0.37203-0.15283-0.46112-0.33081l-2.3124-4.6255-2.3105 4.6255c-0.089091 0.17895-0.26042 0.30276-0.46014 0.33177l-5.1663 0.74093z" fill-rule="nonzero"/>
</g>
</g>
</g>
</g>
<mask fill="white">
<use xlink:href="#a"/>
</mask>
<use transform="translate(83.419 80.065) rotate(131) translate(-83.419 -80.065)" fill="#4A4A4A" fill-rule="nonzero" xlink:href="#a"/>
</g>
</g>
</g>
</svg>
